<svg xmlns="http://www.w3.org/2000/svg" xmlns:xlink="http://www.w3.org/1999/xlink" width="113" zoomAndPan="magnify" viewBox="0 0 84.75 56.999997" height="76" preserveAspectRatio="xMidYMid meet" version="1.0"><path fill="#ffffff" d="M 10.863281 45.390625 L 10.863281 43.230469 L 10.835938 42.953125 L 10.847656 41.765625 L 10.875 41.484375 L 10.847656 41.203125 L 10.847656 40.925781 L 10.835938 40.605469 L 10.875 40.019531 L 10.847656 39.722656 L 10.835938 36.390625 L 11.007812 35.976562 L 11.277344 35.832031 L 12.128906 35.761719 L 12.449219 35.777344 L 12.746094 35.832031 L 13.039062 35.832031 L 13.304688 35.761719 L 13.585938 35.761719 L 13.878906 35.816406 L 14.761719 35.816406 L 15.1875 35.789062 L 15.640625 35.804688 L 16.484375 35.992188 L 17.03125 36.175781 L 17.550781 36.457031 L 18.378906 37.335938 L 18.539062 37.5625 L 18.660156 37.816406 L 18.914062 38.644531 L 18.96875 38.9375 L 18.992188 39.859375 L 18.808594 40.699219 L 18.234375 41.726562 L 18.03125 41.898438 L 17.820312 42.113281 L 17.699219 42.429688 L 17.710938 42.792969 L 17.886719 43.003906 L 18.351562 43.765625 L 18.488281 44.019531 L 18.980469 44.765625 L 19.085938 45.046875 L 19.273438 45.246094 L 19.433594 45.566406 L 19.339844 45.886719 L 19.0625 46.019531 L 18.578125 46.03125 L 18.300781 46.003906 L 17.152344 46.019531 L 16.65625 45.886719 L 16.335938 45.632812 L 16.175781 45.378906 L 16.054688 45.085938 L 15.894531 44.871094 L 15.617188 44.339844 L 15.308594 43.910156 L 15.203125 43.644531 L 15.015625 43.351562 L 14.734375 43.113281 L 13.878906 42.992188 L 13.597656 43.152344 L 13.480469 43.445312 L 13.4375 44.378906 L 13.492188 44.683594 L 13.464844 44.9375 L 13.464844 45.433594 L 13.332031 45.859375 L 12.863281 46.003906 L 12.425781 46.003906 L 12.183594 46.03125 L 11.714844 45.992188 L 11.4375 46.03125 L 11.007812 45.84375 Z M 13.878906 40.65625 L 14.199219 40.632812 L 14.90625 40.65625 L 15.1875 40.644531 L 15.601562 40.539062 L 15.871094 40.417969 L 16.03125 40.296875 L 16.191406 40.070312 L 16.324219 39.777344 L 16.363281 39.351562 L 16.308594 38.964844 L 16.214844 38.738281 L 15.855469 38.285156 L 15.574219 38.203125 L 15.203125 38.175781 L 14.789062 38.097656 L 14.199219 38.152344 L 13.90625 38.136719 L 13.597656 38.257812 L 13.480469 38.523438 L 13.4375 39.136719 L 13.480469 39.390625 L 13.480469 40.257812 L 13.585938 40.496094 Z M 13.878906 40.65625 " fill-opacity="1" fill-rule="nonzero"/><path fill="#ffffff" d="M 24.964844 46.03125 L 24.683594 46.003906 L 24.390625 46.03125 L 24.054688 46.019531 L 23.777344 45.964844 L 23.175781 46.003906 L 22.90625 45.992188 L 22.585938 46.019531 L 21.546875 46.003906 L 21.105469 45.820312 L 20.984375 45.417969 L 20.957031 45.097656 L 21 44.097656 L 20.957031 43.804688 L 20.984375 43.523438 L 21 41.164062 L 20.957031 40.910156 L 20.972656 39.710938 L 21 39.429688 L 20.957031 39.125 L 20.984375 37.695312 L 20.945312 37.378906 L 20.984375 36.777344 L 20.957031 36.230469 L 21.117188 35.921875 L 21.425781 35.804688 L 21.71875 35.816406 L 22 35.789062 L 22.265625 35.816406 L 22.546875 35.761719 L 22.839844 35.804688 L 24.03125 35.777344 L 24.324219 35.804688 L 24.578125 35.789062 L 24.871094 35.816406 L 25.191406 35.789062 L 26.367188 35.777344 L 26.632812 35.832031 L 26.941406 35.832031 L 27.234375 35.949219 L 27.367188 36.230469 L 27.394531 37.097656 L 27.382812 37.390625 L 27.394531 37.683594 L 27.246094 37.949219 L 26.941406 38.125 L 26.660156 38.136719 L 24.578125 38.109375 L 24.296875 38.164062 L 24.015625 38.152344 L 23.695312 38.269531 L 23.5625 38.539062 L 23.5625 38.992188 L 23.683594 39.445312 L 23.988281 39.578125 L 24.84375 39.550781 L 25.445312 39.589844 L 25.75 39.5625 L 26.621094 39.5625 L 26.953125 39.75 L 27.101562 40.164062 L 27.058594 41.472656 L 26.953125 41.765625 L 26.660156 41.882812 L 26.324219 41.871094 L 26.03125 41.898438 L 25.429688 41.882812 L 24.882812 41.910156 L 24.417969 41.871094 L 23.976562 41.882812 L 23.707031 42.042969 L 23.589844 42.351562 L 23.589844 43.273438 L 23.695312 43.523438 L 24.003906 43.671875 L 24.324219 43.644531 L 24.601562 43.683594 L 24.925781 43.671875 L 25.21875 43.699219 L 25.699219 43.644531 L 26.445312 43.660156 L 26.726562 43.699219 L 27.058594 43.671875 L 27.367188 43.804688 L 27.527344 44.097656 L 27.527344 45.566406 L 27.367188 45.871094 L 27.058594 46.003906 Z M 24.964844 46.03125 " fill-opacity="1" fill-rule="nonzero"/><path fill="#ffffff" d="M 33.316406 46.140625 L 33.023438 46.046875 L 32.195312 45.898438 L 31.953125 45.832031 L 30.941406 45.246094 L 30.457031 44.910156 L 29.871094 44.296875 L 29.539062 43.804688 L 29.285156 43.3125 L 28.871094 41.9375 L 28.789062 40.925781 L 28.816406 40.457031 L 29.070312 39.003906 L 29.617188 37.910156 L 29.777344 37.695312 L 29.992188 37.484375 L 30.179688 37.242188 L 30.820312 36.683594 L 31.621094 36.175781 L 32.753906 35.777344 L 33.023438 35.761719 L 33.277344 35.671875 L 33.570312 35.65625 L 34.933594 35.710938 L 35.613281 35.910156 L 35.921875 35.964844 L 36.933594 36.496094 L 37.160156 36.683594 L 37.390625 36.898438 L 37.710938 37.164062 L 38.296875 38.003906 L 38.429688 38.269531 L 38.628906 38.871094 L 38.550781 39.109375 L 38.175781 39.269531 L 37.484375 39.230469 L 37.042969 39.285156 L 36.585938 39.269531 L 36.242188 39.164062 L 35.933594 38.925781 L 35.746094 38.671875 L 35.574219 38.484375 L 35.292969 38.296875 L 35.011719 38.175781 L 34.476562 38.03125 L 33.582031 38.058594 L 33.328125 38.175781 L 33.0625 38.203125 L 32.808594 38.335938 L 32.300781 38.699219 L 31.847656 39.390625 L 31.605469 39.910156 L 31.515625 40.484375 L 31.527344 41.324219 L 31.59375 41.792969 L 31.714844 42.21875 L 31.996094 42.738281 L 32.15625 42.953125 L 32.59375 43.351562 L 33.382812 43.671875 L 34.117188 43.765625 L 34.503906 43.75 L 35.066406 43.617188 L 35.558594 43.433594 L 35.761719 43.273438 L 35.972656 43.019531 L 36.121094 42.765625 L 36.082031 42.523438 L 35.851562 42.417969 L 35.601562 42.378906 L 34.867188 42.429688 L 34.4375 42.40625 L 34.183594 42.246094 L 34.050781 42.019531 L 34.050781 40.632812 L 34.183594 40.351562 L 34.476562 40.203125 L 35.027344 40.164062 L 35.90625 40.21875 L 37.871094 40.175781 L 38.175781 40.21875 L 38.484375 40.230469 L 38.765625 40.378906 L 38.910156 40.632812 L 38.9375 41.179688 L 38.910156 41.457031 L 38.910156 41.75 L 38.859375 42.019531 L 38.832031 42.257812 L 38.722656 42.816406 L 38.429688 43.671875 L 38.257812 43.886719 L 38.125 44.136719 L 37.976562 44.390625 L 37.804688 44.59375 L 37.574219 44.765625 L 37.363281 45.003906 L 36.910156 45.351562 L 35.878906 45.871094 L 34.785156 46.140625 Z M 33.316406 46.140625 " fill-opacity="1" fill-rule="nonzero"/><path fill="#ffffff" d="M 48.050781 46.019531 L 47.746094 45.992188 L 47.410156 45.84375 L 47.117188 45.632812 L 47.023438 45.367188 L 46.902344 45.085938 L 46.621094 44.859375 L 46.300781 44.699219 L 45.980469 44.738281 L 45.714844 44.710938 L 44.285156 44.726562 L 44.019531 44.683594 L 43.40625 44.738281 L 43.136719 44.699219 L 42.832031 44.859375 L 42.550781 45.140625 L 42.285156 45.617188 L 42.003906 45.871094 L 41.667969 45.980469 L 40.855469 46.003906 L 40.5625 45.980469 L 40 46.003906 L 39.707031 45.925781 L 39.625 45.550781 L 39.71875 45.257812 L 40.011719 44.683594 L 40.082031 44.417969 L 40.242188 44.21875 L 40.46875 43.632812 L 40.722656 43.164062 L 40.828125 42.871094 L 40.976562 42.660156 L 41.054688 42.339844 L 42.550781 39.21875 L 42.628906 38.949219 L 42.789062 38.671875 L 42.871094 38.378906 L 43.03125 38.164062 L 43.617188 36.832031 L 43.738281 36.617188 L 43.84375 36.324219 L 43.980469 36.082031 L 44.246094 35.832031 L 44.714844 35.671875 L 45.195312 35.816406 L 45.433594 36.082031 L 45.714844 36.589844 L 45.808594 36.855469 L 45.96875 37.109375 L 46.046875 37.402344 L 47.011719 39.429688 L 47.117188 39.738281 L 47.425781 40.285156 L 47.503906 40.511719 L 47.636719 40.722656 L 47.730469 41.042969 L 47.878906 41.324219 L 48.023438 41.550781 L 48.574219 42.871094 L 48.867188 43.390625 L 49.066406 43.9375 L 49.46875 44.699219 L 49.679688 45.230469 L 49.789062 45.566406 L 49.746094 45.925781 L 49.332031 45.992188 L 48.878906 46.003906 L 48.597656 45.980469 Z M 44.742188 42.390625 L 45.3125 42.378906 L 45.542969 42.257812 L 45.59375 42.003906 L 44.914062 40.390625 L 44.714844 40.285156 L 44.554688 40.40625 L 43.859375 41.976562 L 43.871094 42.257812 L 44.113281 42.363281 L 44.445312 42.339844 Z M 44.742188 42.390625 " fill-opacity="1" fill-rule="nonzero"/><path fill="#ffffff" d="M 51.148438 45.472656 L 51.132812 40.003906 L 51.105469 39.722656 L 51.09375 39.402344 L 51.132812 38.871094 L 51.105469 38.578125 L 51.132812 38.296875 L 51.132812 36.257812 L 51.265625 35.9375 L 51.574219 35.816406 L 51.855469 35.777344 L 52.429688 35.832031 L 52.722656 35.777344 L 53.296875 35.777344 L 53.589844 35.949219 L 53.738281 36.269531 L 53.710938 36.550781 L 53.765625 37.378906 L 53.738281 37.964844 L 53.765625 38.3125 L 53.75 43.257812 L 53.859375 43.539062 L 54.152344 43.660156 L 54.457031 43.632812 L 55.03125 43.660156 L 55.285156 43.617188 L 55.582031 43.671875 L 56.179688 43.660156 L 56.488281 43.699219 L 56.769531 43.644531 L 57.074219 43.617188 L 57.34375 43.792969 L 57.460938 44.230469 L 57.476562 45.40625 L 57.316406 45.859375 L 57.050781 46.003906 L 54.152344 45.992188 L 53.832031 46.019531 L 53.550781 45.980469 L 53.003906 46.003906 L 52.429688 45.980469 L 51.816406 46.019531 L 51.519531 45.992188 L 51.253906 45.84375 Z M 51.148438 45.472656 " fill-opacity="1" fill-rule="nonzero"/><path fill="#ffffff" d="M 59 45.472656 L 58.988281 40.003906 L 58.960938 39.722656 L 58.949219 39.402344 L 58.988281 38.871094 L 58.960938 38.578125 L 58.988281 38.296875 L 58.988281 36.257812 L 59.121094 35.9375 L 59.429688 35.816406 L 59.710938 35.777344 L 60.285156 35.832031 L 60.578125 35.777344 L 61.152344 35.777344 L 61.445312 35.949219 L 61.59375 36.269531 L 61.566406 36.550781 L 61.617188 37.378906 L 61.59375 37.964844 L 61.617188 38.3125 L 61.605469 43.257812 L 61.710938 43.539062 L 62.007812 43.660156 L 62.3125 43.632812 L 62.886719 43.660156 L 63.140625 43.617188 L 63.433594 43.671875 L 64.035156 43.660156 L 64.34375 43.699219 L 64.625 43.644531 L 64.929688 43.617188 L 65.199219 43.792969 L 65.316406 44.230469 L 65.332031 45.40625 L 65.171875 45.859375 L 64.902344 46.003906 L 62.007812 45.992188 L 61.6875 46.019531 L 61.40625 45.980469 L 60.859375 46.003906 L 60.285156 45.980469 L 59.667969 46.019531 L 59.375 45.992188 L 59.109375 45.84375 Z M 59 45.472656 " fill-opacity="1" fill-rule="nonzero"/><path fill="#ffffff" d="M 70.820312 46.03125 L 70.542969 46.003906 L 70.246094 46.03125 L 69.914062 46.019531 L 69.632812 45.964844 L 69.03125 46.003906 L 68.765625 45.992188 L 68.445312 46.019531 L 67.402344 46.003906 L 66.964844 45.820312 L 66.84375 45.417969 L 66.816406 45.097656 L 66.855469 44.097656 L 66.816406 43.804688 L 66.84375 43.523438 L 66.855469 41.164062 L 66.816406 40.910156 L 66.828125 39.710938 L 66.855469 39.429688 L 66.816406 39.125 L 66.84375 37.695312 L 66.804688 37.378906 L 66.84375 36.777344 L 66.816406 36.230469 L 66.976562 35.921875 L 67.285156 35.804688 L 67.578125 35.816406 L 67.859375 35.789062 L 68.125 35.816406 L 68.40625 35.761719 L 68.699219 35.804688 L 69.886719 35.777344 L 70.179688 35.804688 L 70.433594 35.789062 L 70.730469 35.816406 L 71.050781 35.789062 L 72.222656 35.777344 L 72.492188 35.832031 L 72.796875 35.832031 L 73.09375 35.949219 L 73.226562 36.230469 L 73.253906 37.097656 L 73.238281 37.390625 L 73.253906 37.683594 L 73.105469 37.949219 L 72.796875 38.125 L 72.519531 38.136719 L 70.433594 38.109375 L 70.15625 38.164062 L 69.875 38.152344 L 69.554688 38.269531 L 69.421875 38.539062 L 69.421875 38.992188 L 69.539062 39.445312 L 69.847656 39.578125 L 70.703125 39.550781 L 71.304688 39.589844 L 71.609375 39.5625 L 72.476562 39.5625 L 72.8125 39.75 L 72.957031 40.164062 L 72.917969 41.472656 L 72.8125 41.765625 L 72.519531 41.882812 L 72.183594 41.871094 L 71.890625 41.898438 L 71.289062 41.882812 L 70.742188 41.910156 L 70.273438 41.871094 L 69.835938 41.882812 L 69.566406 42.042969 L 69.445312 42.351562 L 69.445312 43.273438 L 69.554688 43.523438 L 69.859375 43.671875 L 70.179688 43.644531 L 70.460938 43.683594 L 70.78125 43.671875 L 71.074219 43.699219 L 71.554688 43.644531 L 72.304688 43.660156 L 72.585938 43.699219 L 72.917969 43.671875 L 73.226562 43.804688 L 73.386719 44.097656 L 73.386719 45.566406 L 73.226562 45.871094 L 72.917969 46.003906 Z M 70.820312 46.03125 " fill-opacity="1" fill-rule="nonzero"/><path fill="#ffffff" d="M 20.714844 25.433594 L 20.367188 25.515625 L 19.964844 25.488281 L 19.578125 25.355469 L 19.40625 25.113281 L 19.164062 24.863281 L 18.792969 24.703125 L 18.402344 24.660156 L 18.070312 24.820312 L 17.777344 24.886719 L 16.269531 25.382812 L 15.988281 25.449219 L 15.359375 25.714844 L 15.050781 25.78125 L 14.785156 26.046875 L 14.597656 26.433594 L 14.492188 27.035156 L 14.292969 27.410156 L 13.972656 27.636719 L 13.117188 27.957031 L 12.808594 28.023438 L 12.207031 28.25 L 11.875 28.261719 L 11.675781 27.914062 L 11.660156 27.570312 L 11.753906 26.863281 L 11.726562 26.554688 L 11.847656 26.289062 L 11.875 25.582031 L 11.96875 24.996094 L 11.980469 24.660156 L 12.0625 24.367188 L 12.035156 24.007812 L 12.515625 20.195312 L 12.503906 19.886719 L 12.582031 19.539062 L 12.554688 19.207031 L 12.648438 18.925781 L 12.78125 17.300781 L 12.847656 17.046875 L 12.863281 16.699219 L 12.917969 16.394531 L 13.101562 16.035156 L 13.53125 15.699219 L 14.089844 15.6875 L 14.4375 15.886719 L 14.90625 16.3125 L 15.105469 16.554688 L 15.359375 16.78125 L 15.558594 17.058594 L 17.296875 18.847656 L 17.507812 19.140625 L 18.03125 19.605469 L 18.191406 19.820312 L 18.417969 20.007812 L 18.605469 20.300781 L 18.871094 20.539062 L 19.085938 20.726562 L 20.167969 21.929688 L 20.660156 22.382812 L 21.0625 22.886719 L 21.742188 23.542969 L 22.15625 24.035156 L 22.382812 24.355469 L 22.464844 24.726562 L 22.0625 24.953125 L 21.570312 25.128906 L 21.289062 25.195312 Z M 15.933594 22.769531 L 16.5625 22.566406 L 16.734375 22.355469 L 16.707031 22.046875 L 15.414062 20.59375 L 15.160156 20.566406 L 15.039062 20.753906 L 14.867188 22.648438 L 14.972656 22.941406 L 15.265625 22.96875 L 15.601562 22.820312 Z M 15.933594 22.769531 " fill-opacity="1" fill-rule="nonzero"/><path fill="#ffffff" d="M 23.140625 24.03125 L 22.699219 21.671875 L 22.632812 21.363281 L 22.394531 20.082031 L 22.367188 19.761719 L 22.273438 19.46875 L 22.21875 19.148438 L 22.152344 18.804688 L 22.058594 18.148438 L 21.980469 17.855469 L 21.296875 14.1875 L 21.390625 13.707031 L 21.644531 13.496094 L 22.578125 13.242188 L 22.941406 13.1875 L 23.261719 13.203125 L 23.566406 13.136719 L 23.847656 13.003906 L 24.167969 12.949219 L 24.503906 12.949219 L 25.464844 12.773438 L 25.917969 12.667969 L 26.4375 12.589844 L 27.386719 12.628906 L 28.027344 12.722656 L 28.640625 12.910156 L 29.722656 13.695312 L 29.949219 13.9375 L 30.136719 14.164062 L 30.578125 15.027344 L 30.683594 15.335938 L 30.910156 16.335938 L 30.871094 17.296875 L 30.457031 18.523438 L 30.269531 18.761719 L 30.097656 19.042969 L 30.015625 19.429688 L 30.097656 19.789062 L 30.351562 20.003906 L 30.992188 20.738281 L 31.191406 21.003906 L 31.886719 21.710938 L 32.074219 21.976562 L 32.3125 22.175781 L 32.542969 22.496094 L 32.515625 22.855469 L 32.234375 23.058594 L 31.726562 23.175781 L 31.40625 23.191406 L 30.152344 23.445312 L 29.5625 23.390625 L 29.191406 23.191406 L 28.949219 22.949219 L 28.761719 22.644531 L 28.535156 22.445312 L 28.132812 21.925781 L 27.707031 21.511719 L 27.519531 21.242188 L 27.28125 20.964844 L 26.90625 20.75 L 25.957031 20.789062 L 25.703125 21.03125 L 25.609375 21.378906 L 25.757812 22.390625 L 25.878906 22.722656 L 25.890625 23.015625 L 26 23.5625 L 25.929688 24.042969 L 25.464844 24.296875 L 24.96875 24.390625 L 24.742188 24.472656 L 24.207031 24.511719 L 23.914062 24.632812 L 23.394531 24.496094 Z M 25.492188 18.230469 L 25.824219 18.164062 L 26.613281 18.03125 L 26.90625 17.964844 L 27.347656 17.777344 L 27.601562 17.589844 L 27.746094 17.417969 L 27.894531 17.136719 L 27.972656 16.789062 L 27.933594 16.308594 L 27.789062 15.910156 L 27.652344 15.667969 L 27.160156 15.242188 L 26.851562 15.230469 L 26.414062 15.28125 L 25.957031 15.253906 L 25.332031 15.441406 L 24.996094 15.484375 L 24.703125 15.683594 L 24.621094 16.003906 L 24.703125 16.683594 L 24.796875 16.949219 L 24.96875 17.910156 L 25.128906 18.136719 Z M 25.492188 18.230469 " fill-opacity="1" fill-rule="nonzero"/><path fill="#ffffff" d="M 33.605469 22.222656 L 33.484375 19.824219 L 33.445312 19.503906 L 33.390625 18.195312 L 33.402344 17.890625 L 33.363281 17.570312 L 33.351562 17.25 L 33.324219 16.902344 L 33.324219 16.261719 L 33.285156 15.941406 L 33.097656 12.222656 L 33.257812 11.753906 L 33.550781 11.582031 L 34.5 11.460938 L 34.859375 11.449219 L 35.191406 11.5 L 35.515625 11.488281 L 35.792969 11.394531 L 36.113281 11.382812 L 36.460938 11.433594 L 37.4375 11.382812 L 37.890625 11.339844 L 38.410156 11.328125 L 39.332031 11.488281 L 39.960938 11.660156 L 40.546875 11.941406 L 41.523438 12.875 L 41.710938 13.128906 L 41.855469 13.394531 L 42.191406 14.316406 L 42.242188 14.636719 L 42.335938 15.636719 L 42.164062 16.597656 L 41.589844 17.742188 L 41.375 17.957031 L 41.160156 18.210938 L 41.027344 18.582031 L 41.054688 18.96875 L 41.269531 19.195312 L 41.816406 20.011719 L 41.976562 20.304688 L 42.578125 21.101562 L 42.710938 21.398438 L 42.925781 21.609375 L 43.113281 21.96875 L 43.042969 22.316406 L 42.738281 22.476562 L 42.203125 22.53125 L 41.894531 22.503906 L 40.613281 22.582031 L 40.054688 22.464844 L 39.691406 22.195312 L 39.492188 21.929688 L 39.347656 21.609375 L 39.160156 21.371094 L 38.8125 20.808594 L 38.464844 20.328125 L 38.316406 20.035156 L 38.105469 19.730469 L 37.785156 19.464844 L 36.835938 19.398438 L 36.542969 19.582031 L 36.410156 19.902344 L 36.421875 20.945312 L 36.488281 21.289062 L 36.460938 21.582031 L 36.488281 22.128906 L 36.355469 22.609375 L 35.859375 22.796875 L 35.367188 22.808594 L 35.113281 22.863281 L 34.59375 22.835938 L 34.273438 22.902344 L 33.777344 22.71875 Z M 36.714844 16.808594 L 37.0625 16.757812 L 37.851562 16.757812 L 38.144531 16.730469 L 38.597656 16.597656 L 38.890625 16.449219 L 39.050781 16.289062 L 39.238281 16.050781 L 39.359375 15.703125 L 39.386719 15.222656 L 39.292969 14.796875 L 39.1875 14.542969 L 38.757812 14.0625 L 38.453125 13.996094 L 38.023438 13.980469 L 37.582031 13.902344 L 36.929688 13.996094 L 36.609375 14.007812 L 36.273438 14.15625 L 36.140625 14.460938 L 36.140625 15.140625 L 36.195312 15.421875 L 36.234375 16.394531 L 36.367188 16.648438 Z M 36.714844 16.808594 " fill-opacity="1" fill-rule="nonzero"/><path fill="#ffffff" d="M 52.449219 23.269531 L 52.101562 23.214844 L 51.742188 23.027344 L 51.449219 22.75 L 51.382812 22.453125 L 51.261719 22.136719 L 50.980469 21.839844 L 50.648438 21.628906 L 50.273438 21.65625 L 49.992188 21.589844 L 48.402344 21.453125 L 48.125 21.386719 L 47.429688 21.386719 L 47.136719 21.308594 L 46.789062 21.453125 L 46.453125 21.734375 L 46.105469 22.242188 L 45.773438 22.507812 L 45.386719 22.589844 L 44.492188 22.535156 L 44.171875 22.480469 L 43.53125 22.441406 L 43.222656 22.320312 L 43.167969 21.90625 L 43.304688 21.589844 L 43.675781 20.972656 L 43.785156 20.707031 L 43.996094 20.496094 L 44.289062 19.867188 L 44.636719 19.375 L 44.773438 19.066406 L 44.945312 18.839844 L 45.078125 18.480469 L 47.054688 15.1875 L 47.175781 14.894531 L 47.375 14.613281 L 47.496094 14.304688 L 47.695312 14.078125 L 48.46875 12.652344 L 48.628906 12.441406 L 48.777344 12.121094 L 48.9375 11.867188 L 49.257812 11.625 L 49.804688 11.492188 L 50.3125 11.707031 L 50.554688 12.011719 L 50.820312 12.601562 L 50.902344 12.894531 L 51.046875 13.214844 L 51.101562 13.53125 L 51.96875 15.878906 L 52.050781 16.226562 L 52.328125 16.867188 L 52.410156 17.121094 L 52.53125 17.375 L 52.597656 17.746094 L 52.730469 18.066406 L 52.863281 18.320312 L 53.359375 19.839844 L 53.625 20.46875 L 53.796875 21.082031 L 54.160156 21.949219 L 54.332031 22.574219 L 54.398438 22.960938 L 54.332031 23.335938 L 53.878906 23.375 L 53.371094 23.347656 L 53.0625 23.296875 Z M 49.136719 18.921875 L 49.792969 18.972656 L 50.046875 18.855469 L 50.140625 18.574219 L 49.550781 16.734375 L 49.324219 16.585938 L 49.125 16.71875 L 48.214844 18.386719 L 48.191406 18.695312 L 48.457031 18.828125 L 48.832031 18.828125 Z M 49.136719 18.921875 " fill-opacity="1" fill-rule="nonzero"/><path fill="#ffffff" d="M 59.304688 24.667969 L 59.011719 24.523438 L 58.226562 24.347656 L 57.746094 24.320312 L 57.117188 24.121094 L 56.796875 24.082031 L 56.300781 23.988281 L 55.847656 23.84375 L 55.539062 23.800781 L 55.246094 23.75 L 54.953125 23.523438 L 54.886719 23.070312 L 55.246094 21.613281 L 55.460938 21.375 L 56.609375 21.269531 L 56.863281 20.839844 L 57.835938 15.960938 L 57.785156 15.507812 L 57.515625 15.242188 L 57.210938 15.171875 L 56.890625 14.921875 L 56.796875 14.585938 L 56.890625 14.28125 L 57.089844 13.105469 L 57.316406 12.761719 L 57.675781 12.667969 L 58.039062 12.746094 L 58.332031 12.839844 L 59.640625 13.121094 L 59.960938 13.121094 L 60.242188 13.214844 L 62.152344 13.625 L 62.417969 13.851562 L 62.539062 14.1875 L 62.191406 15.761719 L 61.976562 15.972656 L 61.617188 16.039062 L 61.296875 16.015625 L 60.910156 16.09375 L 60.734375 16.425781 L 60.320312 18.027344 L 60.148438 19.175781 L 60.054688 19.519531 L 59.695312 21.269531 L 59.585938 21.5625 L 59.707031 21.960938 L 60.054688 22.160156 L 60.375 22.226562 L 60.695312 22.496094 L 60.828125 22.828125 L 60.507812 24.402344 L 60.269531 24.65625 L 59.960938 24.761719 Z M 59.304688 24.667969 " fill-opacity="1" fill-rule="nonzero"/><path fill="#ffffff" d="M 69.964844 14.304688 L 69.667969 14.226562 L 69.496094 14.171875 L 69.136719 13.945312 L 69.335938 13.679688 L 69.484375 13.53125 L 69.589844 13.371094 L 69.761719 13.210938 L 69.882812 13.039062 L 70.015625 12.917969 L 71.113281 11.746094 L 71.390625 11.71875 L 72.328125 12.476562 L 72.488281 12.546875 L 73.140625 13.039062 L 73.261719 13.277344 L 73.046875 13.53125 L 72.902344 13.597656 L 71.527344 14.371094 L 71.378906 14.503906 L 71.179688 14.585938 L 70.816406 14.597656 L 70.417969 14.480469 L 70.257812 14.453125 Z M 69.710938 27.761719 L 69.390625 27.628906 L 69.09375 27.363281 L 68.867188 27.042969 L 68.855469 26.722656 L 68.828125 26.386719 L 68.613281 26.042969 L 68.335938 25.761719 L 67.972656 25.679688 L 67.707031 25.5625 L 66.199219 25.066406 L 65.945312 24.949219 L 65.261719 24.789062 L 64.984375 24.640625 L 64.609375 24.695312 L 64.234375 24.894531 L 63.78125 25.308594 L 63.394531 25.496094 L 62.992188 25.480469 L 62.140625 25.214844 L 61.832031 25.09375 L 61.230469 24.921875 L 60.949219 24.722656 L 60.992188 24.320312 L 61.191406 24.027344 L 61.710938 23.535156 L 61.871094 23.28125 L 62.125 23.121094 L 62.554688 22.574219 L 62.992188 22.171875 L 63.195312 21.894531 L 63.433594 21.734375 L 63.648438 21.425781 L 66.316406 18.652344 L 66.492188 18.398438 L 66.757812 18.160156 L 66.945312 17.90625 L 67.199219 17.734375 L 68.269531 16.507812 L 68.496094 16.332031 L 68.695312 16.066406 L 68.933594 15.867188 L 69.28125 15.691406 L 69.84375 15.679688 L 70.296875 16.011719 L 70.457031 16.371094 L 70.578125 16.984375 L 70.589844 17.304688 L 70.65625 17.640625 L 70.644531 17.972656 L 70.9375 20.453125 L 70.9375 20.828125 L 71.085938 21.507812 L 71.085938 21.773438 L 71.152344 22.039062 L 71.125 22.414062 L 71.179688 22.761719 L 71.257812 23.027344 L 71.378906 24.628906 L 71.5 25.292969 L 71.527344 25.933594 L 71.671875 26.882812 L 71.710938 27.507812 L 71.699219 27.90625 L 71.539062 28.253906 L 71.085938 28.1875 L 70.589844 28.042969 L 70.3125 27.921875 Z M 67.492188 22.773438 L 68.121094 22.972656 L 68.402344 22.921875 L 68.5625 22.667969 L 68.386719 20.734375 L 68.214844 20.546875 L 67.988281 20.625 L 66.71875 22.039062 L 66.640625 22.332031 L 66.851562 22.519531 L 67.214844 22.613281 Z M 67.492188 22.773438 " fill-opacity="1" fill-rule="nonzero"/><path fill="#ffffff" d="M 39.066406 31.785156 L 38.734375 31.746094 L 38.574219 31.773438 L 37.585938 31.761719 L 37.425781 31.773438 L 37.265625 31.695312 L 37.183594 31.441406 L 37.183594 31.027344 L 37.15625 30.878906 L 37.171875 26.359375 L 37.238281 26.1875 L 37.425781 26.105469 L 37.585938 26.117188 L 37.730469 26.09375 L 39.574219 26.105469 L 40.054688 26.1875 L 40.226562 26.226562 L 40.363281 26.292969 L 40.523438 26.320312 L 40.683594 26.414062 L 41.097656 26.679688 L 41.523438 27.160156 L 41.804688 27.585938 L 41.859375 27.746094 L 41.964844 28.054688 L 42.085938 28.691406 L 42.085938 28.933594 L 42.070312 29.1875 L 42.070312 29.359375 L 42.042969 29.519531 L 41.992188 29.652344 L 41.964844 29.828125 L 41.925781 29.972656 L 41.789062 30.292969 L 41.699219 30.425781 L 41.617188 30.585938 L 41.214844 31.09375 L 40.667969 31.46875 L 40.296875 31.625 L 39.960938 31.679688 L 39.722656 31.746094 L 39.5625 31.746094 L 39.308594 31.785156 Z M 39.039062 30.453125 L 39.28125 30.453125 L 39.628906 30.414062 L 39.867188 30.332031 L 40.148438 30.160156 L 40.441406 29.8125 L 40.574219 29.519531 L 40.667969 28.945312 L 40.535156 28.238281 L 40.457031 28.09375 L 40.375 27.960938 L 40.253906 27.8125 L 40.136719 27.691406 L 40.015625 27.613281 L 39.867188 27.53125 L 39.546875 27.4375 L 39.320312 27.425781 L 38.972656 27.425781 L 38.71875 27.492188 L 38.640625 27.667969 L 38.625 27.8125 L 38.640625 28.933594 L 38.597656 29.332031 L 38.640625 29.734375 L 38.625 30.066406 L 38.640625 30.199219 L 38.707031 30.347656 L 38.894531 30.441406 Z M 39.039062 30.453125 " fill-opacity="1" fill-rule="nonzero"/><path fill="#ffffff" d="M 45.707031 31.867188 L 45.226562 31.839844 L 44.535156 31.640625 L 44.386719 31.574219 L 43.839844 31.28125 L 43.734375 31.160156 L 43.503906 30.945312 L 43.117188 30.425781 L 43.039062 30.28125 L 42.984375 30.105469 L 42.863281 29.839844 L 42.785156 29.320312 L 42.8125 28.386719 L 42.878906 28.039062 L 43.023438 27.585938 L 43.105469 27.453125 L 43.386719 27.050781 L 43.597656 26.8125 L 43.851562 26.625 L 43.972656 26.53125 L 44.386719 26.265625 L 44.695312 26.1875 L 44.839844 26.132812 L 45 26.078125 L 45.160156 26.039062 L 45.734375 26.011719 L 46.109375 26.027344 L 47.179688 26.359375 L 47.589844 26.613281 L 47.9375 26.933594 L 48.046875 27.078125 L 48.140625 27.171875 L 48.246094 27.304688 L 48.300781 27.453125 L 48.445312 27.71875 L 48.488281 27.90625 L 48.554688 28.078125 L 48.621094 28.371094 L 48.660156 28.933594 L 48.621094 29.507812 L 48.578125 29.679688 L 48.539062 29.8125 L 48.511719 29.972656 L 48.460938 30.121094 L 48.140625 30.679688 L 48.03125 30.828125 L 47.472656 31.375 L 46.738281 31.695312 L 46.429688 31.785156 Z M 45.480469 30.441406 L 45.960938 30.425781 L 46.109375 30.386719 L 46.257812 30.375 L 46.390625 30.292969 L 46.535156 30.226562 L 46.789062 30.039062 L 46.882812 29.894531 L 46.949219 29.773438 L 47.042969 29.652344 L 47.109375 29.320312 L 47.164062 28.90625 L 47.136719 28.558594 L 47.070312 28.414062 L 47.03125 28.253906 L 46.964844 28.105469 L 46.777344 27.839844 L 46.523438 27.652344 L 46.097656 27.464844 L 45.707031 27.4375 L 45.335938 27.464844 L 45.160156 27.507812 L 45.015625 27.585938 L 44.789062 27.746094 L 44.652344 27.851562 L 44.5625 27.984375 L 44.480469 28.121094 L 44.386719 28.226562 L 44.332031 28.371094 L 44.28125 28.679688 L 44.265625 28.917969 L 44.308594 29.320312 L 44.46875 29.773438 L 44.574219 29.894531 L 44.652344 30 L 44.90625 30.226562 L 45.175781 30.375 L 45.320312 30.386719 Z M 45.480469 30.441406 " fill-opacity="1" fill-rule="nonzero"/><path fill="#ffffff" d="M 10.863281 45.390625 L 10.863281 43.230469 L 10.835938 42.953125 L 10.847656 41.765625 L 10.875 41.484375 L 10.847656 41.203125 L 10.847656 40.925781 L 10.835938 40.605469 L 10.875 40.019531 L 10.847656 39.722656 L 10.835938 36.390625 L 11.007812 35.976562 L 11.277344 35.832031 L 12.128906 35.761719 L 12.449219 35.777344 L 12.746094 35.832031 L 13.039062 35.832031 L 13.304688 35.761719 L 13.585938 35.761719 L 13.878906 35.816406 L 14.761719 35.816406 L 15.1875 35.789062 L 15.640625 35.804688 L 16.484375 35.992188 L 17.03125 36.175781 L 17.550781 36.457031 L 18.378906 37.335938 L 18.539062 37.5625 L 18.660156 37.816406 L 18.914062 38.644531 L 18.96875 38.9375 L 18.992188 39.859375 L 18.808594 40.699219 L 18.234375 41.726562 L 18.03125 41.898438 L 17.820312 42.113281 L 17.699219 42.429688 L 17.710938 42.792969 L 17.886719 43.003906 L 18.351562 43.765625 L 18.488281 44.019531 L 18.980469 44.765625 L 19.085938 45.046875 L 19.273438 45.246094 L 19.433594 45.566406 L 19.339844 45.886719 L 19.0625 46.019531 L 18.578125 46.03125 L 18.300781 46.003906 L 17.152344 46.019531 L 16.65625 45.886719 L 16.335938 45.632812 L 16.175781 45.378906 L 16.054688 45.085938 L 15.894531 44.871094 L 15.617188 44.339844 L 15.308594 43.910156 L 15.203125 43.644531 L 15.015625 43.351562 L 14.734375 43.113281 L 13.878906 42.992188 L 13.597656 43.152344 L 13.480469 43.445312 L 13.4375 44.378906 L 13.492188 44.683594 L 13.464844 44.9375 L 13.464844 45.433594 L 13.332031 45.859375 L 12.863281 46.003906 L 12.425781 46.003906 L 12.183594 46.03125 L 11.714844 45.992188 L 11.4375 46.03125 L 11.007812 45.84375 Z M 13.878906 40.65625 L 14.199219 40.632812 L 14.90625 40.65625 L 15.1875 40.644531 L 15.601562 40.539062 L 15.871094 40.417969 L 16.03125 40.296875 L 16.191406 40.070312 L 16.324219 39.777344 L 16.363281 39.351562 L 16.308594 38.964844 L 16.214844 38.738281 L 15.855469 38.285156 L 15.574219 38.203125 L 15.203125 38.175781 L 14.789062 38.097656 L 14.199219 38.152344 L 13.90625 38.136719 L 13.597656 38.257812 L 13.480469 38.523438 L 13.4375 39.136719 L 13.480469 39.390625 L 13.480469 40.257812 L 13.585938 40.496094 Z M 13.878906 40.65625 " fill-opacity="1" fill-rule="nonzero"/><path fill="#ffffff" d="M 24.964844 46.03125 L 24.683594 46.003906 L 24.390625 46.03125 L 24.054688 46.019531 L 23.777344 45.964844 L 23.175781 46.003906 L 22.90625 45.992188 L 22.585938 46.019531 L 21.546875 46.003906 L 21.105469 45.820312 L 20.984375 45.417969 L 20.957031 45.097656 L 21 44.097656 L 20.957031 43.804688 L 20.984375 43.523438 L 21 41.164062 L 20.957031 40.910156 L 20.972656 39.710938 L 21 39.429688 L 20.957031 39.125 L 20.984375 37.695312 L 20.945312 37.378906 L 20.984375 36.777344 L 20.957031 36.230469 L 21.117188 35.921875 L 21.425781 35.804688 L 21.71875 35.816406 L 22 35.789062 L 22.265625 35.816406 L 22.546875 35.761719 L 22.839844 35.804688 L 24.03125 35.777344 L 24.324219 35.804688 L 24.578125 35.789062 L 24.871094 35.816406 L 25.191406 35.789062 L 26.367188 35.777344 L 26.632812 35.832031 L 26.941406 35.832031 L 27.234375 35.949219 L 27.367188 36.230469 L 27.394531 37.097656 L 27.382812 37.390625 L 27.394531 37.683594 L 27.246094 37.949219 L 26.941406 38.125 L 26.660156 38.136719 L 24.578125 38.109375 L 24.296875 38.164062 L 24.015625 38.152344 L 23.695312 38.269531 L 23.5625 38.539062 L 23.5625 38.992188 L 23.683594 39.445312 L 23.988281 39.578125 L 24.84375 39.550781 L 25.445312 39.589844 L 25.75 39.5625 L 26.621094 39.5625 L 26.953125 39.75 L 27.101562 40.164062 L 27.058594 41.472656 L 26.953125 41.765625 L 26.660156 41.882812 L 26.324219 41.871094 L 26.03125 41.898438 L 25.429688 41.882812 L 24.882812 41.910156 L 24.417969 41.871094 L 23.976562 41.882812 L 23.707031 42.042969 L 23.589844 42.351562 L 23.589844 43.273438 L 23.695312 43.523438 L 24.003906 43.671875 L 24.324219 43.644531 L 24.601562 43.683594 L 24.925781 43.671875 L 25.21875 43.699219 L 25.699219 43.644531 L 26.445312 43.660156 L 26.726562 43.699219 L 27.058594 43.671875 L 27.367188 43.804688 L 27.527344 44.097656 L 27.527344 45.566406 L 27.367188 45.871094 L 27.058594 46.003906 Z M 24.964844 46.03125 " fill-opacity="1" fill-rule="nonzero"/><path fill="#ffffff" d="M 33.316406 46.140625 L 33.023438 46.046875 L 32.195312 45.898438 L 31.953125 45.832031 L 30.941406 45.246094 L 30.457031 44.910156 L 29.871094 44.296875 L 29.539062 43.804688 L 29.285156 43.3125 L 28.871094 41.9375 L 28.789062 40.925781 L 28.816406 40.457031 L 29.070312 39.003906 L 29.617188 37.910156 L 29.777344 37.695312 L 29.992188 37.484375 L 30.179688 37.242188 L 30.820312 36.683594 L 31.621094 36.175781 L 32.753906 35.777344 L 33.023438 35.761719 L 33.277344 35.671875 L 33.570312 35.65625 L 34.933594 35.710938 L 35.613281 35.910156 L 35.921875 35.964844 L 36.933594 36.496094 L 37.160156 36.683594 L 37.390625 36.898438 L 37.710938 37.164062 L 38.296875 38.003906 L 38.429688 38.269531 L 38.628906 38.871094 L 38.550781 39.109375 L 38.175781 39.269531 L 37.484375 39.230469 L 37.042969 39.285156 L 36.585938 39.269531 L 36.242188 39.164062 L 35.933594 38.925781 L 35.746094 38.671875 L 35.574219 38.484375 L 35.292969 38.296875 L 35.011719 38.175781 L 34.476562 38.03125 L 33.582031 38.058594 L 33.328125 38.175781 L 33.0625 38.203125 L 32.808594 38.335938 L 32.300781 38.699219 L 31.847656 39.390625 L 31.605469 39.910156 L 31.515625 40.484375 L 31.527344 41.324219 L 31.59375 41.792969 L 31.714844 42.21875 L 31.996094 42.738281 L 32.15625 42.953125 L 32.59375 43.351562 L 33.382812 43.671875 L 34.117188 43.765625 L 34.503906 43.75 L 35.066406 43.617188 L 35.558594 43.433594 L 35.761719 43.273438 L 35.972656 43.019531 L 36.121094 42.765625 L 36.082031 42.523438 L 35.851562 42.417969 L 35.601562 42.378906 L 34.867188 42.429688 L 34.4375 42.40625 L 34.183594 42.246094 L 34.050781 42.019531 L 34.050781 40.632812 L 34.183594 40.351562 L 34.476562 40.203125 L 35.027344 40.164062 L 35.90625 40.21875 L 37.871094 40.175781 L 38.175781 40.21875 L 38.484375 40.230469 L 38.765625 40.378906 L 38.910156 40.632812 L 38.9375 41.179688 L 38.910156 41.457031 L 38.910156 41.75 L 38.859375 42.019531 L 38.832031 42.257812 L 38.722656 42.816406 L 38.429688 43.671875 L 38.257812 43.886719 L 38.125 44.136719 L 37.976562 44.390625 L 37.804688 44.59375 L 37.574219 44.765625 L 37.363281 45.003906 L 36.910156 45.351562 L 35.878906 45.871094 L 34.785156 46.140625 Z M 33.316406 46.140625 " fill-opacity="1" fill-rule="nonzero"/><path fill="#ffffff" d="M 48.050781 46.019531 L 47.746094 45.992188 L 47.410156 45.84375 L 47.117188 45.632812 L 47.023438 45.367188 L 46.902344 45.085938 L 46.621094 44.859375 L 46.300781 44.699219 L 45.980469 44.738281 L 45.714844 44.710938 L 44.285156 44.726562 L 44.019531 44.683594 L 43.40625 44.738281 L 43.136719 44.699219 L 42.832031 44.859375 L 42.550781 45.140625 L 42.285156 45.617188 L 42.003906 45.871094 L 41.667969 45.980469 L 40.855469 46.003906 L 40.5625 45.980469 L 40 46.003906 L 39.707031 45.925781 L 39.625 45.550781 L 39.71875 45.257812 L 40.011719 44.683594 L 40.082031 44.417969 L 40.242188 44.21875 L 40.46875 43.632812 L 40.722656 43.164062 L 40.828125 42.871094 L 40.976562 42.660156 L 41.054688 42.339844 L 42.550781 39.21875 L 42.628906 38.949219 L 42.789062 38.671875 L 42.871094 38.378906 L 43.03125 38.164062 L 43.617188 36.832031 L 43.738281 36.617188 L 43.84375 36.324219 L 43.980469 36.082031 L 44.246094 35.832031 L 44.714844 35.671875 L 45.195312 35.816406 L 45.433594 36.082031 L 45.714844 36.589844 L 45.808594 36.855469 L 45.96875 37.109375 L 46.046875 37.402344 L 47.011719 39.429688 L 47.117188 39.738281 L 47.425781 40.285156 L 47.503906 40.511719 L 47.636719 40.722656 L 47.730469 41.042969 L 47.878906 41.324219 L 48.023438 41.550781 L 48.574219 42.871094 L 48.867188 43.390625 L 49.066406 43.9375 L 49.46875 44.699219 L 49.679688 45.230469 L 49.789062 45.566406 L 49.746094 45.925781 L 49.332031 45.992188 L 48.878906 46.003906 L 48.597656 45.980469 Z M 44.742188 42.390625 L 45.3125 42.378906 L 45.542969 42.257812 L 45.59375 42.003906 L 44.914062 40.390625 L 44.714844 40.285156 L 44.554688 40.40625 L 43.859375 41.976562 L 43.871094 42.257812 L 44.113281 42.363281 L 44.445312 42.339844 Z M 44.742188 42.390625 " fill-opacity="1" fill-rule="nonzero"/><path fill="#ffffff" d="M 51.148438 45.472656 L 51.132812 40.003906 L 51.105469 39.722656 L 51.09375 39.402344 L 51.132812 38.871094 L 51.105469 38.578125 L 51.132812 38.296875 L 51.132812 36.257812 L 51.265625 35.9375 L 51.574219 35.816406 L 51.855469 35.777344 L 52.429688 35.832031 L 52.722656 35.777344 L 53.296875 35.777344 L 53.589844 35.949219 L 53.738281 36.269531 L 53.710938 36.550781 L 53.765625 37.378906 L 53.738281 37.964844 L 53.765625 38.3125 L 53.75 43.257812 L 53.859375 43.539062 L 54.152344 43.660156 L 54.457031 43.632812 L 55.03125 43.660156 L 55.285156 43.617188 L 55.582031 43.671875 L 56.179688 43.660156 L 56.488281 43.699219 L 56.769531 43.644531 L 57.074219 43.617188 L 57.34375 43.792969 L 57.460938 44.230469 L 57.476562 45.40625 L 57.316406 45.859375 L 57.050781 46.003906 L 54.152344 45.992188 L 53.832031 46.019531 L 53.550781 45.980469 L 53.003906 46.003906 L 52.429688 45.980469 L 51.816406 46.019531 L 51.519531 45.992188 L 51.253906 45.84375 Z M 51.148438 45.472656 " fill-opacity="1" fill-rule="nonzero"/><path fill="#ffffff" d="M 59 45.472656 L 58.988281 40.003906 L 58.960938 39.722656 L 58.949219 39.402344 L 58.988281 38.871094 L 58.960938 38.578125 L 58.988281 38.296875 L 58.988281 36.257812 L 59.121094 35.9375 L 59.429688 35.816406 L 59.710938 35.777344 L 60.285156 35.832031 L 60.578125 35.777344 L 61.152344 35.777344 L 61.445312 35.949219 L 61.59375 36.269531 L 61.566406 36.550781 L 61.617188 37.378906 L 61.59375 37.964844 L 61.617188 38.3125 L 61.605469 43.257812 L 61.710938 43.539062 L 62.007812 43.660156 L 62.3125 43.632812 L 62.886719 43.660156 L 63.140625 43.617188 L 63.433594 43.671875 L 64.035156 43.660156 L 64.34375 43.699219 L 64.625 43.644531 L 64.929688 43.617188 L 65.199219 43.792969 L 65.316406 44.230469 L 65.332031 45.40625 L 65.171875 45.859375 L 64.902344 46.003906 L 62.007812 45.992188 L 61.6875 46.019531 L 61.40625 45.980469 L 60.859375 46.003906 L 60.285156 45.980469 L 59.667969 46.019531 L 59.375 45.992188 L 59.109375 45.84375 Z M 59 45.472656 " fill-opacity="1" fill-rule="nonzero"/><path fill="#ffffff" d="M 70.820312 46.03125 L 70.542969 46.003906 L 70.246094 46.03125 L 69.914062 46.019531 L 69.632812 45.964844 L 69.03125 46.003906 L 68.765625 45.992188 L 68.445312 46.019531 L 67.402344 46.003906 L 66.964844 45.820312 L 66.84375 45.417969 L 66.816406 45.097656 L 66.855469 44.097656 L 66.816406 43.804688 L 66.84375 43.523438 L 66.855469 41.164062 L 66.816406 40.910156 L 66.828125 39.710938 L 66.855469 39.429688 L 66.816406 39.125 L 66.84375 37.695312 L 66.804688 37.378906 L 66.84375 36.777344 L 66.816406 36.230469 L 66.976562 35.921875 L 67.285156 35.804688 L 67.578125 35.816406 L 67.859375 35.789062 L 68.125 35.816406 L 68.40625 35.761719 L 68.699219 35.804688 L 69.886719 35.777344 L 70.179688 35.804688 L 70.433594 35.789062 L 70.730469 35.816406 L 71.050781 35.789062 L 72.222656 35.777344 L 72.492188 35.832031 L 72.796875 35.832031 L 73.09375 35.949219 L 73.226562 36.230469 L 73.253906 37.097656 L 73.238281 37.390625 L 73.253906 37.683594 L 73.105469 37.949219 L 72.796875 38.125 L 72.519531 38.136719 L 70.433594 38.109375 L 70.15625 38.164062 L 69.875 38.152344 L 69.554688 38.269531 L 69.421875 38.539062 L 69.421875 38.992188 L 69.539062 39.445312 L 69.847656 39.578125 L 70.703125 39.550781 L 71.304688 39.589844 L 71.609375 39.5625 L 72.476562 39.5625 L 72.8125 39.75 L 72.957031 40.164062 L 72.917969 41.472656 L 72.8125 41.765625 L 72.519531 41.882812 L 72.183594 41.871094 L 71.890625 41.898438 L 71.289062 41.882812 L 70.742188 41.910156 L 70.273438 41.871094 L 69.835938 41.882812 L 69.566406 42.042969 L 69.445312 42.351562 L 69.445312 43.273438 L 69.554688 43.523438 L 69.859375 43.671875 L 70.179688 43.644531 L 70.460938 43.683594 L 70.78125 43.671875 L 71.074219 43.699219 L 71.554688 43.644531 L 72.304688 43.660156 L 72.585938 43.699219 L 72.917969 43.671875 L 73.226562 43.804688 L 73.386719 44.097656 L 73.386719 45.566406 L 73.226562 45.871094 L 72.917969 46.003906 Z M 70.820312 46.03125 " fill-opacity="1" fill-rule="nonzero"/><path fill="#ffffff" d="M 20.714844 25.433594 L 20.367188 25.515625 L 19.964844 25.488281 L 19.578125 25.355469 L 19.40625 25.113281 L 19.164062 24.863281 L 18.792969 24.703125 L 18.402344 24.660156 L 18.070312 24.820312 L 17.777344 24.886719 L 16.269531 25.382812 L 15.988281 25.449219 L 15.359375 25.714844 L 15.050781 25.78125 L 14.785156 26.046875 L 14.597656 26.433594 L 14.492188 27.035156 L 14.292969 27.410156 L 13.972656 27.636719 L 13.117188 27.957031 L 12.808594 28.023438 L 12.207031 28.25 L 11.875 28.261719 L 11.675781 27.914062 L 11.660156 27.570312 L 11.753906 26.863281 L 11.726562 26.554688 L 11.847656 26.289062 L 11.875 25.582031 L 11.96875 24.996094 L 11.980469 24.660156 L 12.0625 24.367188 L 12.035156 24.007812 L 12.515625 20.195312 L 12.503906 19.886719 L 12.582031 19.539062 L 12.554688 19.207031 L 12.648438 18.925781 L 12.78125 17.300781 L 12.847656 17.046875 L 12.863281 16.699219 L 12.917969 16.394531 L 13.101562 16.035156 L 13.53125 15.699219 L 14.089844 15.6875 L 14.4375 15.886719 L 14.90625 16.3125 L 15.105469 16.554688 L 15.359375 16.78125 L 15.558594 17.058594 L 17.296875 18.847656 L 17.507812 19.140625 L 18.03125 19.605469 L 18.191406 19.820312 L 18.417969 20.007812 L 18.605469 20.300781 L 18.871094 20.539062 L 19.085938 20.726562 L 20.167969 21.929688 L 20.660156 22.382812 L 21.0625 22.886719 L 21.742188 23.542969 L 22.15625 24.035156 L 22.382812 24.355469 L 22.464844 24.726562 L 22.0625 24.953125 L 21.570312 25.128906 L 21.289062 25.195312 Z M 15.933594 22.769531 L 16.5625 22.566406 L 16.734375 22.355469 L 16.707031 22.046875 L 15.414062 20.59375 L 15.160156 20.566406 L 15.039062 20.753906 L 14.867188 22.648438 L 14.972656 22.941406 L 15.265625 22.96875 L 15.601562 22.820312 Z M 15.933594 22.769531 " fill-opacity="1" fill-rule="nonzero"/><path fill="#ffffff" d="M 23.140625 24.03125 L 22.699219 21.671875 L 22.632812 21.363281 L 22.394531 20.082031 L 22.367188 19.761719 L 22.273438 19.46875 L 22.21875 19.148438 L 22.152344 18.804688 L 22.058594 18.148438 L 21.980469 17.855469 L 21.296875 14.1875 L 21.390625 13.707031 L 21.644531 13.496094 L 22.578125 13.242188 L 22.941406 13.1875 L 23.261719 13.203125 L 23.566406 13.136719 L 23.847656 13.003906 L 24.167969 12.949219 L 24.503906 12.949219 L 25.464844 12.773438 L 25.917969 12.667969 L 26.4375 12.589844 L 27.386719 12.628906 L 28.027344 12.722656 L 28.640625 12.910156 L 29.722656 13.695312 L 29.949219 13.9375 L 30.136719 14.164062 L 30.578125 15.027344 L 30.683594 15.335938 L 30.910156 16.335938 L 30.871094 17.296875 L 30.457031 18.523438 L 30.269531 18.761719 L 30.097656 19.042969 L 30.015625 19.429688 L 30.097656 19.789062 L 30.351562 20.003906 L 30.992188 20.738281 L 31.191406 21.003906 L 31.886719 21.710938 L 32.074219 21.976562 L 32.3125 22.175781 L 32.542969 22.496094 L 32.515625 22.855469 L 32.234375 23.058594 L 31.726562 23.175781 L 31.40625 23.191406 L 30.152344 23.445312 L 29.5625 23.390625 L 29.191406 23.191406 L 28.949219 22.949219 L 28.761719 22.644531 L 28.535156 22.445312 L 28.132812 21.925781 L 27.707031 21.511719 L 27.519531 21.242188 L 27.28125 20.964844 L 26.90625 20.75 L 25.957031 20.789062 L 25.703125 21.03125 L 25.609375 21.378906 L 25.757812 22.390625 L 25.878906 22.722656 L 25.890625 23.015625 L 26 23.5625 L 25.929688 24.042969 L 25.464844 24.296875 L 24.96875 24.390625 L 24.742188 24.472656 L 24.207031 24.511719 L 23.914062 24.632812 L 23.394531 24.496094 Z M 25.492188 18.230469 L 25.824219 18.164062 L 26.613281 18.03125 L 26.90625 17.964844 L 27.347656 17.777344 L 27.601562 17.589844 L 27.746094 17.417969 L 27.894531 17.136719 L 27.972656 16.789062 L 27.933594 16.308594 L 27.789062 15.910156 L 27.652344 15.667969 L 27.160156 15.242188 L 26.851562 15.230469 L 26.414062 15.28125 L 25.957031 15.253906 L 25.332031 15.441406 L 24.996094 15.484375 L 24.703125 15.683594 L 24.621094 16.003906 L 24.703125 16.683594 L 24.796875 16.949219 L 24.96875 17.910156 L 25.128906 18.136719 Z M 25.492188 18.230469 " fill-opacity="1" fill-rule="nonzero"/><path fill="#ffffff" d="M 33.605469 22.222656 L 33.484375 19.824219 L 33.445312 19.503906 L 33.390625 18.195312 L 33.402344 17.890625 L 33.363281 17.570312 L 33.351562 17.25 L 33.324219 16.902344 L 33.324219 16.261719 L 33.285156 15.941406 L 33.097656 12.222656 L 33.257812 11.753906 L 33.550781 11.582031 L 34.5 11.460938 L 34.859375 11.449219 L 35.191406 11.5 L 35.515625 11.488281 L 35.792969 11.394531 L 36.113281 11.382812 L 36.460938 11.433594 L 37.4375 11.382812 L 37.890625 11.339844 L 38.410156 11.328125 L 39.332031 11.488281 L 39.960938 11.660156 L 40.546875 11.941406 L 41.523438 12.875 L 41.710938 13.128906 L 41.855469 13.394531 L 42.191406 14.316406 L 42.242188 14.636719 L 42.335938 15.636719 L 42.164062 16.597656 L 41.589844 17.742188 L 41.375 17.957031 L 41.160156 18.210938 L 41.027344 18.582031 L 41.054688 18.96875 L 41.269531 19.195312 L 41.816406 20.011719 L 41.976562 20.304688 L 42.578125 21.101562 L 42.710938 21.398438 L 42.925781 21.609375 L 43.113281 21.96875 L 43.042969 22.316406 L 42.738281 22.476562 L 42.203125 22.53125 L 41.894531 22.503906 L 40.613281 22.582031 L 40.054688 22.464844 L 39.691406 22.195312 L 39.492188 21.929688 L 39.347656 21.609375 L 39.160156 21.371094 L 38.8125 20.808594 L 38.464844 20.328125 L 38.316406 20.035156 L 38.105469 19.730469 L 37.785156 19.464844 L 36.835938 19.398438 L 36.542969 19.582031 L 36.410156 19.902344 L 36.421875 20.945312 L 36.488281 21.289062 L 36.460938 21.582031 L 36.488281 22.128906 L 36.355469 22.609375 L 35.859375 22.796875 L 35.367188 22.808594 L 35.113281 22.863281 L 34.59375 22.835938 L 34.273438 22.902344 L 33.777344 22.71875 Z M 36.714844 16.808594 L 37.0625 16.757812 L 37.851562 16.757812 L 38.144531 16.730469 L 38.597656 16.597656 L 38.890625 16.449219 L 39.050781 16.289062 L 39.238281 16.050781 L 39.359375 15.703125 L 39.386719 15.222656 L 39.292969 14.796875 L 39.1875 14.542969 L 38.757812 14.0625 L 38.453125 13.996094 L 38.023438 13.980469 L 37.582031 13.902344 L 36.929688 13.996094 L 36.609375 14.007812 L 36.273438 14.15625 L 36.140625 14.460938 L 36.140625 15.140625 L 36.195312 15.421875 L 36.234375 16.394531 L 36.367188 16.648438 Z M 36.714844 16.808594 " fill-opacity="1" fill-rule="nonzero"/><path fill="#ffffff" d="M 52.449219 23.269531 L 52.101562 23.214844 L 51.742188 23.027344 L 51.449219 22.75 L 51.382812 22.453125 L 51.261719 22.136719 L 50.980469 21.839844 L 50.648438 21.628906 L 50.273438 21.65625 L 49.992188 21.589844 L 48.402344 21.453125 L 48.125 21.386719 L 47.429688 21.386719 L 47.136719 21.308594 L 46.789062 21.453125 L 46.453125 21.734375 L 46.105469 22.242188 L 45.773438 22.507812 L 45.386719 22.589844 L 44.492188 22.535156 L 44.171875 22.480469 L 43.53125 22.441406 L 43.222656 22.320312 L 43.167969 21.90625 L 43.304688 21.589844 L 43.675781 20.972656 L 43.785156 20.707031 L 43.996094 20.496094 L 44.289062 19.867188 L 44.636719 19.375 L 44.773438 19.066406 L 44.945312 18.839844 L 45.078125 18.480469 L 47.054688 15.1875 L 47.175781 14.894531 L 47.375 14.613281 L 47.496094 14.304688 L 47.695312 14.078125 L 48.46875 12.652344 L 48.628906 12.441406 L 48.777344 12.121094 L 48.9375 11.867188 L 49.257812 11.625 L 49.804688 11.492188 L 50.3125 11.707031 L 50.554688 12.011719 L 50.820312 12.601562 L 50.902344 12.894531 L 51.046875 13.214844 L 51.101562 13.53125 L 51.96875 15.878906 L 52.050781 16.226562 L 52.328125 16.867188 L 52.410156 17.121094 L 52.53125 17.375 L 52.597656 17.746094 L 52.730469 18.066406 L 52.863281 18.320312 L 53.359375 19.839844 L 53.625 20.46875 L 53.796875 21.082031 L 54.160156 21.949219 L 54.332031 22.574219 L 54.398438 22.960938 L 54.332031 23.335938 L 53.878906 23.375 L 53.371094 23.347656 L 53.0625 23.296875 Z M 49.136719 18.921875 L 49.792969 18.972656 L 50.046875 18.855469 L 50.140625 18.574219 L 49.550781 16.734375 L 49.324219 16.585938 L 49.125 16.71875 L 48.214844 18.386719 L 48.191406 18.695312 L 48.457031 18.828125 L 48.832031 18.828125 Z M 49.136719 18.921875 " fill-opacity="1" fill-rule="nonzero"/><path fill="#ffffff" d="M 59.304688 24.667969 L 59.011719 24.523438 L 58.226562 24.347656 L 57.746094 24.320312 L 57.117188 24.121094 L 56.796875 24.082031 L 56.300781 23.988281 L 55.847656 23.84375 L 55.539062 23.800781 L 55.246094 23.75 L 54.953125 23.523438 L 54.886719 23.070312 L 55.246094 21.613281 L 55.460938 21.375 L 56.609375 21.269531 L 56.863281 20.839844 L 57.835938 15.960938 L 57.785156 15.507812 L 57.515625 15.242188 L 57.210938 15.171875 L 56.890625 14.921875 L 56.796875 14.585938 L 56.890625 14.28125 L 57.089844 13.105469 L 57.316406 12.761719 L 57.675781 12.667969 L 58.039062 12.746094 L 58.332031 12.839844 L 59.640625 13.121094 L 59.960938 13.121094 L 60.242188 13.214844 L 62.152344 13.625 L 62.417969 13.851562 L 62.539062 14.1875 L 62.191406 15.761719 L 61.976562 15.972656 L 61.617188 16.039062 L 61.296875 16.015625 L 60.910156 16.09375 L 60.734375 16.425781 L 60.320312 18.027344 L 60.148438 19.175781 L 60.054688 19.519531 L 59.695312 21.269531 L 59.585938 21.5625 L 59.707031 21.960938 L 60.054688 22.160156 L 60.375 22.226562 L 60.695312 22.496094 L 60.828125 22.828125 L 60.507812 24.402344 L 60.269531 24.65625 L 59.960938 24.761719 Z M 59.304688 24.667969 " fill-opacity="1" fill-rule="nonzero"/><path fill="#ffffff" d="M 69.964844 14.304688 L 69.667969 14.226562 L 69.496094 14.171875 L 69.136719 13.945312 L 69.335938 13.679688 L 69.484375 13.53125 L 69.589844 13.371094 L 69.761719 13.210938 L 69.882812 13.039062 L 70.015625 12.917969 L 71.113281 11.746094 L 71.390625 11.71875 L 72.328125 12.476562 L 72.488281 12.546875 L 73.140625 13.039062 L 73.261719 13.277344 L 73.046875 13.53125 L 72.902344 13.597656 L 71.527344 14.371094 L 71.378906 14.503906 L 71.179688 14.585938 L 70.816406 14.597656 L 70.417969 14.480469 L 70.257812 14.453125 Z M 69.710938 27.761719 L 69.390625 27.628906 L 69.09375 27.363281 L 68.867188 27.042969 L 68.855469 26.722656 L 68.828125 26.386719 L 68.613281 26.042969 L 68.335938 25.761719 L 67.972656 25.679688 L 67.707031 25.5625 L 66.199219 25.066406 L 65.945312 24.949219 L 65.261719 24.789062 L 64.984375 24.640625 L 64.609375 24.695312 L 64.234375 24.894531 L 63.78125 25.308594 L 63.394531 25.496094 L 62.992188 25.480469 L 62.140625 25.214844 L 61.832031 25.09375 L 61.230469 24.921875 L 60.949219 24.722656 L 60.992188 24.320312 L 61.191406 24.027344 L 61.710938 23.535156 L 61.871094 23.28125 L 62.125 23.121094 L 62.554688 22.574219 L 62.992188 22.171875 L 63.195312 21.894531 L 63.433594 21.734375 L 63.648438 21.425781 L 66.316406 18.652344 L 66.492188 18.398438 L 66.757812 18.160156 L 66.945312 17.90625 L 67.199219 17.734375 L 68.269531 16.507812 L 68.496094 16.332031 L 68.695312 16.066406 L 68.933594 15.867188 L 69.28125 15.691406 L 69.84375 15.679688 L 70.296875 16.011719 L 70.457031 16.371094 L 70.578125 16.984375 L 70.589844 17.304688 L 70.65625 17.640625 L 70.644531 17.972656 L 70.9375 20.453125 L 70.9375 20.828125 L 71.085938 21.507812 L 71.085938 21.773438 L 71.152344 22.039062 L 71.125 22.414062 L 71.179688 22.761719 L 71.257812 23.027344 L 71.378906 24.628906 L 71.5 25.292969 L 71.527344 25.933594 L 71.671875 26.882812 L 71.710938 27.507812 L 71.699219 27.90625 L 71.539062 28.253906 L 71.085938 28.1875 L 70.589844 28.042969 L 70.3125 27.921875 Z M 67.492188 22.773438 L 68.121094 22.972656 L 68.402344 22.921875 L 68.5625 22.667969 L 68.386719 20.734375 L 68.214844 20.546875 L 67.988281 20.625 L 66.71875 22.039062 L 66.640625 22.332031 L 66.851562 22.519531 L 67.214844 22.613281 Z M 67.492188 22.773438 " fill-opacity="1" fill-rule="nonzero"/><path fill="#ffffff" d="M 39.066406 31.785156 L 38.734375 31.746094 L 38.574219 31.773438 L 37.585938 31.761719 L 37.425781 31.773438 L 37.265625 31.695312 L 37.183594 31.441406 L 37.183594 31.027344 L 37.15625 30.878906 L 37.171875 26.359375 L 37.238281 26.1875 L 37.425781 26.105469 L 37.585938 26.117188 L 37.730469 26.09375 L 39.574219 26.105469 L 40.054688 26.1875 L 40.226562 26.226562 L 40.363281 26.292969 L 40.523438 26.320312 L 40.683594 26.414062 L 41.097656 26.679688 L 41.523438 27.160156 L 41.804688 27.585938 L 41.859375 27.746094 L 41.964844 28.054688 L 42.085938 28.691406 L 42.085938 28.933594 L 42.070312 29.1875 L 42.070312 29.359375 L 42.042969 29.519531 L 41.992188 29.652344 L 41.964844 29.828125 L 41.925781 29.972656 L 41.789062 30.292969 L 41.699219 30.425781 L 41.617188 30.585938 L 41.214844 31.09375 L 40.667969 31.46875 L 40.296875 31.625 L 39.960938 31.679688 L 39.722656 31.746094 L 39.5625 31.746094 L 39.308594 31.785156 Z M 39.039062 30.453125 L 39.28125 30.453125 L 39.628906 30.414062 L 39.867188 30.332031 L 40.148438 30.160156 L 40.441406 29.8125 L 40.574219 29.519531 L 40.667969 28.945312 L 40.535156 28.238281 L 40.457031 28.09375 L 40.375 27.960938 L 40.253906 27.8125 L 40.136719 27.691406 L 40.015625 27.613281 L 39.867188 27.53125 L 39.546875 27.4375 L 39.320312 27.425781 L 38.972656 27.425781 L 38.71875 27.492188 L 38.640625 27.667969 L 38.625 27.8125 L 38.640625 28.933594 L 38.597656 29.332031 L 38.640625 29.734375 L 38.625 30.066406 L 38.640625 30.199219 L 38.707031 30.347656 L 38.894531 30.441406 Z M 39.039062 30.453125 " fill-opacity="1" fill-rule="nonzero"/><path fill="#ffffff" d="M 45.707031 31.867188 L 45.226562 31.839844 L 44.535156 31.640625 L 44.386719 31.574219 L 43.839844 31.28125 L 43.734375 31.160156 L 43.503906 30.945312 L 43.117188 30.425781 L 43.039062 30.28125 L 42.984375 30.105469 L 42.863281 29.839844 L 42.785156 29.320312 L 42.8125 28.386719 L 42.878906 28.039062 L 43.023438 27.585938 L 43.105469 27.453125 L 43.386719 27.050781 L 43.597656 26.8125 L 43.851562 26.625 L 43.972656 26.53125 L 44.386719 26.265625 L 44.695312 26.1875 L 44.839844 26.132812 L 45 26.078125 L 45.160156 26.039062 L 45.734375 26.011719 L 46.109375 26.027344 L 47.179688 26.359375 L 47.589844 26.613281 L 47.9375 26.933594 L 48.046875 27.078125 L 48.140625 27.171875 L 48.246094 27.304688 L 48.300781 27.453125 L 48.445312 27.71875 L 48.488281 27.90625 L 48.554688 28.078125 L 48.621094 28.371094 L 48.660156 28.933594 L 48.621094 29.507812 L 48.578125 29.679688 L 48.539062 29.8125 L 48.511719 29.972656 L 48.460938 30.121094 L 48.140625 30.679688 L 48.03125 30.828125 L 47.472656 31.375 L 46.738281 31.695312 L 46.429688 31.785156 Z M 45.480469 30.441406 L 45.960938 30.425781 L 46.109375 30.386719 L 46.257812 30.375 L 46.390625 30.292969 L 46.535156 30.226562 L 46.789062 30.039062 L 46.882812 29.894531 L 46.949219 29.773438 L 47.042969 29.652344 L 47.109375 29.320312 L 47.164062 28.90625 L 47.136719 28.558594 L 47.070312 28.414062 L 47.03125 28.253906 L 46.964844 28.105469 L 46.777344 27.839844 L 46.523438 27.652344 L 46.097656 27.464844 L 45.707031 27.4375 L 45.335938 27.464844 L 45.160156 27.507812 L 45.015625 27.585938 L 44.789062 27.746094 L 44.652344 27.851562 L 44.5625 27.984375 L 44.480469 28.121094 L 44.386719 28.226562 L 44.332031 28.371094 L 44.28125 28.679688 L 44.265625 28.917969 L 44.308594 29.320312 L 44.46875 29.773438 L 44.574219 29.894531 L 44.652344 30 L 44.90625 30.226562 L 45.175781 30.375 L 45.320312 30.386719 Z M 45.480469 30.441406 " fill-opacity="1" fill-rule="nonzero"/></svg>