<svg xmlns="http://www.w3.org/2000/svg" xmlns:xlink="http://www.w3.org/1999/xlink" width="138" zoomAndPan="magnify" viewBox="0 0 103.5 70.499998" height="94" preserveAspectRatio="xMidYMid meet" version="1.0"><defs><g/></defs><g fill="#ffffff" fill-opacity="1"><g transform="translate(41.990267, 37.661806)"><g><path d="M 3.0625 0.03125 L 2.65625 -0.015625 L 2.453125 0.015625 L 1.234375 0 L 1.046875 0.015625 L 0.84375 -0.078125 L 0.75 -0.390625 L 0.75 -0.890625 L 0.71875 -1.078125 L 0.734375 -6.625 L 0.828125 -6.84375 L 1.046875 -6.921875 L 1.234375 -6.921875 L 1.421875 -6.9375 L 3.6875 -6.921875 L 4.265625 -6.84375 L 4.46875 -6.78125 L 4.640625 -6.703125 L 4.84375 -6.671875 L 5.03125 -6.5625 L 5.53125 -6.21875 L 6.0625 -5.640625 L 6.40625 -5.109375 L 6.484375 -4.921875 L 6.609375 -4.546875 L 6.75 -3.765625 L 6.75 -3.46875 L 6.734375 -3.15625 L 6.734375 -2.953125 L 6.703125 -2.75 L 6.640625 -2.578125 L 6.59375 -2.375 L 6.546875 -2.1875 L 6.390625 -1.796875 L 6.265625 -1.640625 L 6.171875 -1.4375 L 5.6875 -0.8125 L 5.015625 -0.359375 L 4.546875 -0.171875 L 4.140625 -0.09375 L 3.859375 -0.015625 L 3.65625 -0.015625 L 3.359375 0.03125 Z M 3.03125 -1.59375 L 3.328125 -1.609375 L 3.75 -1.65625 L 4.03125 -1.75 L 4.375 -1.96875 L 4.75 -2.375 L 4.90625 -2.75 L 5.015625 -3.4375 L 4.859375 -4.3125 L 4.765625 -4.5 L 4.65625 -4.65625 L 4.515625 -4.84375 L 4.359375 -4.984375 L 4.21875 -5.09375 L 4.03125 -5.171875 L 3.65625 -5.28125 L 3.359375 -5.3125 L 2.953125 -5.3125 L 2.625 -5.234375 L 2.53125 -5.015625 L 2.515625 -4.84375 L 2.53125 -3.46875 L 2.484375 -2.96875 L 2.53125 -2.484375 L 2.515625 -2.078125 L 2.53125 -1.921875 L 2.609375 -1.71875 L 2.84375 -1.625 Z M 3.03125 -1.59375 "/></g></g></g><g fill="#ffffff" fill-opacity="1"><g transform="translate(49.027534, 37.661806)"><g><path d="M 5.859375 0.015625 L 5.640625 0 L 5.421875 -0.09375 L 5.21875 -0.25 L 5.15625 -0.421875 L 5.0625 -0.609375 L 4.875 -0.78125 L 4.65625 -0.890625 L 4.4375 -0.859375 L 4.265625 -0.875 L 3.296875 -0.859375 L 3.109375 -0.890625 L 2.703125 -0.859375 L 2.515625 -0.890625 L 2.296875 -0.78125 L 2.109375 -0.578125 L 1.9375 -0.265625 L 1.75 -0.078125 L 1.515625 -0.015625 L 0.96875 0.015625 L 0.765625 -0.015625 L 0.375 0.015625 L 0.171875 -0.046875 L 0.125 -0.296875 L 0.1875 -0.5 L 0.390625 -0.890625 L 0.4375 -1.078125 L 0.546875 -1.203125 L 0.6875 -1.609375 L 0.875 -1.921875 L 0.9375 -2.125 L 1.046875 -2.265625 L 1.09375 -2.484375 L 2.109375 -4.609375 L 2.171875 -4.796875 L 2.28125 -4.984375 L 2.328125 -5.171875 L 2.4375 -5.328125 L 2.84375 -6.234375 L 2.921875 -6.375 L 3 -6.578125 L 3.078125 -6.75 L 3.265625 -6.921875 L 3.578125 -7.03125 L 3.90625 -6.921875 L 4.078125 -6.75 L 4.265625 -6.40625 L 4.328125 -6.21875 L 4.4375 -6.046875 L 4.5 -5.84375 L 5.15625 -4.46875 L 5.21875 -4.25 L 5.421875 -3.890625 L 5.484375 -3.734375 L 5.578125 -3.578125 L 5.640625 -3.359375 L 5.734375 -3.171875 L 5.828125 -3.03125 L 6.21875 -2.125 L 6.40625 -1.765625 L 6.546875 -1.40625 L 6.8125 -0.890625 L 6.96875 -0.515625 L 7.03125 -0.28125 L 7 -0.046875 L 6.734375 0 L 6.421875 0.015625 L 6.234375 -0.015625 Z M 3.609375 -2.453125 L 4 -2.453125 L 4.140625 -2.546875 L 4.1875 -2.71875 L 3.71875 -3.8125 L 3.578125 -3.890625 L 3.46875 -3.796875 L 3 -2.734375 L 3.015625 -2.546875 L 3.171875 -2.46875 L 3.40625 -2.484375 Z M 3.609375 -2.453125 "/></g></g></g><g fill="#ffffff" fill-opacity="1"><g transform="translate(14.785058, 57.153573)"><g><path d="M 6.15625 0.234375 L 5.578125 0.203125 L 5.21875 0.203125 L 4.515625 0.046875 L 3.84375 -0.25 L 3.578125 -0.40625 L 3.21875 -0.578125 L 2.640625 -0.953125 L 2.375 -1.1875 L 2.15625 -1.4375 L 1.75 -2.078125 L 1.46875 -2.6875 L 1.28125 -3.421875 L 1.1875 -4.84375 L 1.234375 -7.71875 L 1.203125 -8.0625 L 1.25 -8.421875 L 1.203125 -10.921875 L 1.234375 -11.203125 L 1.234375 -11.640625 L 1.203125 -12 L 1.4375 -12.328125 L 1.8125 -12.484375 L 2.1875 -12.53125 L 2.953125 -12.453125 L 3.3125 -12.515625 L 3.640625 -12.515625 L 4.015625 -12.359375 L 4.234375 -11.953125 L 4.265625 -11.4375 L 4.234375 -10.875 L 4.265625 -10.59375 L 4.21875 -4.84375 L 4.328125 -3.8125 L 4.4375 -3.46875 L 4.640625 -3.1875 L 4.9375 -2.96875 L 5.234375 -2.78125 L 5.65625 -2.703125 L 6.71875 -2.703125 L 7.34375 -2.9375 L 7.65625 -3.140625 L 7.84375 -3.5 L 7.953125 -3.765625 L 8.078125 -4.875 L 8.046875 -11.921875 L 8.234375 -12.3125 L 8.609375 -12.5 L 9.359375 -12.4375 L 10.5 -12.484375 L 10.890625 -12.359375 L 11.125 -11.96875 L 11.0625 -11.625 L 11.0625 -10.140625 L 11.09375 -9.84375 L 11.0625 -9.453125 L 11.09375 -9.109375 L 11.09375 -4.296875 L 11.015625 -3.4375 L 10.84375 -2.6875 L 10.671875 -2.375 L 10.5625 -2.015625 L 10.15625 -1.390625 L 9.65625 -0.890625 L 9.0625 -0.5 L 8.421875 -0.15625 L 7.03125 0.203125 L 6.6875 0.171875 Z M 6.15625 0.234375 "/></g></g></g><g fill="#ffffff" fill-opacity="1"><g transform="translate(27.117557, 57.153573)"><g><path d="M 10.546875 -0.296875 L 10.28125 -0.53125 L 9.8125 -1.046875 L 7.046875 -3.8125 L 6.734375 -4 L 6.5 -4.265625 L 5.234375 -5.484375 L 5 -5.796875 L 4.765625 -5.875 L 4.640625 -5.578125 L 4.609375 -5.21875 L 4.59375 -0.703125 L 4.421875 -0.140625 L 4.0625 0.03125 L 3.6875 0.046875 L 2.984375 0 L 2.59375 0.03125 L 1.859375 0 L 1.484375 -0.125 L 1.328125 -0.46875 L 1.28125 -1.96875 L 1.328125 -2.3125 L 1.28125 -5.234375 L 1.34375 -5.546875 L 1.3125 -6.28125 L 1.328125 -6.578125 L 1.328125 -12 L 1.484375 -12.328125 L 1.890625 -12.515625 L 2.4375 -12.390625 L 2.84375 -12.171875 L 3.109375 -11.953125 L 6.625 -8.40625 L 7.125 -8.015625 L 8.40625 -6.734375 L 8.671875 -6.609375 L 8.78125 -6.921875 L 8.8125 -10.125 L 8.78125 -10.515625 L 8.828125 -11.265625 L 8.78125 -11.546875 L 8.796875 -11.921875 L 8.984375 -12.296875 L 9.328125 -12.5 L 11.546875 -12.515625 L 11.90625 -12.3125 L 12.078125 -11.953125 L 12.140625 -9.46875 L 12.078125 -9.046875 L 12.078125 -7.28125 L 12.140625 -6.96875 L 12.09375 -0.453125 L 11.921875 -0.09375 L 11.53125 0.03125 L 11.03125 -0.015625 Z M 10.546875 -0.296875 "/></g></g></g><g fill="#ffffff" fill-opacity="1"><g transform="translate(40.593939, 57.153573)"><g><path d="M 10.546875 0.03125 L 10.171875 0 L 9.765625 -0.171875 L 9.40625 -0.453125 L 9.296875 -0.765625 L 9.140625 -1.109375 L 8.796875 -1.390625 L 8.40625 -1.59375 L 8.015625 -1.53125 L 7.6875 -1.578125 L 5.9375 -1.5625 L 5.609375 -1.609375 L 4.859375 -1.53125 L 4.515625 -1.59375 L 4.140625 -1.390625 L 3.8125 -1.046875 L 3.484375 -0.46875 L 3.140625 -0.140625 L 2.734375 -0.015625 L 1.734375 0.015625 L 1.375 -0.015625 L 0.671875 0.015625 L 0.328125 -0.09375 L 0.234375 -0.53125 L 0.34375 -0.890625 L 0.703125 -1.609375 L 0.78125 -1.9375 L 0.984375 -2.1875 L 1.25 -2.890625 L 1.578125 -3.46875 L 1.703125 -3.828125 L 1.875 -4.09375 L 1.984375 -4.484375 L 3.8125 -8.3125 L 3.921875 -8.640625 L 4.109375 -8.96875 L 4.203125 -9.328125 L 4.390625 -9.59375 L 5.109375 -11.25 L 5.265625 -11.5 L 5.390625 -11.84375 L 5.5625 -12.15625 L 5.875 -12.453125 L 6.453125 -12.65625 L 7.046875 -12.484375 L 7.34375 -12.15625 L 7.6875 -11.53125 L 7.796875 -11.203125 L 7.984375 -10.890625 L 8.09375 -10.53125 L 9.28125 -8.046875 L 9.40625 -7.671875 L 9.78125 -7 L 9.890625 -6.71875 L 10.046875 -6.453125 L 10.15625 -6.0625 L 10.328125 -5.71875 L 10.515625 -5.453125 L 11.1875 -3.828125 L 11.546875 -3.1875 L 11.796875 -2.515625 L 12.28125 -1.59375 L 12.546875 -0.921875 L 12.671875 -0.515625 L 12.625 -0.09375 L 12.125 0 L 11.5625 0.015625 L 11.21875 -0.015625 Z M 6.484375 -4.421875 L 7.203125 -4.4375 L 7.46875 -4.578125 L 7.546875 -4.890625 L 6.703125 -6.859375 L 6.453125 -7 L 6.25 -6.84375 L 5.421875 -4.921875 L 5.4375 -4.578125 L 5.71875 -4.453125 L 6.125 -4.484375 Z M 6.484375 -4.421875 "/></g></g></g><g fill="#ffffff" fill-opacity="1"><g transform="translate(53.569873, 57.153573)"><g><path d="M 6.21875 0.046875 L 5.859375 0.015625 L 5.5 0.046875 L 5.09375 0.03125 L 4.75 -0.03125 L 4.015625 0.015625 L 3.703125 0 L 3.3125 0.03125 L 2.015625 0.015625 L 1.484375 -0.21875 L 1.34375 -0.703125 L 1.3125 -1.09375 L 1.359375 -2.328125 L 1.3125 -2.6875 L 1.34375 -3.015625 L 1.359375 -5.921875 L 1.3125 -6.234375 L 1.328125 -7.703125 L 1.359375 -8.046875 L 1.3125 -8.421875 L 1.34375 -10.171875 L 1.28125 -10.5625 L 1.34375 -11.296875 L 1.3125 -11.96875 L 1.5 -12.359375 L 1.875 -12.5 L 2.234375 -12.484375 L 2.59375 -12.515625 L 2.90625 -12.484375 L 3.25 -12.546875 L 3.609375 -12.5 L 5.078125 -12.53125 L 5.4375 -12.5 L 5.734375 -12.515625 L 6.09375 -12.484375 L 6.484375 -12.515625 L 7.9375 -12.53125 L 8.265625 -12.453125 L 8.640625 -12.453125 L 8.984375 -12.3125 L 9.15625 -11.96875 L 9.1875 -10.90625 L 9.171875 -10.546875 L 9.1875 -10.1875 L 9.015625 -9.859375 L 8.640625 -9.65625 L 8.296875 -9.640625 L 5.734375 -9.671875 L 5.390625 -9.59375 L 5.0625 -9.609375 L 4.671875 -9.46875 L 4.5 -9.140625 L 4.5 -8.578125 L 4.640625 -8.03125 L 5.015625 -7.859375 L 6.0625 -7.90625 L 6.8125 -7.84375 L 7.1875 -7.890625 L 8.234375 -7.890625 L 8.65625 -7.65625 L 8.828125 -7.15625 L 8.78125 -5.546875 L 8.65625 -5.1875 L 8.296875 -5.046875 L 7.890625 -5.0625 L 7.53125 -5.015625 L 6.796875 -5.046875 L 6.109375 -5 L 5.546875 -5.0625 L 5 -5.046875 L 4.6875 -4.84375 L 4.515625 -4.46875 L 4.515625 -3.34375 L 4.671875 -3.015625 L 5.046875 -2.84375 L 5.4375 -2.875 L 5.78125 -2.828125 L 6.171875 -2.84375 L 6.53125 -2.8125 L 7.109375 -2.875 L 8.03125 -2.859375 L 8.359375 -2.8125 L 8.78125 -2.84375 L 9.15625 -2.6875 L 9.34375 -2.328125 L 9.34375 -0.515625 L 9.15625 -0.140625 L 8.78125 0.015625 Z M 6.21875 0.046875 "/></g></g></g><g fill="#ffffff" fill-opacity="1"><g transform="translate(63.811203, 57.153573)"><g><path d="M 1.34375 -0.734375 L 1.34375 -3.375 L 1.3125 -3.734375 L 1.328125 -5.1875 L 1.359375 -5.515625 L 1.328125 -5.859375 L 1.328125 -6.21875 L 1.3125 -6.609375 L 1.359375 -7.328125 L 1.328125 -7.6875 L 1.3125 -11.78125 L 1.515625 -12.28125 L 1.84375 -12.453125 L 2.890625 -12.546875 L 3.28125 -12.53125 L 3.640625 -12.453125 L 4 -12.453125 L 4.328125 -12.546875 L 4.6875 -12.546875 L 5.046875 -12.484375 L 6.109375 -12.484375 L 6.625 -12.515625 L 7.203125 -12.5 L 8.21875 -12.265625 L 8.90625 -12.03125 L 9.53125 -11.6875 L 10.546875 -10.625 L 10.75 -10.328125 L 10.890625 -10.03125 L 11.203125 -9.015625 L 11.265625 -8.65625 L 11.296875 -7.53125 L 11.0625 -6.484375 L 10.375 -5.234375 L 10.125 -5.015625 L 9.859375 -4.75 L 9.703125 -4.359375 L 9.71875 -3.9375 L 9.9375 -3.671875 L 10.515625 -2.734375 L 10.671875 -2.40625 L 11.28125 -1.5 L 11.421875 -1.15625 L 11.640625 -0.90625 L 11.828125 -0.515625 L 11.71875 -0.125 L 11.390625 0.03125 L 10.796875 0.046875 L 10.453125 0.015625 L 9.046875 0.03125 L 8.4375 -0.125 L 8.046875 -0.453125 L 7.84375 -0.75 L 7.703125 -1.109375 L 7.5 -1.375 L 7.171875 -2.015625 L 6.796875 -2.5625 L 6.65625 -2.875 L 6.4375 -3.234375 L 6.078125 -3.546875 L 5.046875 -3.6875 L 4.703125 -3.484375 L 4.546875 -3.125 L 4.5 -1.984375 L 4.5625 -1.609375 L 4.515625 -1.28125 L 4.515625 -0.671875 L 4.359375 -0.15625 L 3.796875 0.015625 L 3.25 0.015625 L 2.96875 0.046875 L 2.390625 0 L 2.03125 0.046875 L 1.515625 -0.171875 Z M 5.046875 -6.546875 L 5.4375 -6.578125 L 6.296875 -6.546875 L 6.625 -6.5625 L 7.15625 -6.6875 L 7.46875 -6.828125 L 7.671875 -6.984375 L 7.859375 -7.25 L 8.03125 -7.609375 L 8.078125 -8.15625 L 8.015625 -8.609375 L 7.90625 -8.90625 L 7.453125 -9.453125 L 7.109375 -9.546875 L 6.65625 -9.578125 L 6.15625 -9.6875 L 5.4375 -9.609375 L 5.078125 -9.640625 L 4.703125 -9.484375 L 4.546875 -9.15625 L 4.5 -8.40625 L 4.546875 -8.09375 L 4.546875 -7.03125 L 4.6875 -6.734375 Z M 5.046875 -6.546875 "/></g></g></g><g fill="#ffffff" fill-opacity="1"><g transform="translate(76.215189, 57.153573)"><g><path d="M 2.390625 0.046875 L 2.078125 0.03125 L 1.515625 -0.140625 L 1.328125 -0.484375 L 1.34375 -3.796875 L 1.3125 -4.125 L 1.328125 -8.765625 L 1.28125 -9.09375 L 1.359375 -9.8125 L 1.34375 -11.96875 L 1.5 -12.265625 L 1.875 -12.453125 L 2.25 -12.53125 L 2.578125 -12.484375 L 2.96875 -12.453125 L 4.078125 -12.53125 L 4.4375 -12.484375 L 5.515625 -12.453125 L 5.921875 -12.515625 L 6.484375 -12.53125 L 7.03125 -12.515625 L 7.375 -12.390625 L 7.734375 -12.390625 L 8.046875 -12.265625 L 8.765625 -12.046875 L 9.34375 -11.65625 L 10.15625 -10.953125 L 10.578125 -10.375 L 10.921875 -9.765625 L 11.140625 -9.09375 L 11.1875 -8.703125 L 11.265625 -8.40625 L 11.21875 -6.9375 L 11.125 -6.65625 L 11.0625 -6.25 L 10.765625 -5.5625 L 10.390625 -4.984375 L 10.15625 -4.71875 L 9.921875 -4.484375 L 9.671875 -4.203125 L 9.40625 -3.984375 L 7.703125 -3.3125 L 5.859375 -3.15625 L 5.484375 -3.234375 L 5.09375 -3.203125 L 4.6875 -3 L 4.515625 -2.6875 L 4.546875 -2.265625 L 4.5 -1.9375 L 4.546875 -1.265625 L 4.515625 -0.875 L 4.546875 -0.515625 L 4.375 -0.140625 L 4 0 L 3.59375 0.03125 L 3.265625 0.015625 Z M 5.078125 -6.0625 L 5.5 -6.09375 L 6.421875 -6.078125 L 6.96875 -6.15625 L 7.25 -6.234375 L 7.546875 -6.453125 L 7.78125 -6.734375 L 7.9375 -7.03125 L 8.0625 -7.34375 L 8.09375 -7.828125 L 8.0625 -8.328125 L 8.015625 -8.65625 L 7.828125 -9.015625 L 7.59375 -9.234375 L 7.3125 -9.4375 L 6.953125 -9.59375 L 5.09375 -9.65625 L 4.71875 -9.46875 L 4.546875 -9.140625 L 4.546875 -8.40625 L 4.5 -8.03125 L 4.5625 -6.578125 L 4.71875 -6.28125 Z M 5.078125 -6.0625 "/></g></g></g><g fill="#ffffff" fill-opacity="1"><g transform="translate(14.342737, 34.403351)"><g><path d="M 11.125 -3.671875 L 10.71875 -3.578125 L 10.21875 -3.625 L 9.75 -3.78125 L 9.53125 -4.09375 L 9.234375 -4.390625 L 8.78125 -4.5625 L 8.28125 -4.625 L 7.890625 -4.421875 L 7.546875 -4.359375 L 5.703125 -3.734375 L 5.34375 -3.65625 L 4.578125 -3.328125 L 4.203125 -3.265625 L 3.890625 -2.9375 L 3.640625 -2.453125 L 3.515625 -1.71875 L 3.265625 -1.25 L 2.875 -0.96875 L 1.828125 -0.59375 L 1.453125 -0.5 L 0.71875 -0.21875 L 0.3125 -0.203125 L 0.0625 -0.640625 L 0.046875 -1.078125 L 0.171875 -1.9375 L 0.15625 -2.3125 L 0.265625 -2.640625 L 0.296875 -3.484375 L 0.4375 -4.21875 L 0.453125 -4.625 L 0.53125 -4.96875 L 0.515625 -5.4375 L 1.09375 -10.109375 L 1.078125 -10.46875 L 1.171875 -10.90625 L 1.15625 -11.3125 L 1.265625 -11.671875 L 1.4375 -13.640625 L 1.515625 -13.96875 L 1.515625 -14.40625 L 1.578125 -14.75 L 1.796875 -15.1875 L 2.34375 -15.609375 L 3.03125 -15.625 L 3.453125 -15.375 L 4.046875 -14.859375 L 4.25 -14.5625 L 4.59375 -14.28125 L 4.828125 -13.953125 L 6.953125 -11.734375 L 7.203125 -11.390625 L 7.828125 -10.8125 L 8.046875 -10.5625 L 8.3125 -10.328125 L 8.5625 -9.96875 L 8.875 -9.671875 L 9.140625 -9.453125 L 10.453125 -7.96875 L 11.046875 -7.40625 L 11.546875 -6.8125 L 12.375 -6 L 12.890625 -5.40625 L 13.171875 -5.015625 L 13.265625 -4.53125 L 12.78125 -4.265625 L 12.1875 -4.0625 L 11.828125 -3.96875 Z M 5.265625 -6.9375 L 6.03125 -7.203125 L 6.265625 -7.4375 L 6.21875 -7.8125 L 4.640625 -9.59375 L 4.328125 -9.640625 L 4.1875 -9.421875 L 3.96875 -7.09375 L 4.109375 -6.71875 L 4.46875 -6.703125 L 4.890625 -6.890625 Z M 5.265625 -6.9375 "/></g></g></g><g fill="#ffffff" fill-opacity="1"><g transform="translate(27.137508, 30.082999)"><g><path d="M 1.3125 -1.0625 L 0.765625 -3.953125 L 0.65625 -4.359375 L 0.390625 -5.9375 L 0.359375 -6.3125 L 0.25 -6.671875 L 0.171875 -7.0625 L 0.078125 -7.484375 L 0 -8.28125 L -0.125 -8.671875 L -0.96875 -13.140625 L -0.828125 -13.71875 L -0.515625 -13.984375 L 0.625 -14.296875 L 1.046875 -14.359375 L 1.453125 -14.34375 L 1.84375 -14.421875 L 2.1875 -14.578125 L 2.5625 -14.65625 L 2.96875 -14.640625 L 4.15625 -14.859375 L 4.71875 -15.015625 L 5.328125 -15.09375 L 6.5 -15.0625 L 7.28125 -14.953125 L 8.03125 -14.703125 L 9.359375 -13.734375 L 9.640625 -13.46875 L 9.859375 -13.15625 L 10.421875 -12.109375 L 10.5625 -11.734375 L 10.8125 -10.515625 L 10.78125 -9.328125 L 10.265625 -7.8125 L 10.03125 -7.53125 L 9.8125 -7.1875 L 9.703125 -6.734375 L 9.8125 -6.265625 L 10.109375 -6.03125 L 10.921875 -5.109375 L 11.171875 -4.796875 L 12.015625 -3.921875 L 12.234375 -3.59375 L 12.515625 -3.359375 L 12.8125 -2.953125 L 12.78125 -2.515625 L 12.453125 -2.265625 L 11.8125 -2.125 L 11.4375 -2.109375 L 9.890625 -1.78125 L 9.1875 -1.84375 L 8.6875 -2.109375 L 8.421875 -2.40625 L 8.203125 -2.78125 L 7.921875 -3.015625 L 7.421875 -3.671875 L 6.90625 -4.171875 L 6.6875 -4.5 L 6.375 -4.84375 L 5.921875 -5.109375 L 4.75 -5.046875 L 4.421875 -4.765625 L 4.328125 -4.328125 L 4.515625 -3.078125 L 4.65625 -2.671875 L 4.6875 -2.328125 L 4.8125 -1.65625 L 4.734375 -1.0625 L 4.125 -0.75 L 3.546875 -0.640625 L 3.25 -0.546875 L 2.609375 -0.484375 L 2.25 -0.34375 L 1.625 -0.515625 Z M 4.171875 -8.15625 L 4.609375 -8.28125 L 5.53125 -8.421875 L 5.921875 -8.5 L 6.4375 -8.75 L 6.765625 -8.984375 L 6.953125 -9.1875 L 7.125 -9.515625 L 7.21875 -9.9375 L 7.15625 -10.546875 L 6.984375 -11.046875 L 6.828125 -11.328125 L 6.21875 -11.84375 L 5.828125 -11.875 L 5.328125 -11.8125 L 4.75 -11.828125 L 3.984375 -11.609375 L 3.59375 -11.546875 L 3.203125 -11.328125 L 3.109375 -10.921875 L 3.21875 -10.078125 L 3.328125 -9.765625 L 3.546875 -8.609375 L 3.75 -8.3125 Z M 4.171875 -8.15625 "/></g></g></g><g fill="#ffffff" fill-opacity="1"><g transform="translate(39.800013, 27.671679)"><g><path d="M 1.453125 -0.890625 L 1.3125 -3.828125 L 1.25 -4.21875 L 1.1875 -5.828125 L 1.21875 -6.21875 L 1.15625 -6.578125 L 1.140625 -6.953125 L 1.109375 -7.390625 L 1.125 -8.203125 L 1.0625 -8.59375 L 0.828125 -13.140625 L 1.03125 -13.703125 L 1.390625 -13.921875 L 2.5625 -14.078125 L 3 -14.078125 L 3.390625 -14.015625 L 3.796875 -14.046875 L 4.15625 -14.15625 L 4.546875 -14.171875 L 4.9375 -14.109375 L 6.140625 -14.171875 L 6.703125 -14.234375 L 7.328125 -14.234375 L 8.484375 -14.046875 L 9.234375 -13.8125 L 9.9375 -13.46875 L 11.140625 -12.34375 L 11.375 -12.03125 L 11.546875 -11.703125 L 11.96875 -10.59375 L 12.046875 -10.1875 L 12.140625 -8.9375 L 11.9375 -7.765625 L 11.21875 -6.359375 L 10.953125 -6.109375 L 10.703125 -5.796875 L 10.53125 -5.359375 L 10.578125 -4.890625 L 10.84375 -4.609375 L 11.515625 -3.59375 L 11.71875 -3.25 L 12.4375 -2.265625 L 12.609375 -1.90625 L 12.859375 -1.625 L 13.09375 -1.203125 L 13.015625 -0.765625 L 12.640625 -0.5625 L 11.984375 -0.515625 L 11.609375 -0.53125 L 10.03125 -0.4375 L 9.359375 -0.59375 L 8.890625 -0.921875 L 8.65625 -1.25 L 8.484375 -1.640625 L 8.25 -1.921875 L 7.84375 -2.625 L 7.390625 -3.203125 L 7.21875 -3.5625 L 6.96875 -3.9375 L 6.5625 -4.265625 L 5.40625 -4.359375 L 5.03125 -4.125 L 4.875 -3.703125 L 4.890625 -2.4375 L 4.984375 -2.015625 L 4.96875 -1.671875 L 5 -0.984375 L 4.828125 -0.40625 L 4.203125 -0.1875 L 3.609375 -0.15625 L 3.296875 -0.09375 L 2.65625 -0.125 L 2.265625 -0.046875 L 1.671875 -0.28125 Z M 5.25 -7.515625 L 5.6875 -7.578125 L 6.625 -7.578125 L 7.015625 -7.609375 L 7.5625 -7.78125 L 7.921875 -7.96875 L 8.125 -8.15625 L 8.328125 -8.46875 L 8.5 -8.859375 L 8.515625 -9.46875 L 8.421875 -9.984375 L 8.296875 -10.296875 L 7.765625 -10.875 L 7.390625 -10.96875 L 6.875 -10.984375 L 6.296875 -11.078125 L 5.515625 -10.953125 L 5.125 -10.953125 L 4.71875 -10.78125 L 4.5625 -10.390625 L 4.5625 -9.546875 L 4.625 -9.21875 L 4.671875 -8.03125 L 4.84375 -7.71875 Z M 5.25 -7.515625 "/></g></g></g><g fill="#ffffff" fill-opacity="1"><g transform="translate(52.653728, 26.974224)"><g><path d="M 11.671875 1.109375 L 11.25 1.03125 L 10.8125 0.78125 L 10.453125 0.453125 L 10.359375 0.078125 L 10.203125 -0.3125 L 9.859375 -0.65625 L 9.453125 -0.90625 L 9.015625 -0.890625 L 8.671875 -0.96875 L 6.71875 -1.125 L 6.359375 -1.21875 L 5.546875 -1.203125 L 5.171875 -1.3125 L 4.734375 -1.125 L 4.328125 -0.78125 L 3.90625 -0.15625 L 3.5 0.15625 L 3.015625 0.265625 L 1.90625 0.1875 L 1.53125 0.125 L 0.75 0.078125 L 0.375 -0.0625 L 0.3125 -0.5625 L 0.46875 -0.96875 L 0.9375 -1.703125 L 1.078125 -2.046875 L 1.3125 -2.3125 L 1.6875 -3.078125 L 2.109375 -3.6875 L 2.265625 -4.0625 L 2.484375 -4.34375 L 2.640625 -4.765625 L 5.0625 -8.8125 L 5.203125 -9.15625 L 5.453125 -9.5 L 5.609375 -9.890625 L 5.84375 -10.171875 L 6.796875 -11.921875 L 7 -12.1875 L 7.171875 -12.5625 L 7.375 -12.875 L 7.765625 -13.1875 L 8.421875 -13.34375 L 9.0625 -13.078125 L 9.359375 -12.6875 L 9.6875 -11.984375 L 9.765625 -11.609375 L 9.953125 -11.234375 L 10.03125 -10.828125 L 11.078125 -7.96875 L 11.1875 -7.53125 L 11.515625 -6.765625 L 11.625 -6.4375 L 11.765625 -6.125 L 11.84375 -5.671875 L 12.015625 -5.28125 L 12.171875 -4.96875 L 12.78125 -3.09375 L 13.109375 -2.34375 L 13.296875 -1.578125 L 13.734375 -0.515625 L 13.96875 0.234375 L 14.0625 0.703125 L 13.96875 1.1875 L 13.40625 1.234375 L 12.796875 1.1875 L 12.421875 1.125 Z M 7.625 -4.234375 L 8.421875 -4.171875 L 8.734375 -4.3125 L 8.84375 -4.65625 L 8.125 -6.90625 L 7.84375 -7.09375 L 7.609375 -6.9375 L 6.484375 -4.90625 L 6.46875 -4.515625 L 6.78125 -4.34375 L 7.234375 -4.34375 Z M 7.625 -4.234375 "/></g></g></g><g fill="#ffffff" fill-opacity="1"><g transform="translate(66.229988, 28.331211)"><g><path d="M 6.5 1.453125 L 6.109375 1.265625 L 5.171875 1.0625 L 4.578125 1.03125 L 3.8125 0.78125 L 3.421875 0.734375 L 2.796875 0.640625 L 2.265625 0.421875 L 1.875 0.390625 L 1.515625 0.3125 L 1.15625 0.0625 L 1.078125 -0.5 L 1.515625 -2.296875 L 1.796875 -2.59375 L 3.171875 -2.703125 L 3.5 -3.25 L 4.6875 -9.203125 L 4.640625 -9.796875 L 4.3125 -10.09375 L 3.9375 -10.171875 L 3.53125 -10.484375 L 3.421875 -10.90625 L 3.515625 -11.265625 L 3.78125 -12.71875 L 4.046875 -13.140625 L 4.5 -13.265625 L 4.9375 -13.171875 L 5.296875 -13.03125 L 6.875 -12.703125 L 7.296875 -12.6875 L 7.640625 -12.578125 L 9.984375 -12.078125 L 10.296875 -11.796875 L 10.453125 -11.375 L 10.015625 -9.46875 L 9.78125 -9.1875 L 9.328125 -9.125 L 8.921875 -9.140625 L 8.46875 -9.0625 L 8.21875 -8.625 L 7.75 -6.6875 L 7.515625 -5.28125 L 7.390625 -4.859375 L 6.953125 -2.71875 L 6.84375 -2.359375 L 6.96875 -1.859375 L 7.40625 -1.609375 L 7.8125 -1.53125 L 8.1875 -1.21875 L 8.34375 -0.8125 L 7.9375 1.125 L 7.671875 1.453125 L 7.28125 1.578125 Z M 6.5 1.453125 "/></g></g></g><g fill="#ffffff" fill-opacity="1"><g transform="translate(74.356213, 29.833452)"><g><path d="M 11.09375 3.765625 L 10.71875 3.578125 L 10.34375 3.25 L 10.0625 2.84375 L 10.0625 2.46875 L 10.015625 2.046875 L 9.75 1.625 L 9.40625 1.28125 L 8.984375 1.203125 L 8.671875 1.046875 L 6.796875 0.453125 L 6.46875 0.28125 L 5.671875 0.109375 L 5.328125 -0.078125 L 4.859375 0 L 4.390625 0.234375 L 3.828125 0.75 L 3.359375 0.96875 L 2.875 0.9375 L 1.828125 0.625 L 1.453125 0.46875 L 0.71875 0.25 L 0.375 0.015625 L 0.4375 -0.484375 L 0.671875 -0.828125 L 1.296875 -1.4375 L 1.5 -1.75 L 1.796875 -1.953125 L 2.328125 -2.609375 L 2.875 -3.09375 L 3.140625 -3.4375 L 3.40625 -3.65625 L 3.671875 -4.03125 L 6.9375 -7.421875 L 7.171875 -7.71875 L 7.484375 -8 L 7.71875 -8.34375 L 8.015625 -8.578125 L 9.34375 -10.046875 L 9.609375 -10.25 L 9.859375 -10.59375 L 10.140625 -10.84375 L 10.578125 -11.0625 L 11.25 -11.078125 L 11.8125 -10.65625 L 12.015625 -10.21875 L 12.171875 -9.453125 L 12.15625 -9.0625 L 12.25 -8.65625 L 12.234375 -8.234375 L 12.609375 -5.203125 L 12.609375 -4.765625 L 12.765625 -3.9375 L 12.796875 -3.59375 L 12.84375 -3.265625 L 12.84375 -2.8125 L 12.90625 -2.390625 L 12.984375 -2.046875 L 13.140625 -0.09375 L 13.296875 0.71875 L 13.328125 1.5 L 13.5 2.65625 L 13.546875 3.4375 L 13.546875 3.921875 L 13.328125 4.34375 L 12.78125 4.265625 L 12.1875 4.09375 L 11.828125 3.9375 Z M 8.390625 -2.375 L 9.15625 -2.140625 L 9.484375 -2.1875 L 9.65625 -2.5 L 9.484375 -4.875 L 9.265625 -5.109375 L 9 -5.015625 L 7.4375 -3.28125 L 7.328125 -2.90625 L 7.59375 -2.671875 L 8.046875 -2.578125 Z M 8.390625 -2.375 "/></g></g></g></svg>