<svg xmlns="http://www.w3.org/2000/svg" xmlns:xlink="http://www.w3.org/1999/xlink" width="132" zoomAndPan="magnify" viewBox="0 0 98.88 66" height="88" preserveAspectRatio="xMidYMid meet" version="1.0"><defs><g/><clipPath id="dc4a6ff0f3"><path d="M 6 29 L 79 29 L 79 50.808594 L 6 50.808594 Z M 6 29 " clip-rule="nonzero"/></clipPath><clipPath id="ad6b09e140"><rect x="0" width="73" y="0" height="22"/></clipPath><clipPath id="b703b8a2e4"><path d="M 0.910156 0.949219 L 83.371094 0.949219 L 83.371094 31 L 0.910156 31 Z M 0.910156 0.949219 " clip-rule="nonzero"/></clipPath><clipPath id="5ccb97c588"><rect x="0" width="84" y="0" height="31"/></clipPath><clipPath id="37286d7633"><rect x="0" width="16" y="0" height="12"/></clipPath><clipPath id="c1a10cf923"><rect x="0" width="84" y="0" height="51"/></clipPath></defs><g transform="matrix(1, 0, 0, 1, 7, 7)"><g clip-path="url(#c1a10cf923)"><g clip-path="url(#dc4a6ff0f3)"><g transform="matrix(1, 0, 0, 1, 6, 29)"><g clip-path="url(#ad6b09e140)"><g fill="#ffffff" fill-opacity="1"><g transform="translate(1.097503, 17.49243)"><g><path d="M 5.875 0.21875 L 5.328125 0.1875 L 4.984375 0.1875 L 4.328125 0.046875 L 3.671875 -0.234375 L 3.421875 -0.390625 L 3.078125 -0.546875 L 2.53125 -0.90625 L 2.265625 -1.125 L 2.0625 -1.359375 L 1.671875 -1.984375 L 1.40625 -2.5625 L 1.234375 -3.265625 L 1.125 -4.625 L 1.171875 -7.375 L 1.140625 -7.703125 L 1.203125 -8.046875 L 1.140625 -10.4375 L 1.171875 -10.703125 L 1.171875 -11.125 L 1.140625 -11.453125 L 1.359375 -11.78125 L 1.71875 -11.921875 L 2.078125 -11.96875 L 2.8125 -11.90625 L 3.15625 -11.953125 L 3.484375 -11.953125 L 3.84375 -11.796875 L 4.046875 -11.421875 L 4.078125 -10.9375 L 4.046875 -10.390625 L 4.078125 -10.125 L 4.03125 -4.625 L 4.140625 -3.640625 L 4.234375 -3.3125 L 4.4375 -3.046875 L 4.71875 -2.828125 L 5 -2.671875 L 5.390625 -2.578125 L 6.421875 -2.578125 L 7.015625 -2.796875 L 7.3125 -3 L 7.5 -3.34375 L 7.59375 -3.609375 L 7.71875 -4.65625 L 7.6875 -11.390625 L 7.875 -11.765625 L 8.234375 -11.9375 L 8.953125 -11.890625 L 10.03125 -11.921875 L 10.40625 -11.796875 L 10.625 -11.4375 L 10.578125 -11.09375 L 10.578125 -9.6875 L 10.609375 -9.40625 L 10.578125 -9.03125 L 10.609375 -8.703125 L 10.609375 -4.09375 L 10.515625 -3.28125 L 10.359375 -2.5625 L 10.203125 -2.265625 L 10.09375 -1.9375 L 9.703125 -1.328125 L 9.21875 -0.859375 L 8.65625 -0.484375 L 8.046875 -0.15625 L 6.71875 0.1875 L 6.390625 0.171875 Z M 5.875 0.21875 "/></g></g></g><g fill="#ffffff" fill-opacity="1"><g transform="translate(12.885653, 17.49243)"><g><path d="M 10.078125 -0.296875 L 9.8125 -0.515625 L 9.375 -1 L 6.734375 -3.640625 L 6.4375 -3.828125 L 6.21875 -4.078125 L 5 -5.25 L 4.78125 -5.53125 L 4.5625 -5.625 L 4.4375 -5.328125 L 4.40625 -4.984375 L 4.390625 -0.671875 L 4.21875 -0.140625 L 3.875 0.03125 L 3.515625 0.046875 L 2.859375 0 L 2.46875 0.03125 L 1.78125 0 L 1.421875 -0.125 L 1.265625 -0.4375 L 1.234375 -1.875 L 1.265625 -2.203125 L 1.234375 -5 L 1.28125 -5.296875 L 1.25 -6 L 1.265625 -6.28125 L 1.265625 -11.453125 L 1.421875 -11.78125 L 1.8125 -11.953125 L 2.328125 -11.828125 L 2.71875 -11.625 L 2.96875 -11.421875 L 6.34375 -8.03125 L 6.8125 -7.65625 L 8.03125 -6.4375 L 8.28125 -6.3125 L 8.390625 -6.609375 L 8.421875 -9.671875 L 8.390625 -10.046875 L 8.4375 -10.765625 L 8.390625 -11.03125 L 8.40625 -11.390625 L 8.59375 -11.75 L 8.921875 -11.9375 L 11.03125 -11.953125 L 11.375 -11.765625 L 11.546875 -11.421875 L 11.59375 -9.046875 L 11.546875 -8.640625 L 11.546875 -6.953125 L 11.59375 -6.65625 L 11.5625 -0.421875 L 11.390625 -0.078125 L 11.015625 0.03125 L 10.53125 -0.015625 Z M 10.078125 -0.296875 "/></g></g></g><g fill="#ffffff" fill-opacity="1"><g transform="translate(25.767192, 17.49243)"><g><path d="M 10.078125 0.03125 L 9.71875 0 L 9.328125 -0.171875 L 8.984375 -0.421875 L 8.875 -0.734375 L 8.734375 -1.0625 L 8.40625 -1.328125 L 8.03125 -1.515625 L 7.65625 -1.46875 L 7.34375 -1.5 L 5.671875 -1.484375 L 5.359375 -1.53125 L 4.640625 -1.46875 L 4.328125 -1.515625 L 3.96875 -1.328125 L 3.640625 -1 L 3.328125 -0.4375 L 3 -0.140625 L 2.609375 -0.015625 L 1.65625 0.015625 L 1.3125 -0.015625 L 0.65625 0.015625 L 0.3125 -0.078125 L 0.21875 -0.515625 L 0.328125 -0.859375 L 0.671875 -1.53125 L 0.75 -1.84375 L 0.9375 -2.078125 L 1.203125 -2.765625 L 1.5 -3.3125 L 1.625 -3.65625 L 1.796875 -3.90625 L 1.890625 -4.28125 L 3.640625 -7.9375 L 3.734375 -8.25 L 3.921875 -8.578125 L 4.015625 -8.921875 L 4.203125 -9.171875 L 4.890625 -10.734375 L 5.03125 -10.984375 L 5.15625 -11.328125 L 5.3125 -11.609375 L 5.625 -11.90625 L 6.171875 -12.09375 L 6.734375 -11.921875 L 7.015625 -11.609375 L 7.34375 -11.015625 L 7.453125 -10.703125 L 7.640625 -10.40625 L 7.734375 -10.0625 L 8.859375 -7.6875 L 8.984375 -7.328125 L 9.34375 -6.6875 L 9.4375 -6.421875 L 9.59375 -6.171875 L 9.703125 -5.796875 L 9.875 -5.46875 L 10.046875 -5.203125 L 10.6875 -3.65625 L 11.03125 -3.046875 L 11.265625 -2.40625 L 11.734375 -1.515625 L 11.984375 -0.890625 L 12.109375 -0.5 L 12.0625 -0.078125 L 11.578125 0 L 11.046875 0.015625 L 10.71875 -0.015625 Z M 6.203125 -4.21875 L 6.875 -4.234375 L 7.140625 -4.375 L 7.203125 -4.671875 L 6.40625 -6.5625 L 6.171875 -6.6875 L 5.984375 -6.546875 L 5.171875 -4.703125 L 5.1875 -4.375 L 5.46875 -4.25 L 5.859375 -4.28125 Z M 6.203125 -4.21875 "/></g></g></g><g fill="#ffffff" fill-opacity="1"><g transform="translate(38.170378, 17.49243)"><g><path d="M 5.9375 0.046875 L 5.609375 0.015625 L 5.265625 0.046875 L 4.875 0.03125 L 4.546875 -0.03125 L 3.84375 0.015625 L 3.53125 0 L 3.15625 0.03125 L 1.9375 0.015625 L 1.421875 -0.203125 L 1.28125 -0.671875 L 1.25 -1.046875 L 1.296875 -2.21875 L 1.25 -2.5625 L 1.28125 -2.890625 L 1.296875 -5.65625 L 1.25 -5.953125 L 1.265625 -7.359375 L 1.296875 -7.6875 L 1.25 -8.046875 L 1.28125 -9.71875 L 1.234375 -10.09375 L 1.28125 -10.796875 L 1.25 -11.4375 L 1.4375 -11.796875 L 1.796875 -11.9375 L 2.140625 -11.921875 L 2.46875 -11.953125 L 2.78125 -11.921875 L 3.109375 -11.984375 L 3.453125 -11.9375 L 4.84375 -11.96875 L 5.1875 -11.9375 L 5.484375 -11.953125 L 5.828125 -11.921875 L 6.203125 -11.953125 L 7.578125 -11.96875 L 7.890625 -11.90625 L 8.25 -11.90625 L 8.59375 -11.765625 L 8.75 -11.4375 L 8.78125 -10.421875 L 8.765625 -10.078125 L 8.78125 -9.734375 L 8.609375 -9.421875 L 8.25 -9.21875 L 7.921875 -9.203125 L 5.484375 -9.234375 L 5.15625 -9.171875 L 4.828125 -9.1875 L 4.453125 -9.046875 L 4.296875 -8.734375 L 4.296875 -8.203125 L 4.4375 -7.671875 L 4.796875 -7.515625 L 5.796875 -7.546875 L 6.5 -7.5 L 6.859375 -7.53125 L 7.875 -7.53125 L 8.265625 -7.3125 L 8.4375 -6.828125 L 8.390625 -5.296875 L 8.265625 -4.953125 L 7.921875 -4.8125 L 7.53125 -4.828125 L 7.1875 -4.796875 L 6.484375 -4.8125 L 5.84375 -4.78125 L 5.296875 -4.828125 L 4.78125 -4.8125 L 4.46875 -4.625 L 4.328125 -4.265625 L 4.328125 -3.1875 L 4.453125 -2.890625 L 4.8125 -2.71875 L 5.1875 -2.75 L 5.515625 -2.703125 L 5.890625 -2.71875 L 6.234375 -2.6875 L 6.796875 -2.75 L 7.671875 -2.734375 L 8 -2.6875 L 8.390625 -2.71875 L 8.75 -2.5625 L 8.9375 -2.21875 L 8.9375 -0.5 L 8.75 -0.140625 L 8.390625 0.015625 Z M 5.9375 0.046875 "/></g></g></g><g fill="#ffffff" fill-opacity="1"><g transform="translate(47.959669, 17.49243)"><g><path d="M 1.28125 -0.703125 L 1.28125 -3.234375 L 1.25 -3.5625 L 1.265625 -4.953125 L 1.296875 -5.28125 L 1.265625 -5.609375 L 1.265625 -5.9375 L 1.25 -6.3125 L 1.296875 -7 L 1.265625 -7.34375 L 1.25 -11.25 L 1.453125 -11.734375 L 1.765625 -11.90625 L 2.765625 -11.984375 L 3.140625 -11.96875 L 3.484375 -11.90625 L 3.828125 -11.90625 L 4.140625 -11.984375 L 4.46875 -11.984375 L 4.8125 -11.921875 L 5.84375 -11.921875 L 6.34375 -11.953125 L 6.875 -11.9375 L 7.859375 -11.71875 L 8.5 -11.5 L 9.109375 -11.171875 L 10.078125 -10.140625 L 10.265625 -9.875 L 10.40625 -9.578125 L 10.703125 -8.609375 L 10.765625 -8.265625 L 10.796875 -7.1875 L 10.578125 -6.203125 L 9.90625 -5 L 9.671875 -4.796875 L 9.421875 -4.546875 L 9.28125 -4.171875 L 9.296875 -3.75 L 9.5 -3.5 L 10.046875 -2.609375 L 10.203125 -2.3125 L 10.78125 -1.4375 L 10.90625 -1.109375 L 11.125 -0.875 L 11.3125 -0.5 L 11.203125 -0.125 L 10.875 0.03125 L 10.3125 0.046875 L 9.984375 0.015625 L 8.640625 0.03125 L 8.0625 -0.125 L 7.6875 -0.421875 L 7.5 -0.71875 L 7.359375 -1.0625 L 7.171875 -1.3125 L 6.84375 -1.9375 L 6.484375 -2.4375 L 6.359375 -2.75 L 6.140625 -3.09375 L 5.8125 -3.375 L 4.8125 -3.515625 L 4.484375 -3.328125 L 4.34375 -2.984375 L 4.296875 -1.890625 L 4.359375 -1.53125 L 4.328125 -1.234375 L 4.328125 -0.65625 L 4.171875 -0.15625 L 3.625 0.015625 L 3.109375 0.015625 L 2.828125 0.046875 L 2.28125 0 L 1.953125 0.046875 L 1.453125 -0.171875 Z M 4.8125 -6.25 L 5.1875 -6.28125 L 6.015625 -6.25 L 6.34375 -6.265625 L 6.828125 -6.390625 L 7.140625 -6.53125 L 7.328125 -6.671875 L 7.515625 -6.9375 L 7.671875 -7.28125 L 7.71875 -7.78125 L 7.65625 -8.234375 L 7.546875 -8.5 L 7.125 -9.03125 L 6.796875 -9.125 L 6.359375 -9.15625 L 5.875 -9.25 L 5.1875 -9.1875 L 4.84375 -9.203125 L 4.484375 -9.0625 L 4.34375 -8.75 L 4.296875 -8.03125 L 4.34375 -7.734375 L 4.34375 -6.71875 L 4.46875 -6.4375 Z M 4.8125 -6.25 "/></g></g></g><g fill="#ffffff" fill-opacity="1"><g transform="translate(59.816152, 17.49243)"><g><path d="M 2.28125 0.046875 L 1.984375 0.03125 L 1.453125 -0.140625 L 1.265625 -0.46875 L 1.28125 -3.625 L 1.25 -3.9375 L 1.265625 -8.375 L 1.234375 -8.6875 L 1.296875 -9.375 L 1.28125 -11.4375 L 1.4375 -11.71875 L 1.796875 -11.90625 L 2.15625 -11.96875 L 2.453125 -11.921875 L 2.828125 -11.90625 L 3.890625 -11.96875 L 4.234375 -11.921875 L 5.28125 -11.90625 L 5.65625 -11.953125 L 6.203125 -11.96875 L 6.71875 -11.953125 L 7.046875 -11.828125 L 7.390625 -11.828125 L 7.6875 -11.71875 L 8.375 -11.515625 L 8.9375 -11.140625 L 9.703125 -10.46875 L 10.109375 -9.90625 L 10.4375 -9.328125 L 10.640625 -8.6875 L 10.6875 -8.3125 L 10.765625 -8.03125 L 10.71875 -6.625 L 10.625 -6.359375 L 10.578125 -5.984375 L 10.28125 -5.3125 L 9.921875 -4.765625 L 9.703125 -4.515625 L 9.484375 -4.28125 L 9.234375 -4.015625 L 8.984375 -3.8125 L 7.359375 -3.15625 L 5.609375 -3.015625 L 5.25 -3.09375 L 4.875 -3.0625 L 4.46875 -2.875 L 4.328125 -2.5625 L 4.34375 -2.171875 L 4.296875 -1.84375 L 4.34375 -1.21875 L 4.328125 -0.84375 L 4.34375 -0.5 L 4.1875 -0.140625 L 3.828125 0 L 3.4375 0.03125 L 3.125 0.015625 Z M 4.84375 -5.796875 L 5.265625 -5.828125 L 6.125 -5.8125 L 6.65625 -5.875 L 6.9375 -5.953125 L 7.203125 -6.171875 L 7.421875 -6.4375 L 7.578125 -6.71875 L 7.703125 -7.015625 L 7.734375 -7.484375 L 7.703125 -7.953125 L 7.65625 -8.265625 L 7.484375 -8.609375 L 7.265625 -8.828125 L 6.984375 -9.015625 L 6.640625 -9.171875 L 4.875 -9.21875 L 4.515625 -9.046875 L 4.34375 -8.734375 L 4.34375 -8.03125 L 4.296875 -7.671875 L 4.359375 -6.28125 L 4.515625 -6 Z M 4.84375 -5.796875 "/></g></g></g></g></g></g><g clip-path="url(#b703b8a2e4)"><g transform="matrix(1, 0, 0, 1, 0, 0.000000000000015987)"><g clip-path="url(#5ccb97c588)"><g fill="#ffffff" fill-opacity="1"><g transform="translate(6.598547, 25.92471)"><g><path d="M 10.640625 -3.515625 L 10.234375 -3.421875 L 9.765625 -3.453125 L 9.3125 -3.609375 L 9.109375 -3.890625 L 8.828125 -4.1875 L 8.390625 -4.375 L 7.9375 -4.421875 L 7.546875 -4.234375 L 7.203125 -4.15625 L 5.4375 -3.578125 L 5.109375 -3.5 L 4.375 -3.1875 L 4.015625 -3.109375 L 3.703125 -2.796875 L 3.484375 -2.34375 L 3.359375 -1.640625 L 3.125 -1.203125 L 2.75 -0.9375 L 1.75 -0.5625 L 1.390625 -0.484375 L 0.6875 -0.21875 L 0.296875 -0.203125 L 0.0625 -0.609375 L 0.046875 -1.015625 L 0.15625 -1.84375 L 0.125 -2.203125 L 0.265625 -2.515625 L 0.296875 -3.34375 L 0.40625 -4.03125 L 0.421875 -4.421875 L 0.515625 -4.765625 L 0.484375 -5.1875 L 1.046875 -9.65625 L 1.03125 -10.015625 L 1.125 -10.421875 L 1.09375 -10.8125 L 1.203125 -11.140625 L 1.359375 -13.046875 L 1.4375 -13.34375 L 1.453125 -13.75 L 1.515625 -14.109375 L 1.734375 -14.53125 L 2.234375 -14.921875 L 2.890625 -14.9375 L 3.296875 -14.703125 L 3.84375 -14.203125 L 4.078125 -13.921875 L 4.375 -13.65625 L 4.609375 -13.328125 L 6.640625 -11.234375 L 6.890625 -10.890625 L 7.5 -10.34375 L 7.6875 -10.09375 L 7.953125 -9.875 L 8.171875 -9.53125 L 8.484375 -9.25 L 8.734375 -9.03125 L 10 -7.625 L 10.578125 -7.09375 L 11.046875 -6.5 L 11.84375 -5.734375 L 12.328125 -5.15625 L 12.59375 -4.78125 L 12.6875 -4.34375 L 12.21875 -4.078125 L 11.640625 -3.875 L 11.3125 -3.796875 Z M 5.046875 -6.640625 L 5.78125 -6.875 L 5.984375 -7.125 L 5.953125 -7.484375 L 4.4375 -9.1875 L 4.140625 -9.21875 L 4 -9 L 3.796875 -6.78125 L 3.921875 -6.4375 L 4.265625 -6.40625 L 4.65625 -6.578125 Z M 5.046875 -6.640625 "/></g></g></g><g fill="#ffffff" fill-opacity="1"><g transform="translate(18.828529, 21.795071)"><g><path d="M 1.25 -1.03125 L 0.734375 -3.796875 L 0.65625 -4.15625 L 0.375 -5.65625 L 0.34375 -6.03125 L 0.234375 -6.375 L 0.171875 -6.75 L 0.09375 -7.15625 L -0.015625 -7.921875 L -0.109375 -8.265625 L -0.90625 -12.5625 L -0.796875 -13.125 L -0.5 -13.375 L 0.59375 -13.671875 L 1.015625 -13.734375 L 1.390625 -13.71875 L 1.75 -13.796875 L 2.078125 -13.953125 L 2.453125 -14.015625 L 2.84375 -14.015625 L 3.96875 -14.21875 L 4.5 -14.34375 L 5.109375 -14.4375 L 6.21875 -14.390625 L 6.96875 -14.28125 L 7.6875 -14.0625 L 8.953125 -13.140625 L 9.21875 -12.859375 L 9.4375 -12.59375 L 9.953125 -11.578125 L 10.078125 -11.21875 L 10.34375 -10.046875 L 10.296875 -8.921875 L 9.8125 -7.484375 L 9.59375 -7.203125 L 9.390625 -6.875 L 9.296875 -6.421875 L 9.390625 -6 L 9.6875 -5.75 L 10.4375 -4.890625 L 10.671875 -4.578125 L 11.484375 -3.75 L 11.703125 -3.4375 L 11.984375 -3.203125 L 12.25 -2.828125 L 12.21875 -2.40625 L 11.890625 -2.171875 L 11.296875 -2.03125 L 10.921875 -2.015625 L 9.453125 -1.71875 L 8.765625 -1.78125 L 8.328125 -2.015625 L 8.046875 -2.296875 L 7.828125 -2.65625 L 7.5625 -2.890625 L 7.09375 -3.5 L 6.59375 -3.984375 L 6.375 -4.296875 L 6.09375 -4.625 L 5.65625 -4.875 L 4.546875 -4.828125 L 4.25 -4.546875 L 4.140625 -4.140625 L 4.3125 -2.953125 L 4.453125 -2.5625 L 4.46875 -2.21875 L 4.59375 -1.578125 L 4.515625 -1.015625 L 3.96875 -0.71875 L 3.390625 -0.609375 L 3.125 -0.515625 L 2.5 -0.46875 L 2.15625 -0.328125 L 1.546875 -0.484375 Z M 4 -7.828125 L 4.390625 -7.90625 L 5.3125 -8.0625 L 5.65625 -8.140625 L 6.171875 -8.359375 L 6.46875 -8.578125 L 6.640625 -8.78125 L 6.8125 -9.109375 L 6.90625 -9.515625 L 6.859375 -10.078125 L 6.6875 -10.546875 L 6.53125 -10.828125 L 5.953125 -11.328125 L 5.59375 -11.34375 L 5.078125 -11.28125 L 4.546875 -11.3125 L 3.8125 -11.09375 L 3.421875 -11.046875 L 3.078125 -10.8125 L 2.984375 -10.4375 L 3.078125 -9.640625 L 3.1875 -9.328125 L 3.390625 -8.203125 L 3.578125 -7.9375 Z M 4 -7.828125 "/></g></g></g><g fill="#ffffff" fill-opacity="1"><g transform="translate(30.932079, 19.490191)"><g><path d="M 1.390625 -0.84375 L 1.25 -3.65625 L 1.203125 -4.03125 L 1.140625 -5.5625 L 1.15625 -5.921875 L 1.109375 -6.296875 L 1.09375 -6.671875 L 1.0625 -7.078125 L 1.0625 -7.828125 L 1.015625 -8.203125 L 0.796875 -12.5625 L 0.984375 -13.109375 L 1.328125 -13.3125 L 2.4375 -13.453125 L 2.859375 -13.46875 L 3.25 -13.40625 L 3.625 -13.421875 L 3.953125 -13.53125 L 4.328125 -13.546875 L 4.734375 -13.484375 L 5.875 -13.546875 L 6.40625 -13.59375 L 7.015625 -13.609375 L 8.09375 -13.421875 L 8.828125 -13.21875 L 9.515625 -12.890625 L 10.65625 -11.796875 L 10.875 -11.5 L 11.046875 -11.1875 L 11.4375 -10.109375 L 11.5 -9.734375 L 11.609375 -8.5625 L 11.40625 -7.4375 L 10.734375 -6.09375 L 10.484375 -5.84375 L 10.234375 -5.546875 L 10.078125 -5.109375 L 10.109375 -4.65625 L 10.359375 -4.390625 L 11 -3.4375 L 11.1875 -3.09375 L 11.890625 -2.15625 L 12.046875 -1.8125 L 12.296875 -1.5625 L 12.515625 -1.140625 L 12.4375 -0.734375 L 12.078125 -0.546875 L 11.453125 -0.484375 L 11.09375 -0.515625 L 9.59375 -0.421875 L 8.9375 -0.5625 L 8.515625 -0.875 L 8.28125 -1.1875 L 8.109375 -1.5625 L 7.890625 -1.84375 L 7.484375 -2.5 L 7.078125 -3.0625 L 6.90625 -3.40625 L 6.65625 -3.765625 L 6.28125 -4.078125 L 5.171875 -4.15625 L 4.828125 -3.9375 L 4.671875 -3.5625 L 4.6875 -2.34375 L 4.765625 -1.9375 L 4.734375 -1.59375 L 4.765625 -0.953125 L 4.609375 -0.390625 L 4.03125 -0.171875 L 3.453125 -0.15625 L 3.15625 -0.09375 L 2.546875 -0.125 L 2.171875 -0.046875 L 1.59375 -0.265625 Z M 5.03125 -7.1875 L 5.4375 -7.25 L 6.359375 -7.25 L 6.703125 -7.28125 L 7.234375 -7.4375 L 7.578125 -7.609375 L 7.765625 -7.796875 L 7.984375 -8.078125 L 8.125 -8.484375 L 8.15625 -9.046875 L 8.046875 -9.546875 L 7.921875 -9.84375 L 7.421875 -10.40625 L 7.0625 -10.484375 L 6.5625 -10.5 L 6.046875 -10.59375 L 5.28125 -10.484375 L 4.90625 -10.46875 L 4.515625 -10.296875 L 4.359375 -9.9375 L 4.359375 -9.140625 L 4.421875 -8.8125 L 4.46875 -7.671875 L 4.625 -7.375 Z M 5.03125 -7.1875 "/></g></g></g><g fill="#ffffff" fill-opacity="1"><g transform="translate(43.218403, 18.823524)"><g><path d="M 11.15625 1.046875 L 10.75 0.984375 L 10.328125 0.765625 L 9.984375 0.4375 L 9.90625 0.09375 L 9.765625 -0.28125 L 9.4375 -0.625 L 9.046875 -0.875 L 8.609375 -0.84375 L 8.28125 -0.921875 L 6.421875 -1.078125 L 6.09375 -1.15625 L 5.28125 -1.15625 L 4.9375 -1.25 L 4.53125 -1.078125 L 4.140625 -0.75 L 3.734375 -0.15625 L 3.34375 0.15625 L 2.890625 0.25 L 1.84375 0.1875 L 1.46875 0.125 L 0.71875 0.078125 L 0.359375 -0.0625 L 0.296875 -0.546875 L 0.453125 -0.921875 L 0.890625 -1.640625 L 1.015625 -1.953125 L 1.265625 -2.203125 L 1.609375 -2.9375 L 2.015625 -3.515625 L 2.171875 -3.875 L 2.375 -4.140625 L 2.53125 -4.5625 L 4.84375 -8.421875 L 4.984375 -8.765625 L 5.21875 -9.09375 L 5.359375 -9.453125 L 5.59375 -9.71875 L 6.5 -11.390625 L 6.6875 -11.640625 L 6.859375 -12.015625 L 7.046875 -12.3125 L 7.421875 -12.59375 L 8.0625 -12.75 L 8.65625 -12.5 L 8.9375 -12.140625 L 9.25 -11.453125 L 9.34375 -11.109375 L 9.515625 -10.734375 L 9.578125 -10.359375 L 10.59375 -7.609375 L 10.6875 -7.203125 L 11.015625 -6.453125 L 11.109375 -6.15625 L 11.25 -5.859375 L 11.328125 -5.421875 L 11.484375 -5.046875 L 11.640625 -4.75 L 12.21875 -2.96875 L 12.53125 -2.234375 L 12.734375 -1.515625 L 13.15625 -0.5 L 13.359375 0.234375 L 13.4375 0.6875 L 13.359375 1.125 L 12.828125 1.171875 L 12.234375 1.140625 L 11.875 1.078125 Z M 7.28125 -4.046875 L 8.046875 -3.984375 L 8.34375 -4.125 L 8.453125 -4.453125 L 7.765625 -6.609375 L 7.5 -6.78125 L 7.265625 -6.625 L 6.203125 -4.671875 L 6.171875 -4.3125 L 6.484375 -4.15625 L 6.921875 -4.15625 Z M 7.28125 -4.046875 "/></g></g></g><g fill="#ffffff" fill-opacity="1"><g transform="translate(56.19538, 20.120608)"><g><path d="M 6.203125 1.390625 L 5.859375 1.21875 L 4.9375 1.015625 L 4.375 0.984375 L 3.640625 0.75 L 3.265625 0.703125 L 2.6875 0.59375 L 2.15625 0.421875 L 1.796875 0.375 L 1.453125 0.3125 L 1.109375 0.046875 L 1.03125 -0.484375 L 1.453125 -2.1875 L 1.703125 -2.46875 L 3.046875 -2.59375 L 3.34375 -3.09375 L 4.484375 -8.8125 L 4.421875 -9.34375 L 4.109375 -9.65625 L 3.75 -9.734375 L 3.375 -10.03125 L 3.265625 -10.421875 L 3.375 -10.78125 L 3.609375 -12.15625 L 3.875 -12.5625 L 4.296875 -12.671875 L 4.71875 -12.578125 L 5.0625 -12.46875 L 6.59375 -12.140625 L 6.96875 -12.140625 L 7.296875 -12.03125 L 9.53125 -11.546875 L 9.84375 -11.28125 L 9.984375 -10.890625 L 9.578125 -9.046875 L 9.328125 -8.796875 L 8.90625 -8.71875 L 8.53125 -8.75 L 8.078125 -8.65625 L 7.875 -8.265625 L 7.390625 -6.390625 L 7.1875 -5.046875 L 7.078125 -4.640625 L 6.65625 -2.59375 L 6.53125 -2.25 L 6.671875 -1.78125 L 7.078125 -1.546875 L 7.453125 -1.46875 L 7.828125 -1.15625 L 7.984375 -0.765625 L 7.609375 1.078125 L 7.328125 1.375 L 6.96875 1.5 Z M 6.203125 1.390625 "/></g></g></g><g fill="#ffffff" fill-opacity="1"><g transform="translate(63.962888, 21.556538)"><g><path d="M 10.90625 -12.1875 L 10.5625 -12.28125 L 10.359375 -12.34375 L 9.9375 -12.609375 L 10.171875 -12.921875 L 10.34375 -13.09375 L 10.46875 -13.28125 L 10.671875 -13.46875 L 10.8125 -13.671875 L 10.96875 -13.8125 L 12.25 -15.1875 L 12.578125 -15.21875 L 13.671875 -14.328125 L 13.859375 -14.25 L 14.625 -13.671875 L 14.765625 -13.390625 L 14.515625 -13.09375 L 14.34375 -13.015625 L 12.734375 -12.109375 L 12.5625 -11.953125 L 12.328125 -11.859375 L 11.90625 -11.84375 L 11.4375 -11.984375 L 11.25 -12.015625 Z M 10.609375 3.578125 L 10.234375 3.421875 L 9.890625 3.109375 L 9.625 2.734375 L 9.609375 2.359375 L 9.578125 1.96875 L 9.328125 1.5625 L 9 1.234375 L 8.578125 1.140625 L 8.265625 1 L 6.5 0.421875 L 6.203125 0.28125 L 5.40625 0.09375 L 5.078125 -0.078125 L 4.640625 -0.015625 L 4.203125 0.21875 L 3.671875 0.703125 L 3.21875 0.921875 L 2.75 0.90625 L 1.75 0.59375 L 1.390625 0.453125 L 0.6875 0.25 L 0.359375 0.015625 L 0.40625 -0.453125 L 0.640625 -0.796875 L 1.25 -1.375 L 1.4375 -1.671875 L 1.734375 -1.859375 L 2.234375 -2.5 L 2.75 -2.96875 L 2.984375 -3.296875 L 3.265625 -3.484375 L 3.515625 -3.84375 L 6.640625 -7.09375 L 6.84375 -7.390625 L 7.15625 -7.671875 L 7.375 -7.96875 L 7.671875 -8.171875 L 8.921875 -9.609375 L 9.1875 -9.8125 L 9.421875 -10.125 L 9.703125 -10.359375 L 10.109375 -10.5625 L 10.765625 -10.578125 L 11.296875 -10.1875 L 11.484375 -9.765625 L 11.625 -9.046875 L 11.640625 -8.671875 L 11.71875 -8.28125 L 11.703125 -7.890625 L 12.046875 -4.984375 L 12.046875 -4.546875 L 12.21875 -3.75 L 12.21875 -3.4375 L 12.296875 -3.125 L 12.265625 -2.6875 L 12.328125 -2.28125 L 12.421875 -1.96875 L 12.5625 -0.09375 L 12.703125 0.6875 L 12.734375 1.4375 L 12.90625 2.546875 L 12.953125 3.28125 L 12.9375 3.75 L 12.75 4.15625 L 12.21875 4.078125 L 11.640625 3.90625 L 11.3125 3.765625 Z M 8.015625 -2.265625 L 8.75 -2.03125 L 9.078125 -2.09375 L 9.265625 -2.390625 L 9.0625 -4.65625 L 8.859375 -4.875 L 8.59375 -4.78125 L 7.109375 -3.125 L 7.015625 -2.78125 L 7.265625 -2.5625 L 7.6875 -2.453125 Z M 8.015625 -2.265625 "/></g></g></g></g></g></g><g transform="matrix(1, 0, 0, 1, 33, 21)"><g clip-path="url(#37286d7633)"><g fill="#ffffff" fill-opacity="1"><g transform="translate(0.990966, 8.819842)"><g><path d="M 2.921875 0.03125 L 2.53125 -0.015625 L 2.34375 0.015625 L 1.1875 0 L 1 0.015625 L 0.8125 -0.078125 L 0.71875 -0.375 L 0.71875 -0.859375 L 0.6875 -1.03125 L 0.703125 -6.328125 L 0.78125 -6.53125 L 1 -6.625 L 1.1875 -6.609375 L 1.359375 -6.640625 L 3.515625 -6.625 L 4.078125 -6.53125 L 4.28125 -6.484375 L 4.4375 -6.40625 L 4.625 -6.375 L 4.8125 -6.265625 L 5.296875 -5.953125 L 5.796875 -5.390625 L 6.125 -4.890625 L 6.1875 -4.703125 L 6.3125 -4.34375 L 6.453125 -3.59375 L 6.453125 -3.3125 L 6.4375 -3.015625 L 6.4375 -2.8125 L 6.40625 -2.625 L 6.34375 -2.46875 L 6.3125 -2.265625 L 6.265625 -2.09375 L 6.109375 -1.71875 L 6 -1.5625 L 5.90625 -1.375 L 5.4375 -0.78125 L 4.796875 -0.34375 L 4.359375 -0.15625 L 3.96875 -0.09375 L 3.6875 -0.015625 L 3.5 -0.015625 L 3.203125 0.03125 Z M 2.890625 -1.53125 L 3.171875 -1.53125 L 3.578125 -1.578125 L 3.859375 -1.671875 L 4.1875 -1.875 L 4.53125 -2.28125 L 4.6875 -2.625 L 4.796875 -3.296875 L 4.640625 -4.125 L 4.546875 -4.296875 L 4.453125 -4.453125 L 4.3125 -4.625 L 4.171875 -4.765625 L 4.03125 -4.859375 L 3.859375 -4.953125 L 3.484375 -5.0625 L 3.21875 -5.078125 L 2.8125 -5.078125 L 2.515625 -5 L 2.421875 -4.796875 L 2.40625 -4.625 L 2.421875 -3.3125 L 2.375 -2.84375 L 2.421875 -2.375 L 2.40625 -1.984375 L 2.421875 -1.828125 L 2.5 -1.65625 L 2.71875 -1.546875 Z M 2.890625 -1.53125 "/></g></g></g><g fill="#ffffff" fill-opacity="1"><g transform="translate(7.717593, 8.819842)"><g><path d="M 5.59375 0.015625 L 5.390625 0 L 5.171875 -0.09375 L 4.984375 -0.234375 L 4.9375 -0.40625 L 4.84375 -0.59375 L 4.671875 -0.734375 L 4.453125 -0.84375 L 4.25 -0.8125 L 4.078125 -0.828125 L 3.15625 -0.828125 L 2.984375 -0.859375 L 2.578125 -0.8125 L 2.40625 -0.84375 L 2.203125 -0.734375 L 2.015625 -0.5625 L 1.84375 -0.25 L 1.671875 -0.078125 L 1.453125 -0.015625 L 0.921875 0.015625 L 0.734375 -0.015625 L 0.359375 0.015625 L 0.171875 -0.046875 L 0.125 -0.28125 L 0.1875 -0.46875 L 0.375 -0.859375 L 0.421875 -1.03125 L 0.515625 -1.15625 L 0.65625 -1.53125 L 0.828125 -1.84375 L 0.90625 -2.03125 L 1 -2.171875 L 1.046875 -2.375 L 2.015625 -4.40625 L 2.078125 -4.578125 L 2.1875 -4.765625 L 2.234375 -4.953125 L 2.328125 -5.09375 L 2.71875 -5.96875 L 2.796875 -6.09375 L 2.859375 -6.28125 L 2.953125 -6.453125 L 3.125 -6.609375 L 3.421875 -6.71875 L 3.734375 -6.625 L 3.890625 -6.453125 L 4.078125 -6.125 L 4.140625 -5.953125 L 4.234375 -5.78125 L 4.296875 -5.59375 L 4.921875 -4.265625 L 4.984375 -4.0625 L 5.1875 -3.71875 L 5.25 -3.5625 L 5.328125 -3.421875 L 5.390625 -3.21875 L 5.484375 -3.03125 L 5.578125 -2.890625 L 5.9375 -2.03125 L 6.125 -1.6875 L 6.265625 -1.34375 L 6.515625 -0.84375 L 6.65625 -0.5 L 6.71875 -0.28125 L 6.703125 -0.046875 L 6.4375 0 L 6.140625 0.015625 L 5.953125 -0.015625 Z M 3.4375 -2.34375 L 3.828125 -2.359375 L 3.96875 -2.421875 L 4 -2.59375 L 3.5625 -3.640625 L 3.421875 -3.71875 L 3.3125 -3.625 L 2.875 -2.609375 L 2.890625 -2.421875 L 3.03125 -2.359375 L 3.25 -2.375 Z M 3.4375 -2.34375 "/></g></g></g></g></g></g></g></svg>