<svg version="1.0" preserveAspectRatio="xMidYMid meet" viewBox="0 24.334272809666 165.05357142857144 50.054998579999996" zoomAndPan="magnify" xmlns:xlink="http://www.w3.org/1999/xlink" xmlns="http://www.w3.org/2000/svg" style="max-height: 500px" width="165.05357142857144" height="50.054998579999996"><defs><clipPath id="becdcebe22"><path clip-rule="nonzero" d="M 149 26.980469 L 151 26.980469 L 151 28 L 149 28 Z M 149 26.980469"/></clipPath><clipPath id="9718d26aee"><path clip-rule="nonzero" d="M 142 63 L 150 63 L 150 72.664062 L 142 72.664062 Z M 142 63"/></clipPath><clipPath id="c4f01646ec"><path clip-rule="nonzero" d="M 152 63 L 160 63 L 160 72.664062 L 152 72.664062 Z M 152 63"/></clipPath><clipPath id="ed457156bd"><path clip-rule="nonzero" d="M 162 62 L 164.019531 62 L 164.019531 64 L 162 64 Z M 162 62"/></clipPath><clipPath id="a5c8140ab2"><path clip-rule="nonzero" d="M 4 63 L 12 63 L 12 72.664062 L 4 72.664062 Z M 4 63"/></clipPath><clipPath id="0d95fcbcb5"><path clip-rule="nonzero" d="M 14 63 L 22 63 L 22 72.664062 L 14 72.664062 Z M 14 63"/></clipPath></defs><path fill-rule="nonzero" fill-opacity="1" d="M 20.964844 33.648438 C 19.492188 35.6875 18.019531 37.730469 16.546875 39.769531 C 16.542969 39.769531 16.542969 39.769531 16.542969 39.765625 C 16.261719 38.425781 16.003906 37.089844 15.78125 35.753906 C 14.441406 35.871094 13.089844 35.957031 11.730469 36.019531 C 11.726562 36.019531 11.726562 36.019531 11.726562 36.019531 C 13.3125 34.066406 14.898438 32.113281 16.484375 30.160156 C 17.949219 31.367188 19.441406 32.53125 20.964844 33.648438 Z M 20.964844 33.648438" fill="#ef2b7d" style="--darkreader-inline-fill: var(--darkreader-text-ef2b7d, #dd6488);" data-darkreader-inline-fill=""/><path fill-rule="nonzero" fill-opacity="1" d="M 27.609375 38.121094 C 26.300781 40.273438 24.996094 42.425781 23.691406 44.582031 C 23.691406 44.582031 23.6875 44.578125 23.6875 44.578125 C 23.304688 43.269531 22.949219 41.957031 22.621094 40.648438 C 21.300781 40.878906 19.964844 41.078125 18.617188 41.253906 C 18.617188 41.253906 18.617188 41.253906 18.613281 41.253906 C 20.039062 39.179688 21.464844 37.101562 22.890625 35.027344 C 24.433594 36.105469 26.007812 37.136719 27.609375 38.121094 Z M 27.609375 38.121094" fill="#8858a4" style="--darkreader-inline-fill: var(--darkreader-text-8858a4, #ac8aa8);" data-darkreader-inline-fill=""/><path fill-rule="nonzero" fill-opacity="1" d="M 34.554688 42.027344 C 33.425781 44.277344 32.296875 46.53125 31.164062 48.78125 C 31.164062 48.78125 31.160156 48.78125 31.160156 48.78125 C 30.675781 47.503906 30.21875 46.230469 29.792969 44.953125 C 28.5 45.289062 27.1875 45.601562 25.863281 45.882812 C 25.863281 45.882812 25.863281 45.882812 25.859375 45.882812 C 27.117188 43.699219 28.371094 41.515625 29.625 39.332031 C 31.246094 40.277344 32.890625 41.175781 34.554688 42.027344 Z M 34.554688 42.027344" fill="#fab926" style="--darkreader-inline-fill: var(--darkreader-text-fab926, #ffe97e);" data-darkreader-inline-fill=""/><path fill-rule="nonzero" fill-opacity="1" d="M 41.773438 45.351562 C 40.824219 47.683594 39.875 50.019531 38.925781 52.355469 C 38.925781 52.355469 38.925781 52.355469 38.921875 52.355469 C 38.339844 51.125 37.785156 49.890625 37.261719 48.652344 C 36 49.09375 34.722656 49.507812 33.425781 49.902344 C 33.425781 49.902344 33.425781 49.898438 33.421875 49.898438 C 34.5 47.621094 35.578125 45.34375 36.65625 43.066406 C 38.339844 43.878906 40.046875 44.640625 41.773438 45.351562 Z M 41.773438 45.351562" fill="#e87130" style="--darkreader-inline-fill: var(--darkreader-text-e87130, #efa26c);" data-darkreader-inline-fill=""/><path fill-rule="nonzero" fill-opacity="1" d="M 49.222656 48.082031 C 48.464844 50.484375 47.703125 52.890625 46.941406 55.292969 C 46.941406 55.292969 46.9375 55.292969 46.9375 55.292969 C 46.261719 54.113281 45.609375 52.925781 44.992188 51.738281 C 43.769531 52.277344 42.527344 52.792969 41.269531 53.289062 C 41.265625 53.289062 41.265625 53.289062 41.265625 53.289062 C 42.160156 50.933594 43.054688 48.574219 43.945312 46.21875 C 45.6875 46.890625 47.449219 47.511719 49.222656 48.082031 Z M 49.222656 48.082031" fill="#30a5bb" style="--darkreader-inline-fill: var(--darkreader-text-30a5bb, #9fd9d4);" data-darkreader-inline-fill=""/><path fill-rule="nonzero" fill-opacity="1" d="M 56.871094 50.203125 C 56.304688 52.660156 55.734375 55.117188 55.167969 57.574219 C 55.167969 57.574219 55.167969 57.574219 55.164062 57.574219 C 54.394531 56.453125 53.652344 55.324219 52.941406 54.1875 C 51.765625 54.824219 50.566406 55.4375 49.351562 56.035156 C 49.351562 56.035156 49.351562 56.035156 49.347656 56.03125 C 50.054688 53.613281 50.757812 51.191406 51.460938 48.769531 C 53.25 49.300781 55.050781 49.777344 56.871094 50.203125 Z M 56.871094 50.203125" fill="#339947" style="--darkreader-inline-fill: var(--darkreader-text-339947, #b5e8a5);" data-darkreader-inline-fill=""/><path fill-rule="nonzero" fill-opacity="1" d="M 64.679688 51.707031 C 64.308594 54.203125 63.9375 56.699219 63.566406 59.195312 C 63.5625 59.195312 63.5625 59.195312 63.5625 59.195312 C 62.703125 58.136719 61.871094 57.070312 61.066406 55.996094 C 59.941406 56.722656 58.796875 57.433594 57.628906 58.125 C 58.136719 55.652344 58.648438 53.183594 59.160156 50.714844 C 60.984375 51.097656 62.828125 51.429688 64.679688 51.707031 Z M 64.679688 51.707031" fill="#8858a4" style="--darkreader-inline-fill: var(--darkreader-text-8858a4, #ac8aa8);" data-darkreader-inline-fill=""/><path fill-rule="nonzero" fill-opacity="1" d="M 72.609375 52.578125 C 72.4375 55.097656 72.265625 57.613281 72.09375 60.132812 C 72.09375 60.132812 72.09375 60.132812 72.089844 60.132812 C 71.144531 59.148438 70.226562 58.152344 69.339844 57.144531 C 68.273438 57.957031 67.183594 58.761719 66.070312 59.542969 C 66.070312 59.542969 66.066406 59.542969 66.066406 59.542969 C 66.378906 57.039062 66.691406 54.535156 67.003906 52.03125 C 68.863281 52.265625 70.734375 52.449219 72.609375 52.578125 Z M 72.609375 52.578125" fill="#fab926" style="--darkreader-inline-fill: var(--darkreader-text-fab926, #ffe97e);" data-darkreader-inline-fill=""/><path fill-rule="nonzero" fill-opacity="1" d="M 80.625 52.804688 C 80.65625 55.328125 80.6875 57.851562 80.71875 60.375 C 80.71875 60.375 80.714844 60.375 80.714844 60.375 C 79.6875 59.472656 78.6875 58.550781 77.714844 57.621094 C 76.710938 58.519531 75.683594 59.40625 74.632812 60.277344 C 74.632812 60.277344 74.628906 60.277344 74.628906 60.277344 C 74.742188 57.753906 74.851562 55.234375 74.964844 52.714844 C 76.847656 52.796875 78.734375 52.828125 80.625 52.804688 Z M 80.625 52.804688" fill="#30a5bb" style="--darkreader-inline-fill: var(--darkreader-text-30a5bb, #9fd9d4);" data-darkreader-inline-fill=""/><path fill-rule="nonzero" fill-opacity="1" d="M 46.496094 47.40625 C 40.476562 45.28125 34.632812 42.558594 29.132812 39.3125 C 23.578125 36.035156 18.316406 32.195312 13.492188 27.898438 L 13.664062 27.703125 C 33.203125 45.109375 58.304688 53.972656 84.351562 52.660156 L 84.363281 52.917969 C 77.9375 53.242188 71.445312 52.9375 65.078125 52 C 58.769531 51.078125 52.515625 49.53125 46.496094 47.40625 Z M 46.496094 47.40625" fill="#333333" style="--darkreader-inline-fill: var(--darkreader-background-333333, #282825);" data-darkreader-inline-fill=""/><path fill-rule="nonzero" fill-opacity="1" d="M 13.910156 28.09375 C 13.734375 28.300781 13.414062 28.3125 13.203125 28.125 C 12.992188 27.9375 12.964844 27.617188 13.144531 27.414062 C 13.328125 27.210938 13.640625 27.203125 13.851562 27.386719 C 14.0625 27.574219 14.089844 27.890625 13.910156 28.09375 Z M 13.910156 28.09375" fill="#e34e54" style="--darkreader-inline-fill: var(--darkreader-text-e34e54, #dc7c73);" data-darkreader-inline-fill=""/><path fill-rule="nonzero" fill-opacity="1" d="M 143.042969 33.378906 C 144.515625 35.421875 145.988281 37.460938 147.460938 39.5 C 147.460938 39.5 147.464844 39.5 147.464844 39.496094 C 147.746094 38.15625 148 36.820312 148.226562 35.484375 C 149.5625 35.601562 150.914062 35.691406 152.277344 35.75 C 152.277344 35.75 152.277344 35.75 152.28125 35.75 C 150.695312 33.796875 149.109375 31.847656 147.523438 29.894531 C 146.058594 31.101562 144.5625 32.265625 143.042969 33.378906 Z M 143.042969 33.378906" fill="#ef2b7d" style="--darkreader-inline-fill: var(--darkreader-text-ef2b7d, #dd6488);" data-darkreader-inline-fill=""/><path fill-rule="nonzero" fill-opacity="1" d="M 136.398438 37.851562 C 137.703125 40.003906 139.007812 42.15625 140.316406 44.308594 C 140.703125 43 141.058594 41.6875 141.386719 40.378906 C 142.707031 40.605469 144.039062 40.808594 145.386719 40.984375 C 145.390625 40.984375 145.390625 40.980469 145.390625 40.980469 C 143.964844 38.90625 142.542969 36.832031 141.117188 34.757812 C 139.570312 35.835938 137.996094 36.867188 136.398438 37.851562 Z M 136.398438 37.851562" fill="#8858a4" style="--darkreader-inline-fill: var(--darkreader-text-8858a4, #ac8aa8);" data-darkreader-inline-fill=""/><path fill-rule="nonzero" fill-opacity="1" d="M 129.449219 41.757812 C 130.582031 44.011719 131.710938 46.261719 132.84375 48.511719 C 132.84375 48.511719 132.84375 48.511719 132.847656 48.511719 C 133.328125 47.238281 133.785156 45.960938 134.210938 44.683594 C 135.507812 45.019531 136.816406 45.332031 138.144531 45.617188 C 138.144531 45.617188 138.144531 45.613281 138.144531 45.613281 C 136.890625 43.429688 135.636719 41.25 134.378906 39.0625 C 132.761719 40.011719 131.117188 40.90625 129.449219 41.757812 Z M 129.449219 41.757812" fill="#fab926" style="--darkreader-inline-fill: var(--darkreader-text-fab926, #ffe97e);" data-darkreader-inline-fill=""/><path fill-rule="nonzero" fill-opacity="1" d="M 122.234375 45.082031 C 123.179688 47.417969 124.132812 49.75 125.078125 52.085938 C 125.082031 52.085938 125.082031 52.085938 125.082031 52.085938 C 125.664062 50.855469 126.21875 49.621094 126.742188 48.382812 C 128.003906 48.824219 129.285156 49.242188 130.582031 49.632812 C 130.582031 49.632812 130.582031 49.628906 130.582031 49.628906 C 129.503906 47.351562 128.429688 45.074219 127.351562 42.796875 C 125.664062 43.609375 123.957031 44.371094 122.234375 45.082031 Z M 122.234375 45.082031" fill="#e87130" style="--darkreader-inline-fill: var(--darkreader-text-e87130, #efa26c);" data-darkreader-inline-fill=""/><path fill-rule="nonzero" fill-opacity="1" d="M 114.78125 47.8125 C 115.542969 50.214844 116.304688 52.621094 117.0625 55.023438 C 117.066406 55.023438 117.066406 55.023438 117.066406 55.023438 C 117.746094 53.84375 118.394531 52.65625 119.015625 51.46875 C 120.238281 52.007812 121.476562 52.527344 122.738281 53.023438 C 122.738281 53.023438 122.738281 53.019531 122.738281 53.019531 C 121.847656 50.664062 120.953125 48.304688 120.058594 45.949219 C 118.316406 46.621094 116.558594 47.242188 114.78125 47.8125 Z M 114.78125 47.8125" fill="#30a5bb" style="--darkreader-inline-fill: var(--darkreader-text-30a5bb, #9fd9d4);" data-darkreader-inline-fill=""/><path fill-rule="nonzero" fill-opacity="1" d="M 107.132812 49.933594 C 107.703125 52.394531 108.269531 54.851562 108.835938 57.308594 C 108.839844 57.308594 108.839844 57.308594 108.839844 57.304688 C 109.609375 56.183594 110.355469 55.054688 111.066406 53.917969 C 112.242188 54.554688 113.4375 55.167969 114.65625 55.765625 C 113.953125 53.34375 113.25 50.921875 112.542969 48.5 C 110.757812 49.03125 108.953125 49.507812 107.132812 49.933594 Z M 107.132812 49.933594" fill="#339947" style="--darkreader-inline-fill: var(--darkreader-text-339947, #b5e8a5);" data-darkreader-inline-fill=""/><path fill-rule="nonzero" fill-opacity="1" d="M 99.328125 51.441406 C 99.699219 53.933594 100.070312 56.429688 100.441406 58.925781 C 100.441406 58.925781 100.445312 58.925781 100.445312 58.925781 C 101.304688 57.867188 102.136719 56.800781 102.9375 55.726562 C 104.0625 56.453125 105.207031 57.164062 106.375 57.855469 C 106.375 57.855469 106.375 57.855469 106.378906 57.855469 C 105.867188 55.382812 105.359375 52.914062 104.847656 50.445312 C 103.019531 50.828125 101.179688 51.160156 99.328125 51.441406 Z M 99.328125 51.441406" fill="#2e3192" style="--darkreader-inline-fill: var(--darkreader-text-2e3192, #b7c2d3);" data-darkreader-inline-fill=""/><path fill-rule="nonzero" fill-opacity="1" d="M 91.398438 52.3125 C 91.570312 54.828125 91.742188 57.34375 91.910156 59.863281 C 91.914062 59.863281 91.914062 59.863281 91.914062 59.863281 C 92.859375 58.878906 93.777344 57.882812 94.667969 56.875 C 95.734375 57.691406 96.824219 58.492188 97.933594 59.273438 C 97.9375 59.273438 97.9375 59.273438 97.9375 59.273438 C 97.625 56.769531 97.3125 54.265625 97 51.761719 C 95.140625 52 93.273438 52.179688 91.398438 52.3125 Z M 91.398438 52.3125" fill="#ff0000" style="--darkreader-inline-fill: var(--darkreader-text-ff0000, #d13c33);" data-darkreader-inline-fill=""/><path fill-rule="nonzero" fill-opacity="1" d="M 83.378906 52.535156 C 83.351562 55.058594 83.316406 57.582031 83.289062 60.105469 C 83.289062 60.105469 83.289062 60.105469 83.292969 60.105469 C 84.316406 59.203125 85.320312 58.28125 86.292969 57.351562 C 87.292969 58.25 88.320312 59.136719 89.375 60.007812 C 89.265625 57.488281 89.152344 54.964844 89.042969 52.445312 C 87.160156 52.53125 85.273438 52.5625 83.378906 52.535156 Z M 83.378906 52.535156" fill="#e87130" style="--darkreader-inline-fill: var(--darkreader-text-e87130, #efa26c);" data-darkreader-inline-fill=""/><path fill-rule="nonzero" fill-opacity="1" d="M 117.507812 47.136719 C 123.527344 45.011719 129.371094 42.289062 134.875 39.042969 C 140.425781 35.765625 145.691406 31.925781 150.511719 27.628906 L 150.34375 27.433594 C 130.804688 44.839844 105.699219 54.109375 79.65625 52.792969 L 79.640625 53.054688 C 86.070312 53.378906 92.558594 52.667969 98.925781 51.734375 C 105.238281 50.808594 111.488281 49.261719 117.507812 47.136719 Z M 117.507812 47.136719" fill="#333333" style="--darkreader-inline-fill: var(--darkreader-background-333333, #282825);" data-darkreader-inline-fill=""/><g clip-path="url(#becdcebe22)"><path fill-rule="nonzero" fill-opacity="1" d="M 150.097656 27.828125 C 150.273438 28.03125 150.589844 28.042969 150.800781 27.855469 C 151.015625 27.667969 151.039062 27.347656 150.859375 27.148438 C 150.679688 26.945312 150.363281 26.933594 150.15625 27.121094 C 149.945312 27.304688 149.917969 27.621094 150.097656 27.828125 Z M 150.097656 27.828125" fill="#e34e54" style="--darkreader-inline-fill: var(--darkreader-text-e34e54, #dc7c73);" data-darkreader-inline-fill=""/></g><path fill-rule="nonzero" fill-opacity="1" d="M 89.027344 43.828125 C 87.40625 46.253906 85.789062 48.683594 84.167969 51.113281 C 84.167969 51.113281 84.167969 51.113281 84.164062 51.113281 C 83.78125 49.570312 83.425781 48.03125 83.105469 46.492188 C 81.5625 46.6875 80 46.847656 78.421875 46.976562 C 78.421875 46.976562 78.421875 46.976562 78.417969 46.972656 C 80.175781 44.640625 81.929688 42.308594 83.683594 39.976562 C 85.433594 41.316406 87.214844 42.597656 89.027344 43.828125 Z M 89.027344 43.828125" fill="#ef2b7d" style="--darkreader-inline-fill: var(--darkreader-text-ef2b7d, #dd6488);" data-darkreader-inline-fill=""/><path fill-rule="nonzero" fill-opacity="1" d="M 96.921875 48.71875 C 95.5 51.273438 94.078125 53.824219 92.660156 56.378906 C 92.660156 56.375 92.65625 56.375 92.65625 56.375 C 92.152344 54.871094 91.683594 53.371094 91.25 51.867188 C 89.726562 52.1875 88.191406 52.480469 86.636719 52.742188 C 86.632812 52.742188 86.632812 52.742188 86.632812 52.742188 C 88.195312 50.273438 89.757812 47.804688 91.320312 45.339844 C 93.15625 46.519531 95.027344 47.648438 96.921875 48.71875 Z M 96.921875 48.71875" fill="#8858a4" style="--darkreader-inline-fill: var(--darkreader-text-8858a4, #ac8aa8);" data-darkreader-inline-fill=""/><path fill-rule="nonzero" fill-opacity="1" d="M 105.144531 52.941406 C 103.929688 55.601562 102.71875 58.261719 101.503906 60.917969 C 101.503906 60.917969 101.503906 60.917969 101.5 60.917969 C 100.886719 59.460938 100.300781 58.003906 99.75 56.542969 C 98.265625 56.988281 96.761719 57.40625 95.234375 57.792969 C 96.59375 55.207031 97.953125 52.621094 99.3125 50.035156 C 101.230469 51.058594 103.175781 52.03125 105.144531 52.941406 Z M 105.144531 52.941406" fill="#fab926" style="--darkreader-inline-fill: var(--darkreader-text-fab926, #ffe97e);" data-darkreader-inline-fill=""/><path fill-rule="nonzero" fill-opacity="1" d="M 113.65625 56.476562 C 112.65625 59.226562 111.65625 61.972656 110.660156 64.722656 C 110.65625 64.722656 110.65625 64.722656 110.65625 64.722656 C 109.925781 63.320312 109.230469 61.914062 108.570312 60.503906 C 107.128906 61.070312 105.664062 61.609375 104.175781 62.117188 C 105.324219 59.429688 106.476562 56.742188 107.625 54.054688 C 109.613281 54.921875 111.625 55.730469 113.65625 56.476562 Z M 113.65625 56.476562" fill="#e87130" style="--darkreader-inline-fill: var(--darkreader-text-e87130, #efa26c);" data-darkreader-inline-fill=""/><path fill-rule="nonzero" fill-opacity="1" d="M 122.410156 59.316406 C 121.632812 62.136719 120.855469 64.957031 120.078125 67.777344 C 120.074219 67.777344 120.074219 67.773438 120.074219 67.773438 C 119.238281 66.4375 118.433594 65.09375 117.664062 63.738281 C 116.269531 64.417969 114.855469 65.074219 113.414062 65.703125 C 113.414062 65.703125 113.410156 65.703125 113.410156 65.703125 C 114.347656 62.929688 115.28125 60.160156 116.214844 57.390625 C 118.261719 58.089844 120.328125 58.730469 122.410156 59.316406 Z M 122.410156 59.316406" fill="#30a5bb" style="--darkreader-inline-fill: var(--darkreader-text-30a5bb, #9fd9d4);" data-darkreader-inline-fill=""/><path fill-rule="nonzero" fill-opacity="1" d="M 131.367188 61.441406 C 130.816406 64.316406 130.265625 67.1875 129.710938 70.0625 C 129.710938 70.0625 129.710938 70.0625 129.707031 70.058594 C 128.765625 68.792969 127.859375 67.515625 126.980469 66.230469 C 125.648438 67.019531 124.285156 67.785156 122.902344 68.527344 C 122.898438 68.527344 122.898438 68.527344 122.898438 68.527344 C 123.609375 65.691406 124.320312 62.851562 125.03125 60.015625 C 127.128906 60.550781 129.242188 61.027344 131.367188 61.441406 Z M 131.367188 61.441406" fill="#339947" style="--darkreader-inline-fill: var(--darkreader-text-339947, #b5e8a5);" data-darkreader-inline-fill=""/><path fill-rule="nonzero" fill-opacity="1" d="M 140.484375 62.84375 C 140.160156 65.75 139.839844 68.660156 139.515625 71.570312 C 139.515625 71.570312 139.515625 71.570312 139.511719 71.570312 C 138.472656 70.382812 137.460938 69.179688 136.484375 67.96875 C 135.210938 68.863281 133.914062 69.738281 132.589844 70.589844 C 132.589844 70.589844 132.585938 70.589844 132.585938 70.589844 C 133.070312 67.703125 133.554688 64.816406 134.039062 61.933594 C 136.175781 62.296875 138.324219 62.597656 140.484375 62.84375 Z M 140.484375 62.84375" fill="#2e3192" style="--darkreader-inline-fill: var(--darkreader-text-2e3192, #b7c2d3);" data-darkreader-inline-fill=""/><g clip-path="url(#9718d26aee)"><path fill-rule="nonzero" fill-opacity="1" d="M 149.714844 63.503906 C 149.625 66.429688 149.535156 69.355469 149.445312 72.28125 C 149.445312 72.28125 149.441406 72.28125 149.441406 72.28125 C 148.300781 71.179688 147.195312 70.066406 146.121094 68.9375 C 144.921875 69.929688 143.691406 70.90625 142.4375 71.863281 C 142.433594 71.863281 142.433594 71.863281 142.433594 71.863281 C 142.683594 68.945312 142.941406 66.03125 143.191406 63.113281 C 145.359375 63.308594 147.535156 63.4375 149.714844 63.503906 Z M 149.714844 63.503906" fill="#ff0000" style="--darkreader-inline-fill: var(--darkreader-text-ff0000, #d13c33);" data-darkreader-inline-fill=""/></g><g clip-path="url(#c4f01646ec)"><path fill-rule="nonzero" fill-opacity="1" d="M 159.015625 63.414062 C 159.164062 66.339844 159.308594 69.261719 159.453125 72.183594 C 159.449219 72.183594 159.449219 72.183594 159.449219 72.183594 C 158.21875 71.179688 157.019531 70.160156 155.851562 69.125 C 154.726562 70.210938 153.574219 71.28125 152.390625 72.335938 C 152.390625 72.335938 152.390625 72.335938 152.386719 72.335938 C 152.410156 69.410156 152.429688 66.484375 152.449219 63.558594 C 154.636719 63.570312 156.824219 63.523438 159.015625 63.414062 Z M 159.015625 63.414062" fill="#30a5bb" style="--darkreader-inline-fill: var(--darkreader-text-30a5bb, #9fd9d4);" data-darkreader-inline-fill=""/></g><path fill-rule="nonzero" fill-opacity="1" d="M 119.21875 58.652344 C 112.152344 56.453125 105.261719 53.550781 98.742188 50.03125 C 92.160156 46.476562 85.894531 42.257812 80.117188 37.488281 L 80.308594 37.253906 C 103.710938 56.574219 133.195312 65.746094 163.332031 63.082031 L 163.359375 63.382812 C 155.917969 64.039062 148.382812 63.964844 140.960938 63.164062 C 133.605469 62.371094 126.289062 60.851562 119.21875 58.652344 Z M 119.21875 58.652344" fill="#333333" style="--darkreader-inline-fill: var(--darkreader-background-333333, #282825);" data-darkreader-inline-fill=""/><path fill-rule="nonzero" fill-opacity="1" d="M 80.609375 37.699219 C 80.414062 37.941406 80.046875 37.972656 79.792969 37.761719 C 79.539062 37.554688 79.496094 37.183594 79.695312 36.941406 C 79.894531 36.699219 80.261719 36.671875 80.511719 36.878906 C 80.761719 37.085938 80.808594 37.453125 80.609375 37.699219 Z M 80.609375 37.699219" fill="#e34e54" style="--darkreader-inline-fill: var(--darkreader-text-e34e54, #dc7c73);" data-darkreader-inline-fill=""/><g clip-path="url(#ed457156bd)"><path fill-rule="nonzero" fill-opacity="1" d="M 164.007812 63.171875 C 164.039062 63.484375 163.796875 63.765625 163.46875 63.792969 C 163.144531 63.824219 162.855469 63.589844 162.832031 63.277344 C 162.804688 62.960938 163.046875 62.683594 163.371094 62.65625 C 163.695312 62.628906 163.980469 62.855469 164.007812 63.171875 Z M 164.007812 63.171875" fill="#e34e54" style="--darkreader-inline-fill: var(--darkreader-text-e34e54, #dc7c73);" data-darkreader-inline-fill=""/></g><g clip-path="url(#a5c8140ab2)"><path fill-rule="nonzero" fill-opacity="1" d="M 11.554688 63.878906 C 11.566406 66.808594 11.582031 69.734375 11.59375 72.660156 C 11.59375 72.660156 11.589844 72.660156 11.589844 72.660156 C 10.410156 71.601562 9.261719 70.53125 8.140625 69.4375 C 6.96875 70.472656 5.765625 71.492188 4.535156 72.492188 C 4.535156 72.492188 4.53125 72.492188 4.53125 72.492188 C 4.683594 69.566406 4.835938 66.644531 4.988281 63.722656 C 7.179688 63.835938 9.371094 63.890625 11.554688 63.878906 Z M 11.554688 63.878906" fill="#ef2b7d" style="--darkreader-inline-fill: var(--darkreader-text-ef2b7d, #dd6488);" data-darkreader-inline-fill=""/></g><g clip-path="url(#0d95fcbcb5)"><path fill-rule="nonzero" fill-opacity="1" d="M 20.8125 63.460938 C 21.058594 66.378906 21.304688 69.292969 21.554688 72.210938 C 21.550781 72.210938 21.550781 72.210938 21.550781 72.210938 C 20.296875 71.25 19.070312 70.273438 17.871094 69.277344 C 16.792969 70.402344 15.683594 71.515625 14.542969 72.613281 C 14.542969 72.613281 14.539062 72.613281 14.539062 72.613281 C 14.457031 69.683594 14.375 66.761719 14.289062 63.835938 C 16.472656 63.769531 18.644531 63.644531 20.8125 63.460938 Z M 20.8125 63.460938" fill="#8858a4" style="--darkreader-inline-fill: var(--darkreader-text-8858a4, #ac8aa8);" data-darkreader-inline-fill=""/></g><path fill-rule="nonzero" fill-opacity="1" d="M 29.96875 62.296875 C 30.445312 65.183594 30.925781 68.070312 31.402344 70.960938 C 31.402344 70.960938 31.398438 70.960938 31.398438 70.960938 C 30.078125 70.105469 28.78125 69.226562 27.515625 68.332031 C 26.535156 69.542969 25.519531 70.738281 24.476562 71.921875 C 24.472656 71.921875 24.472656 71.921875 24.472656 71.921875 C 24.15625 69.011719 23.839844 66.105469 23.527344 63.195312 C 25.683594 62.957031 27.832031 62.65625 29.96875 62.296875 Z M 29.96875 62.296875" fill="#fab926" style="--darkreader-inline-fill: var(--darkreader-text-fab926, #ffe97e);" data-darkreader-inline-fill=""/><path fill-rule="nonzero" fill-opacity="1" d="M 38.980469 60.40625 C 39.6875 63.246094 40.390625 66.085938 41.097656 68.925781 C 41.09375 68.925781 41.09375 68.925781 41.09375 68.925781 C 39.710938 68.179688 38.351562 67.40625 37.019531 66.617188 C 36.140625 67.898438 35.226562 69.175781 34.285156 70.4375 C 34.28125 70.4375 34.28125 70.4375 34.28125 70.4375 C 33.734375 67.5625 33.1875 64.6875 32.644531 61.816406 C 34.769531 61.40625 36.882812 60.9375 38.980469 60.40625 Z M 38.980469 60.40625" fill="#e87130" style="--darkreader-inline-fill: var(--darkreader-text-e87130, #efa26c);" data-darkreader-inline-fill=""/><path fill-rule="nonzero" fill-opacity="1" d="M 47.804688 57.796875 C 48.734375 60.570312 49.660156 63.347656 50.589844 66.121094 C 50.585938 66.121094 50.585938 66.121094 50.585938 66.121094 C 49.148438 65.488281 47.734375 64.828125 46.339844 64.144531 C 45.566406 65.496094 44.761719 66.839844 43.921875 68.175781 C 43.921875 68.175781 43.917969 68.175781 43.917969 68.175781 C 43.144531 65.355469 42.375 62.53125 41.601562 59.710938 C 43.6875 59.132812 45.757812 58.496094 47.804688 57.796875 Z M 47.804688 57.796875" fill="#30a5bb" style="--darkreader-inline-fill: var(--darkreader-text-30a5bb, #9fd9d4);" data-darkreader-inline-fill=""/><path fill-rule="nonzero" fill-opacity="1" d="M 56.402344 54.488281 C 57.546875 57.179688 58.6875 59.867188 59.832031 62.558594 C 59.832031 62.558594 59.832031 62.558594 59.828125 62.558594 C 58.34375 62.046875 56.882812 61.503906 55.441406 60.933594 C 54.773438 62.34375 54.078125 63.746094 53.34375 65.144531 C 53.34375 65.144531 53.34375 65.148438 53.34375 65.148438 C 52.351562 62.398438 51.359375 59.644531 50.367188 56.894531 C 52.398438 56.152344 54.410156 55.347656 56.402344 54.488281 Z M 56.402344 54.488281" fill="#339947" style="--darkreader-inline-fill: var(--darkreader-text-339947, #b5e8a5);" data-darkreader-inline-fill=""/><path fill-rule="nonzero" fill-opacity="1" d="M 64.722656 50.488281 C 66.078125 53.074219 67.433594 55.664062 68.785156 58.253906 C 68.785156 58.253906 68.785156 58.253906 68.78125 58.257812 C 67.257812 57.863281 65.753906 57.445312 64.269531 56.992188 C 63.71875 58.453125 63.128906 59.910156 62.507812 61.363281 C 62.507812 61.363281 62.507812 61.367188 62.507812 61.367188 C 61.300781 58.703125 60.09375 56.042969 58.886719 53.378906 C 60.855469 52.472656 62.804688 51.507812 64.722656 50.488281 Z M 64.722656 50.488281" fill="#2e3192" style="--darkreader-inline-fill: var(--darkreader-text-2e3192, #b7c2d3);" data-darkreader-inline-fill=""/><path fill-rule="nonzero" fill-opacity="1" d="M 72.730469 45.808594 C 74.285156 48.28125 75.84375 50.75 77.398438 53.222656 C 77.398438 53.226562 77.394531 53.226562 77.394531 53.226562 C 75.839844 52.960938 74.304688 52.664062 72.785156 52.339844 C 72.34375 53.839844 71.871094 55.34375 71.363281 56.847656 C 69.949219 54.289062 68.535156 51.734375 67.117188 49.175781 C 69.019531 48.109375 70.890625 46.988281 72.730469 45.808594 Z M 72.730469 45.808594" fill="#ff0000" style="--darkreader-inline-fill: var(--darkreader-text-ff0000, #d13c33);" data-darkreader-inline-fill=""/><path fill-rule="nonzero" fill-opacity="1" d="M 80.378906 40.46875 C 82.128906 42.804688 83.875 45.140625 85.625 47.476562 C 85.625 47.480469 85.621094 47.480469 85.621094 47.480469 C 84.042969 47.347656 82.484375 47.183594 80.9375 46.984375 C 80.613281 48.519531 80.257812 50.058594 79.871094 51.601562 C 79.867188 51.601562 79.867188 51.601562 79.867188 51.601562 C 78.253906 49.167969 76.640625 46.734375 75.027344 44.300781 C 76.839844 43.078125 78.625 41.800781 80.378906 40.46875 Z M 80.378906 40.46875" fill="#30a5bb" style="--darkreader-inline-fill: var(--darkreader-text-30a5bb, #9fd9d4);" data-darkreader-inline-fill=""/><path fill-rule="nonzero" fill-opacity="1" d="M 44.796875 59.054688 C 37.722656 61.238281 30.402344 62.738281 23.046875 63.515625 C 15.621094 64.300781 8.085938 64.355469 0.648438 63.679688 L 0.675781 63.378906 C 30.804688 66.117188 60.3125 57.015625 83.761719 37.753906 L 83.949219 37.984375 C 78.160156 42.742188 71.886719 46.949219 65.296875 50.484375 C 58.769531 53.988281 51.871094 56.875 44.796875 59.054688 Z M 44.796875 59.054688" fill="#333333" style="--darkreader-inline-fill: var(--darkreader-background-333333, #282825);" data-darkreader-inline-fill=""/><path fill-rule="nonzero" fill-opacity="1" d="M 1.175781 63.574219 C 1.148438 63.886719 0.859375 64.117188 0.535156 64.089844 C 0.207031 64.058594 -0.0351562 63.777344 -0.00390625 63.464844 C 0.0273438 63.152344 0.316406 62.921875 0.636719 62.953125 C 0.960938 62.980469 1.203125 63.257812 1.175781 63.574219 Z M 1.175781 63.574219" fill="#e34e54" style="--darkreader-inline-fill: var(--darkreader-text-e34e54, #dc7c73);" data-darkreader-inline-fill=""/><path fill-rule="nonzero" fill-opacity="1" d="M 84.371094 37.441406 C 84.570312 37.683594 84.527344 38.054688 84.273438 38.261719 C 84.019531 38.472656 83.652344 38.441406 83.457031 38.195312 C 83.261719 37.949219 83.304688 37.582031 83.558594 37.378906 C 83.808594 37.171875 84.175781 37.199219 84.371094 37.441406 Z M 84.371094 37.441406" fill="#e34e54" style="--darkreader-inline-fill: var(--darkreader-text-e34e54, #dc7c73);" data-darkreader-inline-fill=""/></svg>