<svg width="32" height="32" viewBox="0 0 32 32" xmlns="http://www.w3.org/2000/svg">
  <rect width="32" height="32" rx="7" fill="#2563eb"/>
  <g transform="translate(3, 0) scale(0.54)">
    <circle cx="23.5" cy="28.5" r="23.5" fill="white"/>
    <path d="M22.984 46.648C22.096 46.648 21.304 46.408 20.608 45.928C19.912 45.424 19.36 44.8 18.952 44.056C18.568 43.312 18.376 42.58 18.376 41.86C18.376 41.332 18.664 40.636 19.24 39.772C19.816 38.884 20.596 37.888 21.58 36.784C22.564 35.656 23.668 34.468 24.892 33.22C26.14 31.972 27.436 30.724 28.78 29.476C30.076 28.228 31.372 27.04 32.668 25.912C33.964 24.76 35.164 23.704 36.268 22.744C37.396 21.784 38.356 20.968 39.148 20.296C37.756 20.536 36.376 20.812 35.008 21.124C33.64 21.436 32.368 21.736 31.192 22.024C30.016 22.288 29.008 22.516 28.168 22.708C27.328 22.876 26.74 22.96 26.404 22.96C25.948 22.96 25.576 22.828 25.288 22.564C25 22.3 24.856 21.976 24.856 21.592C24.856 21.328 25.156 21.052 25.756 20.764C26.356 20.452 27.148 20.152 28.132 19.864C29.116 19.552 30.196 19.264 31.372 19C32.548 18.712 33.712 18.46 34.864 18.244C36.04 18.028 37.108 17.86 38.068 17.74C39.052 17.62 39.82 17.56 40.372 17.56C41.068 17.56 41.68 17.824 42.208 18.352C42.736 18.856 43 19.432 43 20.08C43 20.224 42.652 20.656 41.956 21.376C41.26 22.072 40.324 22.972 39.148 24.076C37.996 25.156 36.712 26.368 35.296 27.712C33.88 29.056 32.44 30.436 30.976 31.852C29.704 33.076 28.456 34.288 27.232 35.488C26.032 36.664 24.952 37.756 23.992 38.764C23.032 39.748 22.264 40.612 21.688 41.356C21.136 42.076 20.86 42.604 20.86 42.94C20.86 43.156 20.944 43.324 21.112 43.444C21.304 43.54 21.532 43.588 21.796 43.588C22.18 43.588 22.816 43.528 23.704 43.408C24.616 43.264 25.672 43.096 26.872 42.904C28.072 42.688 29.32 42.472 30.616 42.256C31.912 42.04 33.136 41.836 34.288 41.644C35.464 41.428 36.46 41.26 37.276 41.14C38.092 40.996 38.62 40.924 38.86 40.924C39.772 40.924 40.228 41.272 40.228 41.968C40.228 42.376 39.916 42.772 39.292 43.156C38.668 43.54 37.828 43.912 36.772 44.272C35.74 44.608 34.588 44.92 33.316 45.208C32.068 45.496 30.796 45.748 29.5 45.964C28.204 46.18 26.98 46.348 25.828 46.468C24.7 46.588 23.752 46.648 22.984 46.648Z" fill="#2563EB"/>
    <path d="M7.416 38.072C6.912 38.072 6.48 37.772 6.12 37.172C5.76 36.572 5.58 35.372 5.58 33.572C5.58 31.916 5.7 29.84 5.94 27.344C6.204 24.824 6.588 22.04 7.092 18.992C7.356 17.6 7.848 16.448 8.568 15.536C9.312 14.624 10.272 13.856 11.448 13.232C12.648 12.608 14.052 12.056 15.66 11.576C17.268 11.096 18.924 10.664 20.628 10.28C22.356 9.872 23.976 9.548 25.488 9.308C27.024 9.044 28.284 8.912 29.268 8.912C29.964 8.912 30.492 9.056 30.852 9.344C31.212 9.632 31.392 9.932 31.392 10.244C31.392 10.532 31.308 10.784 31.14 11C30.996 11.192 30.708 11.348 30.276 11.468C29.964 11.564 29.304 11.732 28.296 11.972C27.312 12.188 26.1 12.452 24.66 12.764C23.244 13.076 21.744 13.412 20.16 13.772C18.576 14.108 17.04 14.456 15.552 14.816C13.848 15.296 12.612 15.908 11.844 16.652C11.1 17.372 10.608 18.392 10.368 19.712C10.32 20.048 10.248 20.54 10.152 21.188C10.824 20.924 11.664 20.636 12.672 20.324C13.68 20.012 14.712 19.712 15.768 19.424C16.824 19.136 17.796 18.908 18.684 18.74C19.572 18.548 20.232 18.452 20.664 18.452C20.976 18.452 21.3 18.644 21.636 19.028C21.996 19.412 22.176 19.808 22.176 20.216C22.176 20.408 22.116 20.6 21.996 20.792C21.876 20.96 21.672 21.092 21.384 21.188C21.216 21.236 20.796 21.356 20.124 21.548C19.476 21.716 18.684 21.932 17.748 22.196C16.836 22.46 15.876 22.748 14.868 23.06C13.86 23.348 12.9 23.624 11.988 23.888C11.1 24.152 10.356 24.38 9.756 24.572C9.636 25.724 9.504 26.924 9.36 28.172C9.216 29.42 9.084 30.608 8.964 31.736C8.868 32.84 8.784 33.788 8.712 34.58C8.64 35.348 8.604 35.84 8.604 36.056C8.604 37.4 8.208 38.072 7.416 38.072Z" fill="#2563EB"/>
  </g>
</svg>
