<svg xmlns="http://www.w3.org/2000/svg" xmlns:xlink="http://www.w3.org/1999/xlink" width="232" zoomAndPan="magnify" viewBox="0 0 174 153.750002" height="205" preserveAspectRatio="xMidYMid meet" version="1.0"><defs><clipPath id="ec688e58eb"><path d="M 0.140625 54 L 173.109375 54 L 173.109375 86 L 0.140625 86 Z M 0.140625 54 " clip-rule="nonzero"/></clipPath><clipPath id="3e811ae337"><path d="M 45 77 L 95 77 L 95 99.527344 L 45 99.527344 Z M 45 77 " clip-rule="nonzero"/></clipPath><clipPath id="5f2955a0d6"><path d="M 21 69 L 146 69 L 146 99.527344 L 21 99.527344 Z M 21 69 " clip-rule="nonzero"/></clipPath></defs><g clip-path="url(#ec688e58eb)"><path fill="#393f47" d="M 96.421875 85.199219 C 88.40625 85.199219 80.394531 84.476562 72.523438 83.023438 C 57.292969 80.203125 41.035156 75.453125 24.203125 68.898438 C 15.546875 65.527344 7.011719 60.3125 0.171875 54.210938 C 0.132812 54.175781 0.132812 54.121094 0.164062 54.085938 C 0.195312 54.050781 0.25 54.046875 0.285156 54.078125 C 7.113281 60.167969 15.628906 65.371094 24.265625 68.734375 C 41.085938 75.285156 57.335938 80.035156 72.554688 82.851562 C 98.921875 87.726562 126.886719 84.332031 151.300781 73.285156 C 151.515625 73.1875 152.574219 72.664062 153.601562 72.15625 C 154.167969 71.878906 154.734375 71.597656 155.148438 71.394531 C 156.007812 70.972656 163.660156 67.105469 168.433594 64.324219 C 168.851562 64.078125 170.539062 62.992188 171.769531 62.203125 C 172.351562 61.824219 172.8125 61.527344 172.976562 61.425781 C 173.019531 61.402344 173.070312 61.414062 173.097656 61.453125 C 173.121094 61.496094 173.109375 61.550781 173.070312 61.574219 C 172.90625 61.675781 172.445312 61.972656 171.863281 62.347656 C 170.628906 63.140625 168.941406 64.230469 168.519531 64.472656 C 163.742188 67.261719 156.085938 71.128906 155.226562 71.550781 C 154.808594 71.757812 154.246094 72.035156 153.675781 72.316406 C 152.648438 72.820312 151.589844 73.347656 151.371094 73.445312 C 134.214844 81.207031 115.300781 85.199219 96.421875 85.199219 Z M 96.421875 85.199219 " fill-opacity="1" fill-rule="nonzero"/></g><g clip-path="url(#3e811ae337)"><path fill="#bdd848" d="M 49.726562 77.242188 L 59.101562 79.828125 L 55.3125 93.683594 L 51.804688 88.082031 L 45.9375 91.097656 Z M 84.371094 84.367188 L 83.648438 98.71875 L 88.730469 94.5 L 93.359375 99.210938 L 94.082031 84.859375 Z M 84.371094 84.367188 " fill-opacity="1" fill-rule="nonzero"/></g><g clip-path="url(#5f2955a0d6)"><path fill="#fde05e" d="M 26.238281 69.5 L 35.375 72.84375 L 30.480469 86.34375 L 27.433594 80.472656 L 21.34375 83.003906 Z M 141.058594 77.402344 L 131.753906 80.242188 L 135.917969 93.992188 L 139.273438 88.292969 L 145.222656 91.148438 Z M 95.636719 84.945312 L 96.011719 99.308594 L 100.757812 94.714844 L 105.734375 99.054688 L 105.359375 84.6875 Z M 95.636719 84.945312 " fill-opacity="1" fill-rule="nonzero"/></g><path fill="#7bb6db" d="M 15.046875 64.285156 L 23.835938 68.464844 L 17.710938 81.453125 L 15.222656 75.324219 L 8.925781 77.273438 Z M 161.746094 67.960938 L 153.023438 72.277344 L 159.347656 85.167969 L 161.742188 79 L 168.070312 80.847656 Z M 71.496094 97.15625 L 76.9375 93.417969 L 81.125 98.53125 L 83.136719 84.304688 L 73.511719 82.929688 Z M 108.410156 84.5 L 110.207031 98.753906 L 114.472656 93.707031 L 119.855469 97.527344 L 118.058594 83.273438 Z M 108.410156 84.5 " fill-opacity="1" fill-rule="nonzero"/><path fill="#fc6565" d="M 156.710938 86.515625 L 150.53125 84.210938 L 147.699219 90.1875 L 142.316406 76.875 L 151.324219 73.199219 Z M 33.804688 87.355469 L 39.789062 84.585938 L 43.0625 90.332031 L 47.425781 76.648438 L 38.167969 73.667969 Z M 58.222656 94.390625 L 63.945312 91.113281 L 67.703125 96.550781 L 70.863281 82.535156 L 61.378906 80.378906 Z M 120.566406 82.792969 L 123.558594 96.84375 L 127.382812 91.453125 L 133.066406 94.800781 L 130.074219 80.75 Z M 120.566406 82.792969 " fill-opacity="1" fill-rule="nonzero"/></svg>