<svg width="60" height="71" viewBox="0 0 60 71" fill="none" xmlns="http://www.w3.org/2000/svg">
<circle cx="30" cy="36" r="30" fill="white"/>
<path d="M23.312 59.864C22.128 59.864 21.072 59.544 20.144 58.904C19.216 58.232 18.48 57.4 17.936 56.408C17.424 55.416 17.168 54.44 17.168 53.48C17.168 52.776 17.552 51.848 18.32 50.696C19.088 49.512 20.128 48.184 21.44 46.712C22.752 45.208 24.224 43.624 25.856 41.96C27.52 40.296 29.248 38.632 31.04 36.968C32.768 35.304 34.496 33.72 36.224 32.216C37.952 30.68 39.552 29.272 41.024 27.992C42.528 26.712 43.808 25.624 44.864 24.728C43.008 25.048 41.168 25.416 39.344 25.832C37.52 26.248 35.824 26.648 34.256 27.032C32.688 27.384 31.344 27.688 30.224 27.944C29.104 28.168 28.32 28.28 27.872 28.28C27.264 28.28 26.768 28.104 26.384 27.752C26 27.4 25.808 26.968 25.808 26.456C25.808 26.104 26.208 25.736 27.008 25.352C27.808 24.936 28.864 24.536 30.176 24.152C31.488 23.736 32.928 23.352 34.496 23C36.064 22.616 37.616 22.28 39.152 21.992C40.72 21.704 42.144 21.48 43.424 21.32C44.736 21.16 45.76 21.08 46.496 21.08C47.424 21.08 48.24 21.432 48.944 22.136C49.648 22.808 50 23.576 50 24.44C50 24.632 49.536 25.208 48.608 26.168C47.68 27.096 46.432 28.296 44.864 29.768C43.328 31.208 41.616 32.824 39.728 34.616C37.84 36.408 35.92 38.248 33.968 40.136C32.272 41.768 30.608 43.384 28.976 44.984C27.376 46.552 25.936 48.008 24.656 49.352C23.376 50.664 22.352 51.816 21.584 52.808C20.848 53.768 20.48 54.472 20.48 54.92C20.48 55.208 20.592 55.432 20.816 55.592C21.072 55.72 21.376 55.784 21.728 55.784C22.24 55.784 23.088 55.704 24.272 55.544C25.488 55.352 26.896 55.128 28.496 54.872C30.096 54.584 31.76 54.296 33.488 54.008C35.216 53.72 36.848 53.448 38.384 53.192C39.952 52.904 41.28 52.68 42.368 52.52C43.456 52.328 44.16 52.232 44.48 52.232C45.696 52.232 46.304 52.696 46.304 53.624C46.304 54.168 45.888 54.696 45.056 55.208C44.224 55.72 43.104 56.216 41.696 56.696C40.32 57.144 38.784 57.56 37.088 57.944C35.424 58.328 33.728 58.664 32 58.952C30.272 59.24 28.64 59.464 27.104 59.624C25.6 59.784 24.336 59.864 23.312 59.864Z" fill="#2563EB"/>
<path d="M12.888 50.096C12.216 50.096 11.64 49.696 11.16 48.896C10.68 48.096 10.44 46.496 10.44 44.096C10.44 41.888 10.6 39.12 10.92 35.792C11.272 32.432 11.784 28.72 12.456 24.656C12.808 22.8 13.464 21.264 14.424 20.048C15.416 18.832 16.696 17.808 18.264 16.976C19.864 16.144 21.736 15.408 23.88 14.768C26.024 14.128 28.232 13.552 30.504 13.04C32.808 12.496 34.968 12.064 36.984 11.744C39.032 11.392 40.712 11.216 42.024 11.216C42.952 11.216 43.656 11.408 44.136 11.792C44.616 12.176 44.856 12.576 44.856 12.992C44.856 13.376 44.744 13.712 44.52 14C44.328 14.256 43.944 14.464 43.368 14.624C42.952 14.752 42.072 14.976 40.728 15.296C39.416 15.584 37.8 15.936 35.88 16.352C33.992 16.768 31.992 17.216 29.88 17.696C27.768 18.144 25.72 18.608 23.736 19.088C21.464 19.728 19.816 20.544 18.792 21.536C17.8 22.496 17.144 23.856 16.824 25.616C16.76 26.064 16.664 26.72 16.536 27.584C17.432 27.232 18.552 26.848 19.896 26.432C21.24 26.016 22.616 25.616 24.024 25.232C25.432 24.848 26.728 24.544 27.912 24.32C29.096 24.064 29.976 23.936 30.552 23.936C30.968 23.936 31.4 24.192 31.848 24.704C32.328 25.216 32.568 25.744 32.568 26.288C32.568 26.544 32.488 26.8 32.328 27.056C32.168 27.28 31.896 27.456 31.512 27.584C31.288 27.648 30.728 27.808 29.832 28.064C28.968 28.288 27.912 28.576 26.664 28.928C25.448 29.28 24.168 29.664 22.824 30.08C21.48 30.464 20.2 30.832 18.984 31.184C17.8 31.536 16.808 31.84 16.008 32.096C15.848 33.632 15.672 35.232 15.48 36.896C15.288 38.56 15.112 40.144 14.952 41.648C14.824 43.12 14.712 44.384 14.616 45.44C14.52 46.464 14.472 47.12 14.472 47.408C14.472 49.2 13.944 50.096 12.888 50.096Z" fill="#2563EB"/>
</svg>
