<svg xmlns="http://www.w3.org/2000/svg" xmlns:xlink="http://www.w3.org/1999/xlink" width="378" zoomAndPan="magnify" viewBox="0 0 283.5 425.249985" height="567" preserveAspectRatio="xMidYMid meet" version="1.0"><defs><g/><clipPath id="91fa7d970f"><path d="M 0 0 L 283 0 L 283 424.5 L 0 424.5 Z M 0 0 " clip-rule="nonzero"/></clipPath><clipPath id="8b4d954f04"><path d="M 0 0 L 283 0 L 283 424.5 L 0 424.5 Z M 0 0 " clip-rule="nonzero"/></clipPath><clipPath id="cd57fa23de"><path d="M 0 42 L 173 42 L 173 163 L 0 163 Z M 0 42 " clip-rule="nonzero"/></clipPath><clipPath id="102e23caea"><path d="M -122.21875 -76.035156 L 426.390625 -142.257812 L 473.773438 250.246094 L -74.839844 316.46875 Z M -122.21875 -76.035156 " clip-rule="nonzero"/></clipPath><clipPath id="8344131cec"><path d="M -51.238281 5.902344 L 279.566406 -34.03125 L 316.175781 269.269531 L -14.625 309.199219 Z M -51.238281 5.902344 " clip-rule="nonzero"/></clipPath><clipPath id="f4795be8f3"><path d="M -122.1875 -76.082031 L 426.425781 -142.304688 L 473.804688 250.199219 L -74.804688 316.421875 Z M -122.1875 -76.082031 " clip-rule="nonzero"/></clipPath><clipPath id="565685089d"><path d="M 68 54 L 177 54 L 177 265 L 68 265 Z M 68 54 " clip-rule="nonzero"/></clipPath><clipPath id="c100586095"><path d="M -122.21875 -76.035156 L 426.390625 -142.257812 L 473.773438 250.246094 L -74.839844 316.46875 Z M -122.21875 -76.035156 " clip-rule="nonzero"/></clipPath><clipPath id="0abe422f23"><path d="M -51.238281 5.902344 L 279.566406 -34.03125 L 316.175781 269.269531 L -14.625 309.199219 Z M -51.238281 5.902344 " clip-rule="nonzero"/></clipPath><clipPath id="d4fb601794"><path d="M -122.1875 -76.082031 L 426.425781 -142.304688 L 473.804688 250.199219 L -74.804688 316.421875 Z M -122.1875 -76.082031 " clip-rule="nonzero"/></clipPath><clipPath id="4ac04d7bf1"><path d="M 0 0 L 191 0 L 191 47 L 0 47 Z M 0 0 " clip-rule="nonzero"/></clipPath><clipPath id="340212d369"><path d="M -122.21875 -76.035156 L 426.390625 -142.257812 L 473.773438 250.246094 L -74.839844 316.46875 Z M -122.21875 -76.035156 " clip-rule="nonzero"/></clipPath><clipPath id="7fad1968d6"><path d="M -51.238281 5.902344 L 279.566406 -34.03125 L 316.175781 269.269531 L -14.625 309.199219 Z M -51.238281 5.902344 " clip-rule="nonzero"/></clipPath><clipPath id="c0bd5eeeb3"><path d="M -122.1875 -76.082031 L 426.425781 -142.304688 L 473.804688 250.199219 L -74.804688 316.421875 Z M -122.1875 -76.082031 " clip-rule="nonzero"/></clipPath><clipPath id="8ab5576fd7"><path d="M 21 21 L 185 21 L 185 58 L 21 58 Z M 21 21 " clip-rule="nonzero"/></clipPath><clipPath id="45a83a9ed5"><path d="M -122.21875 -76.035156 L 426.390625 -142.257812 L 473.773438 250.246094 L -74.839844 316.46875 Z M -122.21875 -76.035156 " clip-rule="nonzero"/></clipPath><clipPath id="f237d04fab"><path d="M -51.238281 5.902344 L 279.566406 -34.03125 L 316.175781 269.269531 L -14.625 309.199219 Z M -51.238281 5.902344 " clip-rule="nonzero"/></clipPath><clipPath id="fdc37b94dc"><path d="M -122.1875 -76.082031 L 426.425781 -142.304688 L 473.804688 250.199219 L -74.804688 316.421875 Z M -122.1875 -76.082031 " clip-rule="nonzero"/></clipPath><clipPath id="791c796a99"><path d="M 36 0 L 202 0 L 202 9 L 36 9 Z M 36 0 " clip-rule="nonzero"/></clipPath><clipPath id="ab2235d0cd"><path d="M -122.21875 -76.035156 L 426.390625 -142.257812 L 473.773438 250.246094 L -74.839844 316.46875 Z M -122.21875 -76.035156 " clip-rule="nonzero"/></clipPath><clipPath id="be6a275edb"><path d="M -51.238281 5.902344 L 279.566406 -34.03125 L 316.175781 269.269531 L -14.625 309.199219 Z M -51.238281 5.902344 " clip-rule="nonzero"/></clipPath><clipPath id="16ea2b59d2"><path d="M -122.1875 -76.082031 L 426.425781 -142.304688 L 473.804688 250.199219 L -74.804688 316.421875 Z M -122.1875 -76.082031 " clip-rule="nonzero"/></clipPath><clipPath id="66e744c90f"><path d="M 176 56 L 217 56 L 217 212 L 176 212 Z M 176 56 " clip-rule="nonzero"/></clipPath><clipPath id="41de9e682c"><path d="M -122.21875 -76.035156 L 426.390625 -142.257812 L 473.773438 250.246094 L -74.839844 316.46875 Z M -122.21875 -76.035156 " clip-rule="nonzero"/></clipPath><clipPath id="10e16f3810"><path d="M -51.238281 5.902344 L 279.566406 -34.03125 L 316.175781 269.269531 L -14.625 309.199219 Z M -51.238281 5.902344 " clip-rule="nonzero"/></clipPath><clipPath id="434df27e41"><path d="M -122.1875 -76.082031 L 426.425781 -142.304688 L 473.804688 250.199219 L -74.804688 316.421875 Z M -122.1875 -76.082031 " clip-rule="nonzero"/></clipPath><clipPath id="5627c61a99"><path d="M 217 57 L 283 57 L 283 272 L 217 272 Z M 217 57 " clip-rule="nonzero"/></clipPath><clipPath id="4743608cfe"><path d="M -122.21875 -76.035156 L 426.390625 -142.257812 L 473.773438 250.246094 L -74.839844 316.46875 Z M -122.21875 -76.035156 " clip-rule="nonzero"/></clipPath><clipPath id="61f7a43e02"><path d="M -51.238281 5.902344 L 279.566406 -34.03125 L 316.175781 269.269531 L -14.625 309.199219 Z M -51.238281 5.902344 " clip-rule="nonzero"/></clipPath><clipPath id="98172987e5"><path d="M -122.1875 -76.082031 L 426.425781 -142.304688 L 473.804688 250.199219 L -74.804688 316.421875 Z M -122.1875 -76.082031 " clip-rule="nonzero"/></clipPath><clipPath id="f5486db82d"><path d="M 224 46 L 283 46 L 283 90 L 224 90 Z M 224 46 " clip-rule="nonzero"/></clipPath><clipPath id="a0883fe924"><path d="M -122.21875 -76.035156 L 426.390625 -142.257812 L 473.773438 250.246094 L -74.839844 316.46875 Z M -122.21875 -76.035156 " clip-rule="nonzero"/></clipPath><clipPath id="2ada7f29f3"><path d="M -51.238281 5.902344 L 279.566406 -34.03125 L 316.175781 269.269531 L -14.625 309.199219 Z M -51.238281 5.902344 " clip-rule="nonzero"/></clipPath><clipPath id="45de8f9726"><path d="M -122.1875 -76.082031 L 426.425781 -142.304688 L 473.804688 250.199219 L -74.804688 316.421875 Z M -122.1875 -76.082031 " clip-rule="nonzero"/></clipPath><clipPath id="f4a3dc5e78"><path d="M 228 0 L 283 0 L 283 31 L 228 31 Z M 228 0 " clip-rule="nonzero"/></clipPath><clipPath id="7c93bd5520"><path d="M -122.21875 -76.035156 L 426.390625 -142.257812 L 473.773438 250.246094 L -74.839844 316.46875 Z M -122.21875 -76.035156 " clip-rule="nonzero"/></clipPath><clipPath id="b9fa7c30ff"><path d="M -51.238281 5.902344 L 279.566406 -34.03125 L 316.175781 269.269531 L -14.625 309.199219 Z M -51.238281 5.902344 " clip-rule="nonzero"/></clipPath><clipPath id="638dbbf96e"><path d="M -122.1875 -76.082031 L 426.425781 -142.304688 L 473.804688 250.199219 L -74.804688 316.421875 Z M -122.1875 -76.082031 " clip-rule="nonzero"/></clipPath><clipPath id="461804631d"><path d="M 221 0 L 283 0 L 283 11 L 221 11 Z M 221 0 " clip-rule="nonzero"/></clipPath><clipPath id="f11838c94a"><path d="M -122.21875 -76.035156 L 426.390625 -142.257812 L 473.773438 250.246094 L -74.839844 316.46875 Z M -122.21875 -76.035156 " clip-rule="nonzero"/></clipPath><clipPath id="d9e32979e4"><path d="M -51.238281 5.902344 L 279.566406 -34.03125 L 316.175781 269.269531 L -14.625 309.199219 Z M -51.238281 5.902344 " clip-rule="nonzero"/></clipPath><clipPath id="706804fc6b"><path d="M -122.1875 -76.082031 L 426.425781 -142.304688 L 473.804688 250.199219 L -74.804688 316.421875 Z M -122.1875 -76.082031 " clip-rule="nonzero"/></clipPath><clipPath id="66f857e1d9"><path d="M 152 0 L 213 0 L 213 3 L 152 3 Z M 152 0 " clip-rule="nonzero"/></clipPath><clipPath id="4e793f12d8"><path d="M -122.21875 -76.035156 L 426.390625 -142.257812 L 473.773438 250.246094 L -74.839844 316.46875 Z M -122.21875 -76.035156 " clip-rule="nonzero"/></clipPath><clipPath id="58439bb069"><path d="M -51.238281 5.902344 L 279.566406 -34.03125 L 316.175781 269.269531 L -14.625 309.199219 Z M -51.238281 5.902344 " clip-rule="nonzero"/></clipPath><clipPath id="1584242caf"><path d="M -122.1875 -76.082031 L 426.425781 -142.304688 L 473.804688 250.199219 L -74.804688 316.421875 Z M -122.1875 -76.082031 " clip-rule="nonzero"/></clipPath><clipPath id="5f1814c16a"><path d="M 186 16 L 222 16 L 222 51 L 186 51 Z M 186 16 " clip-rule="nonzero"/></clipPath><clipPath id="acd3d755cb"><path d="M -122.21875 -76.035156 L 426.390625 -142.257812 L 473.773438 250.246094 L -74.839844 316.46875 Z M -122.21875 -76.035156 " clip-rule="nonzero"/></clipPath><clipPath id="1d22d69638"><path d="M -51.238281 5.902344 L 279.566406 -34.03125 L 316.175781 269.269531 L -14.625 309.199219 Z M -51.238281 5.902344 " clip-rule="nonzero"/></clipPath><clipPath id="2265da8f5e"><path d="M -122.1875 -76.082031 L 426.425781 -142.304688 L 473.804688 250.199219 L -74.804688 316.421875 Z M -122.1875 -76.082031 " clip-rule="nonzero"/></clipPath><clipPath id="6402bcfb30"><path d="M 0 40 L 13 40 L 13 87 L 0 87 Z M 0 40 " clip-rule="nonzero"/></clipPath><clipPath id="485a42d78c"><path d="M -122.21875 -76.035156 L 426.390625 -142.257812 L 473.773438 250.246094 L -74.839844 316.46875 Z M -122.21875 -76.035156 " clip-rule="nonzero"/></clipPath><clipPath id="86f7f41514"><path d="M -51.238281 5.902344 L 279.566406 -34.03125 L 316.175781 269.269531 L -14.625 309.199219 Z M -51.238281 5.902344 " clip-rule="nonzero"/></clipPath><clipPath id="f30168b726"><path d="M -122.1875 -76.082031 L 426.425781 -142.304688 L 473.804688 250.199219 L -74.804688 316.421875 Z M -122.1875 -76.082031 " clip-rule="nonzero"/></clipPath><clipPath id="6614304ece"><path d="M 0 321 L 113 321 L 113 424.5 L 0 424.5 Z M 0 321 " clip-rule="nonzero"/></clipPath><clipPath id="a6d2c796da"><path d="M 0 337 L 115 337 L 115 424.5 L 0 424.5 Z M 0 337 " clip-rule="nonzero"/></clipPath><clipPath id="7fe9e69912"><path d="M 0 233 L 139 233 L 139 294 L 0 294 Z M 0 233 " clip-rule="nonzero"/></clipPath><clipPath id="0e299e521a"><path d="M 0 284 L 130 284 L 130 320 L 0 320 Z M 0 284 " clip-rule="nonzero"/></clipPath><clipPath id="f09e9036f0"><path d="M 0 129.34375 L 153 129.34375 L 153 284 L 0 284 Z M 0 129.34375 " clip-rule="nonzero"/></clipPath><clipPath id="60f06d0786"><path d="M 91 343 L 152 343 L 152 424.5 L 91 424.5 Z M 91 343 " clip-rule="nonzero"/></clipPath><clipPath id="70aad3dbe4"><path d="M 165 347 L 283 347 L 283 424.5 L 165 424.5 Z M 165 347 " clip-rule="nonzero"/></clipPath><clipPath id="174d801816"><path d="M 175 337 L 283 337 L 283 409 L 175 409 Z M 175 337 " clip-rule="nonzero"/></clipPath><clipPath id="4be73a550d"><path d="M 183 244 L 283 244 L 283 315 L 183 315 Z M 183 244 " clip-rule="nonzero"/></clipPath><clipPath id="d91cd0b940"><path d="M 177 170 L 283 170 L 283 290 L 177 290 Z M 177 170 " clip-rule="nonzero"/></clipPath><clipPath id="520eaf4020"><path d="M 13.140625 83.441406 L 269.859375 83.441406 L 269.859375 375.023438 L 13.140625 375.023438 Z M 13.140625 83.441406 " clip-rule="nonzero"/></clipPath><clipPath id="1b84b08579"><path d="M 0.140625 0.441406 L 256.859375 0.441406 L 256.859375 292.023438 L 0.140625 292.023438 Z M 0.140625 0.441406 " clip-rule="nonzero"/></clipPath><clipPath id="d7b7216017"><rect x="0" width="257" y="0" height="293"/></clipPath><clipPath id="f20c40494c"><path d="M 0.234375 3 L 9 3 L 9 11 L 0.234375 11 Z M 0.234375 3 " clip-rule="nonzero"/></clipPath><clipPath id="c6da1c888d"><path d="M 59 3 L 61.804688 3 L 61.804688 9 L 59 9 Z M 59 3 " clip-rule="nonzero"/></clipPath><clipPath id="0312c88ad1"><rect x="0" width="62" y="0" height="13"/></clipPath><clipPath id="3788e9b72d"><rect x="0" width="283" y="0" height="425"/></clipPath></defs><g clip-path="url(#91fa7d970f)"><path fill="#ffffff" d="M 0 0 L 283 0 L 283 424.5 L 0 424.5 Z M 0 0 " fill-opacity="1" fill-rule="nonzero"/><g transform="matrix(1, 0, 0, 1, -0, 0)"><g clip-path="url(#3788e9b72d)"><g clip-path="url(#8b4d954f04)"><path fill="#379d48" d="M 0 0 L 283.035156 0 L 283.035156 424.554688 L 0 424.554688 Z M 0 0 " fill-opacity="1" fill-rule="nonzero"/></g><g clip-path="url(#cd57fa23de)"><g clip-path="url(#102e23caea)"><g clip-path="url(#8344131cec)"><g clip-path="url(#f4795be8f3)"><path fill="#f41740" d="M 172.78125 42.355469 C 172.78125 42.355469 48.535156 58.972656 -2.824219 138.375 L 26.953125 162.046875 C 26.96875 162.167969 42.035156 92.875 172.78125 42.355469 " fill-opacity="1" fill-rule="evenodd"/></g></g></g></g><g clip-path="url(#565685089d)"><g clip-path="url(#c100586095)"><g clip-path="url(#0abe422f23)"><g clip-path="url(#d4fb601794)"><path fill="#695cc6" d="M 176.351562 54.375 C 176.351562 54.375 95.269531 114.707031 68.957031 253.957031 L 104.300781 264.878906 C 107.140625 218.222656 122.769531 147.367188 176.351562 54.375 " fill-opacity="1" fill-rule="evenodd"/></g></g></g></g><g clip-path="url(#4ac04d7bf1)"><g clip-path="url(#340212d369)"><g clip-path="url(#7fad1968d6)"><g clip-path="url(#c0bd5eeeb3)"><path fill="#fc9900" d="M 190.910156 17.011719 C 190.910156 17.011719 4.058594 -18.320312 -94.507812 46.859375 L -110.613281 19.796875 C -110.597656 19.921875 20.6875 -44.730469 190.910156 17.011719 " fill-opacity="1" fill-rule="evenodd"/></g></g></g></g><g clip-path="url(#8ab5576fd7)"><g clip-path="url(#45a83a9ed5)"><g clip-path="url(#f237d04fab)"><g clip-path="url(#fdc37b94dc)"><path fill="#02606a" d="M 184.28125 24.039062 C 184.28125 24.039062 72.445312 13.386719 21.269531 36.496094 L 29.527344 57.410156 C 29.527344 57.410156 65.148438 25.222656 184.28125 24.039062 " fill-opacity="1" fill-rule="evenodd"/></g></g></g></g><g clip-path="url(#791c796a99)"><g clip-path="url(#ab2235d0cd)"><g clip-path="url(#be6a275edb)"><g clip-path="url(#16ea2b59d2)"><path fill="#fa4169" d="M 201.171875 8.054688 C 201.171875 8.054688 102.1875 -67.515625 36.113281 -69.746094 L 51.65625 -96.894531 C 51.53125 -96.882812 131.894531 -73.34375 201.171875 8.054688 " fill-opacity="1" fill-rule="evenodd"/></g></g></g></g><g clip-path="url(#66e744c90f)"><g clip-path="url(#41de9e682c)"><g clip-path="url(#10e16f3810)"><g clip-path="url(#434df27e41)"><path fill="#fa4169" d="M 201.988281 56.136719 C 201.988281 56.136719 206.507812 142.113281 176.128906 207.40625 L 215.796875 211.828125 C 215.78125 211.707031 220.097656 116.320312 201.988281 56.136719 " fill-opacity="1" fill-rule="evenodd"/></g></g></g></g><g clip-path="url(#5627c61a99)"><g clip-path="url(#4743608cfe)"><g clip-path="url(#61f7a43e02)"><g clip-path="url(#98172987e5)"><path fill="#fc9900" d="M 217.5 57.625 C 217.5 57.625 274.917969 140.953125 299.472656 271.070312 L 343.289062 260.304688 C 343.289062 260.304688 279.3125 104.070312 217.5 57.625 " fill-opacity="1" fill-rule="evenodd"/></g></g></g></g><g clip-path="url(#f5486db82d)"><g clip-path="url(#a0883fe924)"><g clip-path="url(#2ada7f29f3)"><g clip-path="url(#45de8f9726)"><path fill="#02606a" d="M 224.734375 48.410156 C 224.734375 48.410156 299.117188 50.261719 356.28125 89.175781 L 370.375 67.554688 C 370.234375 67.449219 302.652344 38.257812 224.734375 48.410156 " fill-opacity="1" fill-rule="evenodd"/></g></g></g></g><g clip-path="url(#f4a3dc5e78)"><g clip-path="url(#7c93bd5520)"><g clip-path="url(#b9fa7c30ff)"><g clip-path="url(#638dbbf96e)"><path fill="#f41740" d="M 228.5 30.027344 C 228.5 30.027344 304.414062 -49.347656 437.628906 -49.496094 L 434.976562 -11.578125 C 434.976562 -11.578125 351.066406 -37.675781 228.5 30.027344 " fill-opacity="1" fill-rule="evenodd"/></g></g></g></g><g clip-path="url(#461804631d)"><g clip-path="url(#f11838c94a)"><g clip-path="url(#d9e32979e4)"><g clip-path="url(#706804fc6b)"><path fill="#695cc6" d="M 221.523438 10.453125 C 221.523438 10.453125 249.5 -69.609375 335.832031 -98.832031 L 340.167969 -76.324219 C 340.167969 -76.324219 284.714844 -68.011719 221.523438 10.453125 " fill-opacity="1" fill-rule="evenodd"/></g></g></g></g><g clip-path="url(#66f857e1d9)"><g clip-path="url(#4e793f12d8)"><g clip-path="url(#58439bb069)"><g clip-path="url(#1584242caf)"><path fill="#02606a" d="M 212.71875 2.554688 C 212.71875 2.554688 192.671875 -91.261719 169.289062 -103.253906 L 152.925781 -89.078125 C 152.914062 -89.199219 179.242188 -77.5625 212.71875 2.554688 " fill-opacity="1" fill-rule="evenodd"/></g></g></g></g><g clip-path="url(#5f1814c16a)"><g clip-path="url(#acd3d755cb)"><g clip-path="url(#1d22d69638)"><g clip-path="url(#2265da8f5e)"><path fill="#fc9900" d="M 203.847656 16.820312 L 208.242188 26.375 C 208.425781 26.851562 208.960938 27.160156 209.453125 27.097656 L 219.894531 25.839844 C 220.382812 25.78125 220.917969 26.089844 221.101562 26.566406 C 221.285156 27.039062 221.21875 27.546875 220.773438 27.972656 L 213.039062 35.132812 C 212.589844 35.558594 212.527344 36.066406 212.710938 36.542969 L 217.101562 46.09375 C 217.285156 46.570312 217.222656 47.078125 216.773438 47.503906 C 216.449219 47.917969 215.835938 47.992188 215.300781 47.683594 L 206.085938 42.570312 C 205.546875 42.261719 205.058594 42.320312 204.609375 42.746094 L 196.875 49.90625 C 196.550781 50.320312 195.9375 50.394531 195.402344 50.085938 C 194.988281 49.761719 194.683594 49.300781 194.746094 48.792969 L 196.742188 38.46875 C 196.804688 37.964844 196.621094 37.488281 196.085938 37.179688 L 186.871094 32.066406 C 186.332031 31.757812 186.152344 31.28125 186.214844 30.777344 C 186.277344 30.269531 186.726562 29.84375 187.21875 29.785156 L 197.660156 28.523438 C 198.148438 28.464844 198.597656 28.035156 198.660156 27.53125 L 200.65625 17.207031 C 200.71875 16.699219 201.164062 16.273438 201.65625 16.214844 C 203.128906 16.035156 203.652344 16.222656 203.847656 16.820312 " fill-opacity="1" fill-rule="evenodd"/></g></g></g></g><g clip-path="url(#6402bcfb30)"><g clip-path="url(#485a42d78c)"><g clip-path="url(#86f7f41514)"><g clip-path="url(#f30168b726)"><path fill="#695cc6" d="M -26.113281 44.578125 L -13.726562 51.175781 C -13.066406 51.46875 -12.328125 51.382812 -11.882812 50.953125 L -1.832031 41.277344 C -1.265625 40.832031 -0.542969 40.621094 0.0078125 41.054688 C 0.667969 41.347656 1.003906 42.054688 0.84375 42.820312 L -1.609375 56.5625 C -1.765625 57.328125 -1.445312 57.910156 -0.773438 58.328125 L 11.613281 64.925781 C 12.273438 65.21875 12.609375 65.925781 12.453125 66.691406 C 12.292969 67.457031 11.726562 67.898438 11.109375 67.972656 L -2.742188 69.894531 C -3.476562 69.984375 -4.03125 70.546875 -4.082031 71.175781 L -6.535156 84.917969 C -6.707031 85.5625 -7.261719 86.125 -7.875 86.199219 C -8.613281 86.289062 -9.273438 85.996094 -9.605469 85.289062 L -15.738281 72.707031 C -16.058594 72.125 -16.730469 71.707031 -17.46875 71.796875 L -31.320312 73.71875 C -32.054688 73.804688 -32.714844 73.511719 -33.050781 72.804688 C -33.367188 72.222656 -33.210938 71.457031 -32.65625 70.890625 L -22.609375 61.210938 C -22.039062 60.769531 -22.003906 60.019531 -22.214844 59.296875 L -28.347656 46.71875 C -28.667969 46.132812 -28.507812 45.367188 -27.953125 44.800781 C -27.523438 44.253906 -26.785156 44.164062 -26.113281 44.578125 " fill-opacity="1" fill-rule="evenodd"/></g></g></g></g><g clip-path="url(#6614304ece)"><path fill="#f41740" d="M 112.03125 321.960938 C 112.03125 321.960938 -45.578125 323.984375 -121.660156 415.515625 L -88.054688 449.605469 C -88.054688 449.761719 -58.804688 365.390625 112.03125 321.960938 " fill-opacity="1" fill-rule="evenodd"/></g><g clip-path="url(#a6d2c796da)"><path fill="#695cc6" d="M 114.679688 337.527344 C 114.679688 337.527344 4.367188 400.726562 -49.46875 570.867188 L -6.992188 589.859375 C 3.585938 531.953125 33.773438 445.714844 114.679688 337.527344 " fill-opacity="1" fill-rule="evenodd"/></g><g clip-path="url(#7fe9e69912)"><path fill="#fc9900" d="M 138.484375 293.007812 C 138.484375 293.007812 -89.453125 220.621094 -222.328125 287.246094 L -238.355469 250.976562 C -238.355469 251.132812 -64.714844 190.113281 138.484375 293.007812 " fill-opacity="1" fill-rule="evenodd"/></g><g clip-path="url(#0e299e521a)"><path fill="#02606a" d="M 129.148438 300.789062 C 129.148438 300.789062 -8.859375 270.589844 -76.230469 291.761719 L -69.074219 319.160156 C -69.074219 319.160156 -19.75 284.289062 129.148438 300.789062 " fill-opacity="1" fill-rule="evenodd"/></g><g clip-path="url(#f09e9036f0)"><path fill="#fa4169" d="M 152.640625 283.355469 C 152.640625 283.355469 40.460938 173.921875 -41.6875 161.160156 L -18.195312 129.558594 C -18.351562 129.558594 78.425781 171.121094 152.640625 283.355469 " fill-opacity="1" fill-rule="evenodd"/></g><g clip-path="url(#60f06d0786)"><path fill="#fa4169" d="M 146.417969 343.597656 C 146.417969 343.597656 139.105469 451.785156 91.339844 528.839844 L 140.195312 540.359375 C 140.195312 540.203125 159.953125 421.585938 146.417969 343.597656 " fill-opacity="1" fill-rule="evenodd"/></g><g clip-path="url(#70aad3dbe4)"><path fill="#fc9900" d="M 165.554688 347.800781 C 165.554688 347.800781 224.679688 460.65625 235.726562 627.0625 L 292.050781 620.214844 C 292.050781 620.214844 235.726562 415.203125 165.554688 347.800781 " fill-opacity="1" fill-rule="evenodd"/></g><g clip-path="url(#174d801816)"><path fill="#02606a" d="M 175.980469 337.371094 C 175.980469 337.371094 268.554688 350.914062 334.058594 408.199219 L 354.90625 383.292969 C 354.753906 383.136719 274.78125 336.4375 175.980469 337.371094 " fill-opacity="1" fill-rule="evenodd"/></g><g clip-path="url(#4be73a550d)"><path fill="#f41740" d="M 183.449219 314.957031 C 183.449219 314.957031 290.183594 227.160156 456.507812 247.085938 L 447.484375 294.097656 C 447.484375 294.097656 346.660156 248.796875 183.449219 314.957031 " fill-opacity="1" fill-rule="evenodd"/></g><g clip-path="url(#d91cd0b940)"><path fill="#695cc6" d="M 177.691406 289.425781 C 177.691406 289.425781 224.679688 193.535156 336.859375 170.03125 L 338.882812 198.828125 C 338.882812 198.828125 268.398438 200.851562 177.691406 289.425781 " fill-opacity="1" fill-rule="evenodd"/></g><path fill="#02606a" d="M 167.890625 278.21875 C 167.890625 278.21875 157 157.890625 129.613281 139.363281 L 107.054688 154.621094 C 107.054688 154.464844 138.171875 172.988281 167.890625 278.21875 " fill-opacity="1" fill-rule="evenodd"/><path fill="#fc9900" d="M 154.664062 294.71875 L 158.710938 307.328125 C 158.867188 307.949219 159.488281 308.417969 160.109375 308.417969 L 173.335938 308.417969 C 173.957031 308.417969 174.578125 308.882812 174.734375 309.507812 C 174.890625 310.128906 174.734375 310.753906 174.113281 311.21875 L 163.378906 319.003906 C 162.753906 319.46875 162.601562 320.09375 162.753906 320.714844 L 166.800781 333.324219 C 166.957031 333.945312 166.800781 334.570312 166.179688 335.035156 C 165.710938 335.503906 164.933594 335.503906 164.3125 335.035156 L 153.574219 327.253906 C 152.953125 326.785156 152.332031 326.785156 151.707031 327.253906 L 140.972656 335.035156 C 140.507812 335.503906 139.726562 335.503906 139.105469 335.035156 C 138.640625 334.570312 138.328125 333.945312 138.484375 333.324219 L 142.527344 320.714844 C 142.683594 320.09375 142.527344 319.46875 141.90625 319.003906 L 131.171875 311.21875 C 130.546875 310.753906 130.394531 310.128906 130.546875 309.507812 C 130.703125 308.882812 131.328125 308.417969 131.949219 308.417969 L 145.171875 308.417969 C 145.796875 308.417969 146.417969 307.949219 146.574219 307.328125 L 150.621094 294.71875 C 150.773438 294.097656 151.398438 293.628906 152.019531 293.628906 C 153.886719 293.628906 154.507812 293.941406 154.664062 294.71875 " fill-opacity="1" fill-rule="evenodd"/><path fill="#fa4169" d="M 194.804688 183.886719 L 195.585938 192.757812 C 195.585938 193.226562 195.894531 193.535156 196.363281 193.691406 L 205.074219 195.558594 C 205.542969 195.714844 205.851562 196.027344 205.851562 196.496094 C 205.851562 196.960938 205.699219 197.273438 205.230469 197.582031 L 197.140625 201.164062 C 196.671875 201.320312 196.519531 201.785156 196.519531 202.253906 L 197.453125 211.125 C 197.453125 211.59375 197.296875 212.0625 196.828125 212.214844 C 196.363281 212.371094 195.894531 212.371094 195.585938 211.90625 L 189.671875 205.210938 C 189.359375 204.898438 188.894531 204.746094 188.425781 204.898438 L 180.335938 208.480469 C 179.871094 208.636719 179.402344 208.636719 179.09375 208.167969 C 178.78125 207.859375 178.78125 207.390625 178.9375 206.921875 L 183.449219 199.296875 C 183.761719 198.828125 183.605469 198.363281 183.292969 198.050781 L 177.378906 191.511719 C 177.070312 191.203125 177.070312 190.734375 177.226562 190.269531 C 177.378906 189.800781 177.847656 189.644531 178.3125 189.800781 L 187.027344 191.667969 C 187.492188 191.824219 187.960938 191.511719 188.117188 191.203125 L 192.628906 183.574219 C 192.785156 183.105469 193.25 182.953125 193.71875 183.105469 C 194.496094 183.105469 194.804688 183.417969 194.804688 183.886719 " fill-opacity="1" fill-rule="evenodd"/><g clip-path="url(#520eaf4020)"><g transform="matrix(1, 0, 0, 1, 13, 83)"><g clip-path="url(#d7b7216017)"><g clip-path="url(#1b84b08579)"><path fill="#ffffff" d="M 0.140625 0.441406 L 256.859375 0.441406 L 256.859375 292.257812 L 0.140625 292.257812 Z M 0.140625 0.441406 " fill-opacity="1" fill-rule="nonzero"/></g></g></g></g><path fill="#ffffff" d="M 104.042969 65.761719 L 104.042969 63.171875 L 104.011719 62.835938 L 104.027344 61.414062 L 104.058594 61.078125 L 104.027344 60.742188 L 104.027344 60.40625 L 104.011719 60.023438 L 104.058594 59.320312 L 104.027344 58.964844 L 104.011719 54.96875 L 104.21875 54.472656 L 104.535156 54.296875 L 105.558594 54.21875 L 105.941406 54.234375 L 106.292969 54.296875 L 106.644531 54.296875 L 106.964844 54.21875 L 107.300781 54.21875 L 107.652344 54.28125 L 108.707031 54.28125 L 109.21875 54.25 L 109.761719 54.265625 L 110.765625 54.488281 L 111.421875 54.714844 L 112.042969 55.050781 L 113.035156 56.105469 L 113.226562 56.375 L 113.371094 56.679688 L 113.671875 57.671875 L 113.738281 58.023438 L 113.769531 59.125 L 113.546875 60.132812 L 112.859375 61.363281 L 112.621094 61.574219 L 112.363281 61.828125 L 112.21875 62.210938 L 112.234375 62.644531 L 112.445312 62.898438 L 113.003906 63.8125 L 113.164062 64.113281 L 113.753906 65.011719 L 113.882812 65.347656 L 114.105469 65.585938 L 114.296875 65.96875 L 114.183594 66.351562 L 113.847656 66.511719 L 113.273438 66.527344 L 112.9375 66.496094 L 111.566406 66.511719 L 110.972656 66.351562 L 110.589844 66.050781 L 110.398438 65.746094 L 110.253906 65.394531 L 110.0625 65.136719 L 109.726562 64.5 L 109.359375 63.988281 L 109.234375 63.667969 L 109.007812 63.316406 L 108.675781 63.027344 L 107.652344 62.882812 L 107.316406 63.074219 L 107.171875 63.425781 L 107.125 64.546875 L 107.1875 64.914062 L 107.15625 65.21875 L 107.15625 65.808594 L 106.996094 66.320312 L 106.4375 66.496094 L 105.910156 66.496094 L 105.625 66.527344 L 105.0625 66.480469 L 104.730469 66.527344 L 104.21875 66.304688 Z M 107.652344 60.085938 L 108.035156 60.054688 L 108.882812 60.085938 L 109.21875 60.070312 L 109.710938 59.941406 L 110.03125 59.796875 L 110.222656 59.652344 L 110.414062 59.382812 L 110.574219 59.03125 L 110.621094 58.519531 L 110.558594 58.054688 L 110.445312 57.785156 L 110.015625 57.238281 L 109.679688 57.144531 L 109.234375 57.113281 L 108.738281 57.015625 L 108.035156 57.082031 L 107.683594 57.0625 L 107.316406 57.207031 L 107.171875 57.527344 L 107.125 58.261719 L 107.171875 58.566406 L 107.171875 59.605469 L 107.300781 59.894531 Z M 107.652344 60.085938 " fill-opacity="1" fill-rule="nonzero"/><path fill="#ffffff" d="M 120.910156 66.527344 L 120.574219 66.496094 L 120.222656 66.527344 L 119.824219 66.511719 L 119.488281 66.449219 L 118.769531 66.496094 L 118.453125 66.480469 L 118.066406 66.511719 L 116.820312 66.496094 L 116.296875 66.273438 L 116.152344 65.792969 L 116.121094 65.410156 L 116.167969 64.210938 L 116.121094 63.859375 L 116.152344 63.523438 L 116.167969 60.695312 L 116.121094 60.390625 L 116.136719 58.949219 L 116.167969 58.613281 L 116.121094 58.246094 L 116.152344 56.535156 L 116.101562 56.152344 L 116.152344 55.433594 L 116.121094 54.777344 L 116.3125 54.410156 L 116.679688 54.265625 L 117.03125 54.28125 L 117.363281 54.25 L 117.683594 54.28125 L 118.019531 54.21875 L 118.371094 54.265625 L 119.792969 54.234375 L 120.144531 54.265625 L 120.449219 54.25 L 120.800781 54.28125 L 121.183594 54.25 L 122.589844 54.234375 L 122.90625 54.296875 L 123.273438 54.296875 L 123.625 54.441406 L 123.785156 54.777344 L 123.820312 55.816406 L 123.800781 56.167969 L 123.820312 56.519531 L 123.644531 56.839844 L 123.273438 57.046875 L 122.941406 57.0625 L 120.449219 57.03125 L 120.113281 57.097656 L 119.777344 57.082031 L 119.394531 57.222656 L 119.234375 57.542969 L 119.234375 58.085938 L 119.378906 58.632812 L 119.746094 58.789062 L 120.765625 58.757812 L 121.488281 58.808594 L 121.855469 58.773438 L 122.890625 58.773438 L 123.292969 59 L 123.46875 59.496094 L 123.417969 61.0625 L 123.292969 61.414062 L 122.941406 61.558594 L 122.539062 61.539062 L 122.1875 61.574219 L 121.46875 61.558594 L 120.816406 61.589844 L 120.257812 61.539062 L 119.730469 61.558594 L 119.410156 61.75 L 119.265625 62.117188 L 119.265625 63.21875 L 119.394531 63.523438 L 119.761719 63.699219 L 120.144531 63.667969 L 120.480469 63.714844 L 120.863281 63.699219 L 121.214844 63.730469 L 121.789062 63.667969 L 122.683594 63.683594 L 123.019531 63.730469 L 123.417969 63.699219 L 123.785156 63.859375 L 123.976562 64.210938 L 123.976562 65.96875 L 123.785156 66.335938 L 123.417969 66.496094 Z M 120.910156 66.527344 " fill-opacity="1" fill-rule="nonzero"/><path fill="#ffffff" d="M 130.902344 66.65625 L 130.550781 66.542969 L 129.5625 66.367188 L 129.273438 66.289062 L 128.058594 65.585938 L 127.484375 65.1875 L 126.78125 64.449219 L 126.382812 63.859375 L 126.078125 63.265625 L 125.582031 61.621094 L 125.488281 60.40625 L 125.519531 59.847656 L 125.824219 58.101562 L 126.476562 56.792969 L 126.667969 56.535156 L 126.925781 56.28125 L 127.148438 55.992188 L 127.914062 55.320312 L 128.875 54.714844 L 130.230469 54.234375 L 130.550781 54.21875 L 130.855469 54.105469 L 131.207031 54.089844 L 132.835938 54.15625 L 133.648438 54.394531 L 134.019531 54.457031 L 135.230469 55.097656 L 135.503906 55.320312 L 135.773438 55.578125 L 136.15625 55.898438 L 136.859375 56.90625 L 137.019531 57.222656 L 137.261719 57.945312 L 137.164062 58.230469 L 136.71875 58.421875 L 135.886719 58.375 L 135.359375 58.4375 L 134.816406 58.421875 L 134.402344 58.296875 L 134.035156 58.007812 L 133.808594 57.703125 L 133.601562 57.480469 L 133.265625 57.257812 L 132.929688 57.113281 L 132.292969 56.9375 L 131.222656 56.96875 L 130.917969 57.113281 L 130.597656 57.144531 L 130.296875 57.304688 L 129.6875 57.734375 L 129.144531 58.566406 L 128.859375 59.191406 L 128.746094 59.878906 L 128.761719 60.886719 L 128.84375 61.445312 L 128.984375 61.957031 L 129.320312 62.578125 L 129.511719 62.835938 L 130.039062 63.316406 L 130.984375 63.699219 L 131.859375 63.8125 L 132.324219 63.796875 L 132.996094 63.636719 L 133.585938 63.410156 L 133.824219 63.21875 L 134.082031 62.914062 L 134.257812 62.613281 L 134.210938 62.324219 L 133.9375 62.195312 L 133.632812 62.148438 L 132.753906 62.210938 L 132.246094 62.179688 L 131.941406 61.988281 L 131.78125 61.714844 L 131.78125 60.054688 L 131.941406 59.71875 L 132.292969 59.542969 L 132.949219 59.496094 L 134 59.558594 L 136.351562 59.511719 L 136.71875 59.558594 L 137.085938 59.574219 L 137.421875 59.75 L 137.59375 60.054688 L 137.628906 60.710938 L 137.59375 61.046875 L 137.59375 61.398438 L 137.53125 61.714844 L 137.5 62.003906 L 137.371094 62.675781 L 137.019531 63.699219 L 136.8125 63.953125 L 136.652344 64.257812 L 136.476562 64.5625 L 136.269531 64.800781 L 136 65.011719 L 135.742188 65.296875 L 135.199219 65.714844 L 133.96875 66.335938 L 132.660156 66.65625 Z M 130.902344 66.65625 " fill-opacity="1" fill-rule="nonzero"/><path fill="#ffffff" d="M 148.53125 66.511719 L 148.164062 66.480469 L 147.761719 66.304688 L 147.410156 66.050781 L 147.300781 65.730469 L 147.15625 65.394531 L 146.820312 65.121094 L 146.4375 64.929688 L 146.054688 64.976562 L 145.734375 64.945312 L 144.027344 64.960938 L 143.707031 64.914062 L 142.972656 64.976562 L 142.652344 64.929688 L 142.285156 65.121094 L 141.949219 65.457031 L 141.628906 66.035156 L 141.292969 66.335938 L 140.894531 66.464844 L 139.921875 66.496094 L 139.570312 66.464844 L 138.898438 66.496094 L 138.546875 66.402344 L 138.449219 65.953125 L 138.5625 65.601562 L 138.914062 64.914062 L 138.992188 64.59375 L 139.1875 64.355469 L 139.457031 63.652344 L 139.761719 63.089844 L 139.886719 62.738281 L 140.0625 62.484375 L 140.160156 62.101562 L 141.949219 58.359375 L 142.042969 58.039062 L 142.238281 57.703125 L 142.332031 57.351562 L 142.523438 57.097656 L 143.226562 55.496094 L 143.371094 55.242188 L 143.5 54.890625 L 143.65625 54.601562 L 143.976562 54.296875 L 144.535156 54.105469 L 145.113281 54.28125 L 145.398438 54.601562 L 145.734375 55.210938 L 145.847656 55.53125 L 146.039062 55.832031 L 146.132812 56.183594 L 147.285156 58.613281 L 147.410156 58.984375 L 147.78125 59.636719 L 147.875 59.910156 L 148.035156 60.164062 L 148.148438 60.550781 L 148.324219 60.886719 L 148.5 61.15625 L 149.152344 62.738281 L 149.503906 63.363281 L 149.742188 64.019531 L 150.222656 64.929688 L 150.480469 65.570312 L 150.605469 65.96875 L 150.558594 66.402344 L 150.0625 66.480469 L 149.519531 66.496094 L 149.183594 66.464844 Z M 144.570312 62.164062 L 145.253906 62.148438 L 145.527344 62.003906 L 145.589844 61.699219 L 144.777344 59.765625 L 144.535156 59.636719 L 144.34375 59.78125 L 143.515625 61.667969 L 143.53125 62.003906 L 143.816406 62.132812 L 144.21875 62.101562 Z M 144.570312 62.164062 " fill-opacity="1" fill-rule="nonzero"/><path fill="#ffffff" d="M 152.234375 65.859375 L 152.214844 59.300781 L 152.183594 58.964844 L 152.167969 58.582031 L 152.214844 57.945312 L 152.183594 57.59375 L 152.214844 57.257812 L 152.214844 54.808594 L 152.375 54.425781 L 152.742188 54.28125 L 153.078125 54.234375 L 153.765625 54.296875 L 154.117188 54.234375 L 154.804688 54.234375 L 155.15625 54.441406 L 155.332031 54.824219 L 155.300781 55.160156 L 155.363281 56.152344 L 155.332031 56.855469 L 155.363281 57.273438 L 155.347656 63.203125 L 155.476562 63.539062 L 155.828125 63.683594 L 156.195312 63.652344 L 156.882812 63.683594 L 157.183594 63.636719 L 157.535156 63.699219 L 158.253906 63.683594 L 158.621094 63.730469 L 158.957031 63.667969 L 159.324219 63.636719 L 159.644531 63.84375 L 159.789062 64.371094 L 159.804688 65.777344 L 159.613281 66.320312 L 159.292969 66.496094 L 155.828125 66.480469 L 155.445312 66.511719 L 155.109375 66.464844 L 154.453125 66.496094 L 153.765625 66.464844 L 153.03125 66.511719 L 152.679688 66.480469 L 152.359375 66.304688 Z M 152.234375 65.859375 " fill-opacity="1" fill-rule="nonzero"/><path fill="#ffffff" d="M 161.628906 65.859375 L 161.613281 59.300781 L 161.582031 58.964844 L 161.566406 58.582031 L 161.613281 57.945312 L 161.582031 57.59375 L 161.613281 57.257812 L 161.613281 54.808594 L 161.773438 54.425781 L 162.140625 54.28125 L 162.476562 54.234375 L 163.164062 54.296875 L 163.515625 54.234375 L 164.199219 54.234375 L 164.550781 54.441406 L 164.726562 54.824219 L 164.695312 55.160156 L 164.757812 56.152344 L 164.726562 56.855469 L 164.757812 57.273438 L 164.742188 63.203125 L 164.871094 63.539062 L 165.222656 63.683594 L 165.589844 63.652344 L 166.277344 63.683594 L 166.582031 63.636719 L 166.933594 63.699219 L 167.652344 63.683594 L 168.019531 63.730469 L 168.355469 63.667969 L 168.722656 63.636719 L 169.039062 63.84375 L 169.183594 64.371094 L 169.199219 65.777344 L 169.007812 66.320312 L 168.6875 66.496094 L 165.222656 66.480469 L 164.839844 66.511719 L 164.503906 66.464844 L 163.847656 66.496094 L 163.164062 66.464844 L 162.425781 66.511719 L 162.078125 66.480469 L 161.757812 66.304688 Z M 161.628906 65.859375 " fill-opacity="1" fill-rule="nonzero"/><path fill="#ffffff" d="M 175.769531 66.527344 L 175.433594 66.496094 L 175.082031 66.527344 L 174.683594 66.511719 L 174.347656 66.449219 L 173.628906 66.496094 L 173.308594 66.480469 L 172.925781 66.511719 L 171.679688 66.496094 L 171.152344 66.273438 L 171.007812 65.792969 L 170.976562 65.410156 L 171.023438 64.210938 L 170.976562 63.859375 L 171.007812 63.523438 L 171.023438 60.695312 L 170.976562 60.390625 L 170.992188 58.949219 L 171.023438 58.613281 L 170.976562 58.246094 L 171.007812 56.535156 L 170.960938 56.152344 L 171.007812 55.433594 L 170.976562 54.777344 L 171.167969 54.410156 L 171.535156 54.265625 L 171.886719 54.28125 L 172.222656 54.25 L 172.542969 54.28125 L 172.878906 54.21875 L 173.230469 54.265625 L 174.652344 54.234375 L 175.003906 54.265625 L 175.304688 54.25 L 175.65625 54.28125 L 176.039062 54.25 L 177.445312 54.234375 L 177.765625 54.296875 L 178.132812 54.296875 L 178.484375 54.441406 L 178.644531 54.777344 L 178.675781 55.816406 L 178.660156 56.167969 L 178.675781 56.519531 L 178.5 56.839844 L 178.132812 57.046875 L 177.796875 57.0625 L 175.304688 57.03125 L 174.96875 57.097656 L 174.636719 57.082031 L 174.25 57.222656 L 174.09375 57.542969 L 174.09375 58.085938 L 174.234375 58.632812 L 174.601562 58.789062 L 175.625 58.757812 L 176.34375 58.808594 L 176.710938 58.773438 L 177.75 58.773438 L 178.148438 59 L 178.324219 59.496094 L 178.277344 61.0625 L 178.148438 61.414062 L 177.796875 61.558594 L 177.398438 61.539062 L 177.046875 61.574219 L 176.328125 61.558594 L 175.671875 61.589844 L 175.113281 61.539062 L 174.585938 61.558594 L 174.269531 61.75 L 174.125 62.117188 L 174.125 63.21875 L 174.25 63.523438 L 174.621094 63.699219 L 175.003906 63.667969 L 175.339844 63.714844 L 175.722656 63.699219 L 176.074219 63.730469 L 176.648438 63.667969 L 177.542969 63.683594 L 177.878906 63.730469 L 178.277344 63.699219 L 178.644531 63.859375 L 178.835938 64.210938 L 178.835938 65.96875 L 178.644531 66.335938 L 178.277344 66.496094 Z M 175.769531 66.527344 " fill-opacity="1" fill-rule="nonzero"/><path fill="#ffffff" d="M 115.828125 41.835938 L 115.414062 41.933594 L 114.933594 41.898438 L 114.46875 41.742188 L 114.261719 41.453125 L 113.972656 41.148438 L 113.527344 40.957031 L 113.0625 40.910156 L 112.664062 41.101562 L 112.3125 41.179688 L 110.507812 41.773438 L 110.171875 41.851562 L 109.421875 42.171875 L 109.054688 42.253906 L 108.734375 42.570312 L 108.511719 43.035156 L 108.382812 43.753906 L 108.144531 44.203125 L 107.761719 44.472656 L 106.738281 44.859375 L 106.371094 44.9375 L 105.652344 45.210938 L 105.253906 45.226562 L 105.011719 44.808594 L 104.996094 44.394531 L 105.109375 43.546875 L 105.078125 43.179688 L 105.222656 42.859375 L 105.253906 42.011719 L 105.363281 41.308594 L 105.382812 40.910156 L 105.476562 40.558594 L 105.445312 40.125 L 106.019531 35.554688 L 106.003906 35.183594 L 106.101562 34.769531 L 106.066406 34.371094 L 106.179688 34.035156 L 106.339844 32.082031 L 106.417969 31.78125 L 106.433594 31.363281 L 106.5 30.996094 L 106.722656 30.566406 L 107.234375 30.164062 L 107.90625 30.148438 L 108.320312 30.390625 L 108.878906 30.902344 L 109.117188 31.1875 L 109.421875 31.460938 L 109.660156 31.796875 L 111.738281 33.9375 L 111.992188 34.289062 L 112.617188 34.851562 L 112.808594 35.105469 L 113.082031 35.328125 L 113.304688 35.679688 L 113.625 35.96875 L 113.878906 36.191406 L 115.171875 37.632812 L 115.761719 38.175781 L 116.242188 38.78125 L 117.058594 39.566406 L 117.550781 40.15625 L 117.824219 40.542969 L 117.921875 40.988281 L 117.441406 41.261719 L 116.851562 41.46875 L 116.515625 41.546875 Z M 110.109375 38.640625 L 110.859375 38.398438 L 111.066406 38.144531 L 111.035156 37.777344 L 109.484375 36.03125 L 109.183594 36 L 109.039062 36.226562 L 108.832031 38.496094 L 108.957031 38.847656 L 109.308594 38.878906 L 109.710938 38.703125 Z M 110.109375 38.640625 " fill-opacity="1" fill-rule="nonzero"/><path fill="#ffffff" d="M 118.730469 40.152344 L 118.203125 37.324219 L 118.125 36.957031 L 117.835938 35.421875 L 117.804688 35.035156 L 117.691406 34.683594 L 117.628906 34.300781 L 117.546875 33.886719 L 117.4375 33.101562 L 117.339844 32.75 L 116.527344 28.355469 L 116.636719 27.777344 L 116.941406 27.523438 L 118.058594 27.21875 L 118.492188 27.15625 L 118.875 27.171875 L 119.242188 27.089844 L 119.578125 26.929688 L 119.960938 26.867188 L 120.359375 26.867188 L 121.507812 26.660156 L 122.050781 26.53125 L 122.675781 26.433594 L 123.808594 26.484375 L 124.578125 26.59375 L 125.3125 26.820312 L 126.605469 27.761719 L 126.875 28.050781 L 127.101562 28.320312 L 127.628906 29.359375 L 127.753906 29.730469 L 128.027344 30.929688 L 127.980469 32.078125 L 127.484375 33.550781 L 127.261719 33.835938 L 127.050781 34.171875 L 126.957031 34.636719 L 127.050781 35.070312 L 127.355469 35.324219 L 128.121094 36.203125 L 128.363281 36.523438 L 129.191406 37.371094 L 129.417969 37.691406 L 129.703125 37.929688 L 129.976562 38.3125 L 129.945312 38.746094 L 129.609375 38.984375 L 129 39.128906 L 128.617188 39.144531 L 127.117188 39.449219 L 126.414062 39.386719 L 125.964844 39.144531 L 125.679688 38.859375 L 125.453125 38.488281 L 125.183594 38.25 L 124.703125 37.625 L 124.191406 37.132812 L 123.96875 36.8125 L 123.683594 36.476562 L 123.234375 36.21875 L 122.101562 36.269531 L 121.796875 36.554688 L 121.683594 36.972656 L 121.859375 38.1875 L 122.003906 38.585938 L 122.019531 38.9375 L 122.148438 39.59375 L 122.070312 40.167969 L 121.507812 40.472656 L 120.917969 40.585938 L 120.648438 40.679688 L 120.007812 40.726562 L 119.65625 40.871094 L 119.035156 40.710938 Z M 121.542969 33.199219 L 121.941406 33.117188 L 122.882812 32.957031 L 123.234375 32.878906 L 123.761719 32.65625 L 124.066406 32.429688 L 124.242188 32.222656 L 124.417969 31.886719 L 124.511719 31.472656 L 124.464844 30.894531 L 124.289062 30.417969 L 124.128906 30.128906 L 123.539062 29.617188 L 123.171875 29.601562 L 122.644531 29.664062 L 122.101562 29.632812 L 121.351562 29.855469 L 120.949219 29.90625 L 120.597656 30.144531 L 120.503906 30.527344 L 120.597656 31.34375 L 120.710938 31.664062 L 120.917969 32.816406 L 121.109375 33.085938 Z M 121.542969 33.199219 " fill-opacity="1" fill-rule="nonzero"/><path fill="#ffffff" d="M 131.246094 37.988281 L 131.105469 35.109375 L 131.054688 34.726562 L 130.992188 33.15625 L 131.007812 32.789062 L 130.960938 32.40625 L 130.945312 32.023438 L 130.910156 31.605469 L 130.910156 30.839844 L 130.863281 30.457031 L 130.640625 25.996094 L 130.832031 25.4375 L 131.183594 25.226562 L 132.316406 25.085938 L 132.75 25.066406 L 133.148438 25.132812 L 133.53125 25.117188 L 133.867188 25.003906 L 134.25 24.988281 L 134.664062 25.050781 L 135.832031 24.988281 L 136.375 24.941406 L 136.996094 24.925781 L 138.101562 25.117188 L 138.851562 25.324219 L 139.554688 25.660156 L 140.71875 26.777344 L 140.941406 27.082031 L 141.117188 27.402344 L 141.519531 28.503906 L 141.582031 28.890625 L 141.695312 30.089844 L 141.484375 31.238281 L 140.800781 32.613281 L 140.542969 32.871094 L 140.289062 33.175781 L 140.128906 33.621094 L 140.160156 34.085938 L 140.414062 34.355469 L 141.070312 35.332031 L 141.261719 35.683594 L 141.980469 36.644531 L 142.140625 36.996094 L 142.398438 37.25 L 142.621094 37.683594 L 142.539062 38.097656 L 142.171875 38.289062 L 141.535156 38.355469 L 141.167969 38.320312 L 139.632812 38.417969 L 138.960938 38.273438 L 138.53125 37.953125 L 138.292969 37.632812 L 138.117188 37.25 L 137.890625 36.964844 L 137.476562 36.292969 L 137.0625 35.714844 L 136.886719 35.363281 L 136.628906 34.996094 L 136.246094 34.675781 L 135.113281 34.597656 L 134.761719 34.820312 L 134.601562 35.203125 L 134.617188 36.453125 L 134.699219 36.867188 L 134.664062 37.21875 L 134.699219 37.875 L 134.539062 38.449219 L 133.945312 38.671875 L 133.355469 38.691406 L 133.050781 38.753906 L 132.429688 38.722656 L 132.046875 38.800781 L 131.453125 38.578125 Z M 134.96875 31.496094 L 135.382812 31.429688 L 136.328125 31.429688 L 136.679688 31.398438 L 137.222656 31.238281 L 137.574219 31.0625 L 137.765625 30.871094 L 137.988281 30.585938 L 138.132812 30.167969 L 138.164062 29.59375 L 138.050781 29.082031 L 137.925781 28.777344 L 137.414062 28.203125 L 137.046875 28.121094 L 136.535156 28.105469 L 136.007812 28.011719 L 135.226562 28.121094 L 134.839844 28.136719 L 134.441406 28.3125 L 134.28125 28.679688 L 134.28125 29.496094 L 134.347656 29.832031 L 134.394531 31 L 134.554688 31.304688 Z M 134.96875 31.496094 " fill-opacity="1" fill-rule="nonzero"/><path fill="#ffffff" d="M 153.789062 39.238281 L 153.375 39.175781 L 152.945312 38.949219 L 152.59375 38.613281 L 152.511719 38.261719 L 152.371094 37.878906 L 152.035156 37.527344 L 151.632812 37.273438 L 151.1875 37.304688 L 150.851562 37.222656 L 148.949219 37.0625 L 148.617188 36.984375 L 147.785156 36.984375 L 147.433594 36.886719 L 147.019531 37.0625 L 146.617188 37.398438 L 146.203125 38.007812 L 145.804688 38.328125 L 145.339844 38.421875 L 144.269531 38.359375 L 143.886719 38.296875 L 143.121094 38.246094 L 142.753906 38.105469 L 142.6875 37.609375 L 142.847656 37.222656 L 143.296875 36.488281 L 143.425781 36.167969 L 143.679688 35.914062 L 144.03125 35.160156 L 144.445312 34.570312 L 144.605469 34.203125 L 144.8125 33.929688 L 144.972656 33.5 L 147.335938 29.550781 L 147.480469 29.199219 L 147.722656 28.863281 L 147.863281 28.496094 L 148.105469 28.222656 L 149.03125 26.511719 L 149.222656 26.257812 L 149.398438 25.871094 L 149.589844 25.570312 L 149.972656 25.28125 L 150.628906 25.121094 L 151.234375 25.378906 L 151.523438 25.746094 L 151.84375 26.449219 L 151.9375 26.800781 L 152.113281 27.183594 L 152.175781 27.566406 L 153.214844 30.382812 L 153.3125 30.796875 L 153.648438 31.566406 L 153.742188 31.867188 L 153.886719 32.171875 L 153.964844 32.621094 L 154.125 33.003906 L 154.285156 33.308594 L 154.878906 35.128906 L 155.195312 35.882812 L 155.402344 36.617188 L 155.835938 37.65625 L 156.042969 38.40625 L 156.121094 38.871094 L 156.042969 39.320312 L 155.5 39.367188 L 154.894531 39.335938 L 154.527344 39.269531 Z M 149.828125 34.027344 L 150.613281 34.089844 L 150.914062 33.945312 L 151.027344 33.609375 L 150.324219 31.40625 L 150.054688 31.230469 L 149.8125 31.390625 L 148.726562 33.386719 L 148.695312 33.753906 L 149.015625 33.914062 L 149.460938 33.914062 Z M 149.828125 34.027344 " fill-opacity="1" fill-rule="nonzero"/><path fill="#ffffff" d="M 161.992188 40.917969 L 161.640625 40.742188 L 160.699219 40.535156 L 160.125 40.503906 L 159.375 40.261719 L 158.992188 40.214844 L 158.398438 40.101562 L 157.855469 39.925781 L 157.488281 39.878906 L 157.136719 39.816406 L 156.785156 39.542969 L 156.707031 39 L 157.136719 37.257812 L 157.394531 36.96875 L 158.765625 36.839844 L 159.070312 36.328125 L 160.238281 30.476562 L 160.171875 29.933594 L 159.851562 29.613281 L 159.484375 29.535156 L 159.101562 29.230469 L 158.992188 28.832031 L 159.101562 28.464844 L 159.34375 27.054688 L 159.613281 26.640625 L 160.042969 26.527344 L 160.476562 26.625 L 160.828125 26.738281 L 162.394531 27.074219 L 162.777344 27.074219 L 163.113281 27.183594 L 165.394531 27.679688 L 165.714844 27.953125 L 165.859375 28.351562 L 165.445312 30.238281 L 165.1875 30.492188 L 164.757812 30.574219 L 164.375 30.542969 L 163.910156 30.636719 L 163.703125 31.039062 L 163.207031 32.957031 L 163 34.332031 L 162.886719 34.746094 L 162.457031 36.839844 L 162.328125 37.191406 L 162.472656 37.671875 L 162.886719 37.910156 L 163.269531 37.992188 L 163.65625 38.3125 L 163.816406 38.710938 L 163.429688 40.597656 L 163.144531 40.902344 L 162.777344 41.03125 Z M 161.992188 40.917969 " fill-opacity="1" fill-rule="nonzero"/><path fill="#ffffff" d="M 174.742188 28.492188 L 174.390625 28.398438 L 174.183594 28.332031 L 173.75 28.0625 L 173.992188 27.742188 L 174.167969 27.566406 L 174.296875 27.375 L 174.503906 27.183594 L 174.644531 26.976562 L 174.804688 26.832031 L 176.117188 25.425781 L 176.453125 25.390625 L 177.570312 26.304688 L 177.761719 26.382812 L 178.542969 26.976562 L 178.6875 27.261719 L 178.433594 27.566406 L 178.257812 27.644531 L 176.609375 28.574219 L 176.433594 28.734375 L 176.195312 28.828125 L 175.765625 28.84375 L 175.285156 28.703125 L 175.09375 28.667969 Z M 174.4375 44.625 L 174.054688 44.464844 L 173.703125 44.144531 L 173.433594 43.761719 L 173.417969 43.378906 L 173.382812 42.976562 L 173.128906 42.5625 L 172.792969 42.226562 L 172.363281 42.132812 L 172.042969 41.988281 L 170.238281 41.394531 L 169.933594 41.25 L 169.121094 41.058594 L 168.785156 40.882812 L 168.335938 40.949219 L 167.890625 41.1875 L 167.347656 41.683594 L 166.882812 41.90625 L 166.402344 41.890625 L 165.382812 41.570312 L 165.015625 41.425781 L 164.296875 41.21875 L 163.960938 40.980469 L 164.007812 40.5 L 164.246094 40.148438 L 164.871094 39.558594 L 165.0625 39.253906 L 165.367188 39.0625 L 165.878906 38.40625 L 166.402344 37.925781 L 166.644531 37.589844 L 166.929688 37.398438 L 167.1875 37.03125 L 170.382812 33.707031 L 170.589844 33.402344 L 170.910156 33.113281 L 171.132812 32.808594 L 171.4375 32.601562 L 172.714844 31.132812 L 172.984375 30.921875 L 173.226562 30.605469 L 173.511719 30.363281 L 173.925781 30.15625 L 174.597656 30.140625 L 175.140625 30.539062 L 175.332031 30.972656 L 175.476562 31.707031 L 175.492188 32.089844 L 175.574219 32.492188 L 175.558594 32.890625 L 175.910156 35.863281 L 175.910156 36.3125 L 176.085938 37.128906 L 176.085938 37.445312 L 176.164062 37.765625 L 176.132812 38.214844 L 176.195312 38.628906 L 176.292969 38.949219 L 176.433594 40.867188 L 176.578125 41.667969 L 176.609375 42.433594 L 176.785156 43.570312 L 176.835938 44.320312 L 176.820312 44.800781 L 176.628906 45.214844 L 176.085938 45.136719 L 175.492188 44.960938 L 175.15625 44.816406 Z M 171.789062 38.644531 L 172.539062 38.886719 L 172.875 38.820312 L 173.066406 38.519531 L 172.855469 36.199219 L 172.648438 35.976562 L 172.378906 36.070312 L 170.859375 37.765625 L 170.765625 38.117188 L 171.019531 38.34375 L 171.453125 38.453125 Z M 171.789062 38.644531 " fill-opacity="1" fill-rule="nonzero"/><path fill="#ffffff" d="M 137.78125 49.449219 L 137.382812 49.402344 L 137.191406 49.433594 L 136.007812 49.417969 L 135.816406 49.433594 L 135.625 49.339844 L 135.53125 49.035156 L 135.53125 48.539062 L 135.496094 48.363281 L 135.511719 42.945312 L 135.59375 42.734375 L 135.816406 42.640625 L 136.007812 42.65625 L 136.183594 42.625 L 138.390625 42.640625 L 138.964844 42.734375 L 139.171875 42.785156 L 139.332031 42.863281 L 139.523438 42.894531 L 139.714844 43.007812 L 140.210938 43.328125 L 140.722656 43.902344 L 141.054688 44.414062 L 141.121094 44.605469 L 141.246094 44.972656 L 141.390625 45.742188 L 141.390625 46.03125 L 141.375 46.332031 L 141.375 46.542969 L 141.34375 46.734375 L 141.28125 46.894531 L 141.246094 47.101562 L 141.199219 47.277344 L 141.039062 47.660156 L 140.929688 47.820312 L 140.832031 48.011719 L 140.355469 48.621094 L 139.699219 49.066406 L 139.25 49.257812 L 138.851562 49.324219 L 138.566406 49.402344 L 138.371094 49.402344 L 138.070312 49.449219 Z M 137.75 47.851562 L 138.039062 47.851562 L 138.453125 47.804688 L 138.738281 47.707031 L 139.074219 47.5 L 139.425781 47.085938 L 139.585938 46.734375 L 139.699219 46.046875 L 139.539062 45.199219 L 139.441406 45.023438 L 139.347656 44.863281 L 139.203125 44.6875 L 139.058594 44.542969 L 138.914062 44.445312 L 138.738281 44.351562 L 138.355469 44.238281 L 138.085938 44.222656 L 137.671875 44.222656 L 137.367188 44.304688 L 137.269531 44.511719 L 137.253906 44.6875 L 137.269531 46.03125 L 137.222656 46.507812 L 137.269531 46.988281 L 137.253906 47.386719 L 137.269531 47.546875 L 137.351562 47.722656 L 137.574219 47.835938 Z M 137.75 47.851562 " fill-opacity="1" fill-rule="nonzero"/><path fill="#ffffff" d="M 145.726562 49.546875 L 145.152344 49.515625 L 144.320312 49.273438 L 144.144531 49.195312 L 143.492188 48.84375 L 143.363281 48.699219 L 143.09375 48.445312 L 142.628906 47.820312 L 142.53125 47.644531 L 142.46875 47.4375 L 142.324219 47.117188 L 142.230469 46.492188 L 142.261719 45.375 L 142.339844 44.957031 L 142.515625 44.414062 L 142.613281 44.253906 L 142.949219 43.777344 L 143.203125 43.488281 L 143.507812 43.265625 L 143.652344 43.152344 L 144.144531 42.832031 L 144.511719 42.734375 L 144.6875 42.671875 L 144.882812 42.609375 L 145.074219 42.558594 L 145.757812 42.527344 L 146.207031 42.542969 L 147.484375 42.945312 L 147.980469 43.246094 L 148.394531 43.632812 L 148.523438 43.808594 L 148.632812 43.917969 L 148.761719 44.078125 L 148.828125 44.253906 L 149.003906 44.574219 L 149.050781 44.796875 L 149.128906 45.007812 L 149.210938 45.359375 L 149.257812 46.03125 L 149.210938 46.71875 L 149.160156 46.925781 L 149.113281 47.085938 L 149.082031 47.277344 L 149.019531 47.453125 L 148.632812 48.125 L 148.507812 48.300781 L 147.835938 48.957031 L 146.957031 49.339844 L 146.589844 49.449219 Z M 145.457031 47.835938 L 146.03125 47.820312 L 146.207031 47.773438 L 146.382812 47.757812 L 146.542969 47.660156 L 146.71875 47.582031 L 147.019531 47.355469 L 147.132812 47.179688 L 147.214844 47.035156 L 147.324219 46.894531 L 147.40625 46.492188 L 147.46875 45.996094 L 147.4375 45.582031 L 147.355469 45.40625 L 147.308594 45.214844 L 147.230469 45.039062 L 147.003906 44.71875 L 146.703125 44.496094 L 146.191406 44.269531 L 145.726562 44.238281 L 145.28125 44.269531 L 145.074219 44.320312 L 144.898438 44.414062 L 144.625 44.605469 L 144.464844 44.734375 L 144.355469 44.894531 L 144.257812 45.054688 L 144.144531 45.183594 L 144.082031 45.359375 L 144.019531 45.726562 L 144.003906 46.015625 L 144.050781 46.492188 L 144.242188 47.035156 L 144.371094 47.179688 L 144.464844 47.308594 L 144.769531 47.582031 L 145.089844 47.757812 L 145.265625 47.773438 Z M 145.457031 47.835938 " fill-opacity="1" fill-rule="nonzero"/><path stroke-linecap="round" transform="matrix(0.245316, 0, 0, 0.247578, 201.189274, 380.441206)" fill="none" stroke-linejoin="round" d="M 32.651513 41.670088 L 32.651513 16.961989 C 32.651513 10.903298 35.692869 7.873953 41.759657 7.873953 L 66.456739 7.873953 " stroke="#ffffff" stroke-width="8" stroke-opacity="1" stroke-miterlimit="4"/><path stroke-linecap="round" transform="matrix(0.245316, 0, 0, 0.247578, 201.189274, 380.441206)" fill="none" stroke-linejoin="round" d="M 232.600744 7.873953 L 257.297825 7.873953 C 263.364613 7.873953 266.405969 10.903298 266.405969 16.961989 L 266.405969 41.670088 " stroke="#ffffff" stroke-width="8" stroke-opacity="1" stroke-miterlimit="4"/><path stroke-linecap="round" transform="matrix(0.245316, 0, 0, 0.247578, 201.189274, 380.441206)" fill="none" stroke-linejoin="round" d="M 32.651513 81.966694 L 32.651513 106.674793 C 32.651513 112.733484 35.692869 115.762829 41.759657 115.762829 L 66.456739 115.762829 " stroke="#ffffff" stroke-width="8" stroke-opacity="1" stroke-miterlimit="4"/><path stroke-linecap="round" transform="matrix(0.245316, 0, 0, 0.247578, 201.189274, 380.441206)" fill="none" stroke-linejoin="round" d="M 266.405969 81.966694 L 266.405969 106.674793 C 266.405969 112.733484 263.364613 115.762829 257.297825 115.762829 L 232.600744 115.762829 " stroke="#ffffff" stroke-width="8" stroke-opacity="1" stroke-miterlimit="4"/><path stroke-linecap="round" transform="matrix(0.245316, 0, 0, 0.247578, 201.189274, 380.441206)" fill="none" stroke-linejoin="round" d="M 118.303095 97.507867 C 139.098961 113.964155 159.894828 113.964155 180.706617 97.507867 " stroke="#ffffff" stroke-width="8" stroke-opacity="1" stroke-miterlimit="4"/><path fill="#ef164d" d="M 237.859375 389.113281 C 239.246094 389.113281 240.371094 387.980469 240.371094 386.578125 C 240.371094 385.179688 239.246094 384.042969 237.859375 384.042969 C 236.46875 384.042969 235.34375 385.179688 235.34375 386.578125 C 235.34375 387.980469 236.46875 389.113281 237.859375 389.113281 Z M 237.859375 389.113281 " fill-opacity="1" fill-rule="nonzero"/><path fill="#ffffff" d="M 215.261719 394.390625 L 215.261719 392.84375 L 217.488281 392.84375 C 217.535156 392.921875 217.578125 393.03125 217.617188 393.164062 C 217.664062 393.300781 217.6875 393.445312 217.6875 393.605469 C 217.6875 393.882812 217.625 394.082031 217.5 394.210938 C 217.382812 394.328125 217.222656 394.390625 217.015625 394.390625 Z M 215.558594 392.464844 L 215.558594 394.152344 L 213.660156 394.152344 L 213.660156 392.390625 C 213.660156 391.855469 213.777344 391.417969 214.015625 391.085938 C 214.25 390.746094 214.5625 390.496094 214.957031 390.335938 C 215.355469 390.179688 215.796875 390.097656 216.277344 390.097656 C 216.855469 390.097656 217.285156 390.179688 217.558594 390.335938 C 217.832031 390.488281 217.972656 390.75 217.972656 391.121094 C 217.972656 391.277344 217.9375 391.421875 217.863281 391.546875 C 217.800781 391.675781 217.730469 391.769531 217.652344 391.832031 C 217.503906 391.792969 217.347656 391.761719 217.183594 391.738281 C 217.023438 391.707031 216.839844 391.691406 216.628906 391.691406 C 216.292969 391.691406 216.027344 391.75 215.839844 391.871094 C 215.652344 391.980469 215.558594 392.179688 215.558594 392.464844 Z M 213.660156 393.855469 L 215.664062 393.855469 L 215.664062 398.15625 C 215.578125 398.179688 215.449219 398.203125 215.285156 398.226562 C 215.128906 398.25 214.957031 398.261719 214.769531 398.261719 C 214.382812 398.261719 214.101562 398.195312 213.921875 398.0625 C 213.746094 397.925781 213.660156 397.675781 213.660156 397.3125 Z M 224.355469 395.28125 C 224.355469 395.914062 224.226562 396.460938 223.96875 396.921875 C 223.714844 397.378906 223.359375 397.734375 222.894531 397.988281 C 222.441406 398.234375 221.898438 398.359375 221.269531 398.359375 C 220.652344 398.359375 220.109375 398.234375 219.644531 397.988281 C 219.183594 397.742188 218.820312 397.390625 218.5625 396.933594 C 218.3125 396.472656 218.1875 395.921875 218.1875 395.28125 C 218.1875 394.652344 218.316406 394.113281 218.574219 393.652344 C 218.832031 393.191406 219.195312 392.839844 219.65625 392.59375 C 220.121094 392.339844 220.660156 392.214844 221.269531 392.214844 C 221.890625 392.214844 222.429688 392.339844 222.882812 392.59375 C 223.347656 392.847656 223.707031 393.203125 223.96875 393.664062 C 224.226562 394.125 224.355469 394.660156 224.355469 395.28125 Z M 221.269531 393.792969 C 220.949219 393.792969 220.695312 393.925781 220.503906 394.1875 C 220.324219 394.441406 220.234375 394.804688 220.234375 395.28125 C 220.234375 395.769531 220.324219 396.144531 220.503906 396.398438 C 220.6875 396.652344 220.941406 396.777344 221.269531 396.777344 C 221.601562 396.777344 221.855469 396.652344 222.035156 396.398438 C 222.214844 396.136719 222.308594 395.761719 222.308594 395.28125 C 222.308594 394.8125 222.210938 394.449219 222.023438 394.1875 C 221.84375 393.925781 221.59375 393.792969 221.269531 393.792969 Z M 225.355469 395.03125 L 227.335938 395.03125 L 227.335938 396.183594 C 227.335938 396.382812 227.398438 396.527344 227.523438 396.621094 C 227.65625 396.710938 227.839844 396.753906 228.078125 396.753906 C 228.195312 396.753906 228.316406 396.746094 228.441406 396.730469 C 228.566406 396.707031 228.675781 396.679688 228.769531 396.648438 C 228.839844 396.726562 228.902344 396.820312 228.949219 396.933594 C 229.003906 397.042969 229.03125 397.171875 229.03125 397.324219 C 229.03125 397.617188 228.917969 397.863281 228.6875 398.0625 C 228.46875 398.25 228.078125 398.347656 227.511719 398.347656 C 226.820312 398.347656 226.285156 398.1875 225.910156 397.871094 C 225.539062 397.554688 225.355469 397.039062 225.355469 396.324219 Z M 226.652344 394.066406 L 226.652344 392.523438 L 228.875 392.523438 C 228.925781 392.601562 228.96875 392.710938 229.007812 392.84375 C 229.054688 392.980469 229.078125 393.125 229.078125 393.285156 C 229.078125 393.5625 229.015625 393.761719 228.886719 393.890625 C 228.769531 394.007812 228.609375 394.066406 228.40625 394.066406 Z M 227.335938 395.316406 L 225.355469 395.316406 L 225.355469 391.050781 C 225.441406 391.027344 225.5625 391 225.722656 390.976562 C 225.886719 390.945312 226.058594 390.929688 226.238281 390.929688 C 226.625 390.929688 226.902344 390.996094 227.074219 391.132812 C 227.246094 391.265625 227.335938 391.515625 227.335938 391.882812 Z M 235.890625 395.28125 C 235.890625 395.914062 235.761719 396.460938 235.5 396.921875 C 235.25 397.378906 234.890625 397.734375 234.429688 397.988281 C 233.972656 398.234375 233.433594 398.359375 232.804688 398.359375 C 232.183594 398.359375 231.644531 398.234375 231.179688 397.988281 C 230.714844 397.742188 230.355469 397.390625 230.097656 396.933594 C 229.84375 396.472656 229.71875 395.921875 229.71875 395.28125 C 229.71875 394.652344 229.847656 394.113281 230.109375 393.652344 C 230.367188 393.191406 230.726562 392.839844 231.191406 392.59375 C 231.65625 392.339844 232.191406 392.214844 232.804688 392.214844 C 233.425781 392.214844 233.960938 392.339844 234.417969 392.59375 C 234.878906 392.847656 235.242188 393.203125 235.5 393.664062 C 235.761719 394.125 235.890625 394.660156 235.890625 395.28125 Z M 232.804688 393.792969 C 232.484375 393.792969 232.226562 393.925781 232.039062 394.1875 C 231.859375 394.441406 231.769531 394.804688 231.769531 395.28125 C 231.769531 395.769531 231.859375 396.144531 232.039062 396.398438 C 232.21875 396.652344 232.476562 396.777344 232.804688 396.777344 C 233.132812 396.777344 233.390625 396.652344 233.570312 396.398438 C 233.75 396.136719 233.839844 395.761719 233.839844 395.28125 C 233.839844 394.8125 233.746094 394.449219 233.558594 394.1875 C 233.378906 393.925781 233.125 393.792969 232.804688 393.792969 Z M 237.808594 398.167969 L 237.019531 398.167969 C 236.894531 398.058594 236.792969 397.925781 236.714844 397.777344 C 236.644531 397.625 236.609375 397.453125 236.609375 397.265625 C 236.609375 397.105469 236.644531 396.953125 236.714844 396.800781 C 236.792969 396.644531 236.886719 396.496094 236.996094 396.363281 L 240.339844 392.402344 L 241.035156 392.402344 C 241.160156 392.515625 241.257812 392.644531 241.332031 392.796875 C 241.410156 392.945312 241.449219 393.117188 241.449219 393.308594 C 241.449219 393.464844 241.410156 393.625 241.332031 393.78125 C 241.257812 393.933594 241.167969 394.074219 241.058594 394.210938 Z M 240.613281 392.402344 L 240.613281 393.960938 L 236.855469 393.960938 C 236.808594 393.875 236.761719 393.761719 236.714844 393.628906 C 236.675781 393.484375 236.65625 393.339844 236.65625 393.1875 C 236.65625 392.910156 236.71875 392.714844 236.84375 392.59375 C 236.96875 392.46875 237.128906 392.402344 237.328125 392.402344 Z M 237.632812 398.167969 L 237.632812 396.609375 L 241.390625 396.609375 C 241.4375 396.691406 241.480469 396.800781 241.519531 396.945312 C 241.566406 397.078125 241.589844 397.226562 241.589844 397.382812 C 241.589844 397.660156 241.527344 397.863281 241.402344 397.988281 C 241.28125 398.109375 241.121094 398.167969 240.917969 398.167969 Z M 244.9375 396.882812 C 245.070312 396.882812 245.21875 396.871094 245.375 396.847656 C 245.539062 396.816406 245.660156 396.777344 245.738281 396.730469 L 245.738281 395.777344 L 244.890625 395.851562 C 244.671875 395.867188 244.492188 395.914062 244.351562 395.992188 C 244.207031 396.074219 244.136719 396.191406 244.136719 396.347656 C 244.136719 396.507812 244.195312 396.640625 244.3125 396.742188 C 244.441406 396.835938 244.648438 396.882812 244.9375 396.882812 Z M 244.84375 392.214844 C 245.699219 392.214844 246.382812 392.390625 246.894531 392.75 C 247.410156 393.097656 247.671875 393.644531 247.671875 394.390625 L 247.671875 397.050781 C 247.671875 397.257812 247.613281 397.425781 247.492188 397.5625 C 247.382812 397.6875 247.25 397.800781 247.09375 397.894531 C 246.84375 398.046875 246.535156 398.160156 246.175781 398.238281 C 245.8125 398.316406 245.402344 398.359375 244.9375 398.359375 C 244.113281 398.359375 243.449219 398.199219 242.949219 397.882812 C 242.453125 397.558594 242.207031 397.070312 242.207031 396.421875 C 242.207031 395.875 242.367188 395.453125 242.6875 395.160156 C 243.019531 394.867188 243.519531 394.6875 244.183594 394.613281 L 245.726562 394.449219 L 245.726562 394.363281 C 245.726562 394.136719 245.625 393.972656 245.421875 393.878906 C 245.226562 393.773438 244.9375 393.722656 244.5625 393.722656 C 244.269531 393.722656 243.980469 393.753906 243.691406 393.816406 C 243.40625 393.882812 243.152344 393.960938 242.925781 394.054688 C 242.824219 393.984375 242.738281 393.878906 242.664062 393.734375 C 242.59375 393.585938 242.558594 393.429688 242.558594 393.273438 C 242.558594 392.890625 242.761719 392.621094 243.160156 392.464844 C 243.386719 392.375 243.65625 392.3125 243.960938 392.273438 C 244.273438 392.234375 244.570312 392.214844 244.84375 392.214844 Z M 252.554688 396.609375 L 252.554688 393.164062 L 254.546875 393.164062 L 254.546875 396.894531 C 254.546875 397.09375 254.503906 397.265625 254.417969 397.40625 C 254.339844 397.550781 254.207031 397.675781 254.027344 397.789062 C 253.800781 397.9375 253.507812 398.070312 253.144531 398.179688 C 252.785156 398.296875 252.371094 398.359375 251.910156 398.359375 C 251.226562 398.359375 250.640625 398.242188 250.152344 398.011719 C 249.667969 397.785156 249.292969 397.441406 249.035156 396.992188 C 248.777344 396.53125 248.648438 395.96875 248.648438 395.304688 C 248.648438 394.605469 248.78125 394.03125 249.046875 393.582031 C 249.3125 393.121094 249.675781 392.78125 250.128906 392.558594 C 250.59375 392.328125 251.109375 392.214844 251.671875 392.214844 C 251.949219 392.214844 252.1875 392.242188 252.390625 392.296875 C 252.59375 392.351562 252.765625 392.417969 252.898438 392.488281 L 252.898438 394.128906 C 252.796875 394.046875 252.664062 393.972656 252.496094 393.902344 C 252.339844 393.832031 252.160156 393.792969 251.957031 393.792969 C 251.6875 393.792969 251.457031 393.851562 251.261719 393.960938 C 251.074219 394.070312 250.925781 394.238281 250.824219 394.460938 C 250.722656 394.683594 250.671875 394.964844 250.671875 395.304688 C 250.671875 395.804688 250.777344 396.171875 250.988281 396.410156 C 251.210938 396.648438 251.511719 396.765625 251.898438 396.765625 C 252.039062 396.765625 252.167969 396.75 252.285156 396.71875 C 252.402344 396.679688 252.492188 396.644531 252.554688 396.609375 Z M 254.546875 393.546875 L 252.542969 393.546875 L 252.542969 390.417969 C 252.628906 390.394531 252.753906 390.371094 252.910156 390.347656 C 253.074219 390.324219 253.25 390.3125 253.4375 390.3125 C 253.832031 390.3125 254.113281 390.378906 254.289062 390.515625 C 254.460938 390.640625 254.546875 390.890625 254.546875 391.261719 Z M 258.242188 396.882812 C 258.375 396.882812 258.523438 396.871094 258.679688 396.847656 C 258.84375 396.816406 258.964844 396.777344 259.042969 396.730469 L 259.042969 395.777344 L 258.195312 395.851562 C 257.976562 395.867188 257.796875 395.914062 257.652344 395.992188 C 257.511719 396.074219 257.441406 396.191406 257.441406 396.347656 C 257.441406 396.507812 257.5 396.640625 257.617188 396.742188 C 257.746094 396.835938 257.953125 396.882812 258.242188 396.882812 Z M 258.148438 392.214844 C 259.003906 392.214844 259.6875 392.390625 260.199219 392.75 C 260.714844 393.097656 260.976562 393.644531 260.976562 394.390625 L 260.976562 397.050781 C 260.976562 397.257812 260.914062 397.425781 260.796875 397.5625 C 260.6875 397.6875 260.554688 397.800781 260.398438 397.894531 C 260.148438 398.046875 259.839844 398.160156 259.480469 398.238281 C 259.117188 398.316406 258.707031 398.359375 258.242188 398.359375 C 257.417969 398.359375 256.753906 398.199219 256.253906 397.882812 C 255.757812 397.558594 255.511719 397.070312 255.511719 396.421875 C 255.511719 395.875 255.671875 395.453125 255.992188 395.160156 C 256.324219 394.867188 256.820312 394.6875 257.488281 394.613281 L 259.03125 394.449219 L 259.03125 394.363281 C 259.03125 394.136719 258.929688 393.972656 258.726562 393.878906 C 258.53125 393.773438 258.242188 393.722656 257.867188 393.722656 C 257.574219 393.722656 257.285156 393.753906 256.996094 393.816406 C 256.710938 393.882812 256.457031 393.960938 256.230469 394.054688 C 256.128906 393.984375 256.039062 393.878906 255.96875 393.734375 C 255.898438 393.585938 255.863281 393.429688 255.863281 393.273438 C 255.863281 392.890625 256.066406 392.621094 256.464844 392.464844 C 256.691406 392.375 256.960938 392.3125 257.265625 392.273438 C 257.578125 392.234375 257.875 392.214844 258.148438 392.214844 Z M 258.148438 392.214844 " fill-opacity="1" fill-rule="nonzero"/><g transform="matrix(1, 0, 0, 1, 207, 410)"><g clip-path="url(#0312c88ad1)"><g clip-path="url(#f20c40494c)"><g fill="#ffffff" fill-opacity="1"><g transform="translate(0.367255, 8.554806)"><g><path d="M 3.890625 0 C 3.671875 0 3.46875 -0.03125 3.28125 -0.09375 C 3.09375 -0.15625 2.929688 -0.25 2.796875 -0.375 C 2.660156 -0.5 2.550781 -0.65625 2.46875 -0.84375 C 2.394531 -1.03125 2.359375 -1.242188 2.359375 -1.484375 C 2.359375 -1.785156 2.40625 -2.050781 2.5 -2.28125 C 2.601562 -2.507812 2.742188 -2.703125 2.921875 -2.859375 C 3.097656 -3.015625 3.300781 -3.132812 3.53125 -3.21875 C 3.757812 -3.300781 4.003906 -3.34375 4.265625 -3.34375 C 4.503906 -3.34375 4.734375 -3.3125 4.953125 -3.25 C 5.171875 -3.1875 5.359375 -3.097656 5.515625 -2.984375 C 5.710938 -2.847656 5.8125 -2.679688 5.8125 -2.484375 C 5.8125 -2.460938 5.8125 -2.4375 5.8125 -2.40625 C 5.8125 -2.375 5.8125 -2.347656 5.8125 -2.328125 L 5.65625 -0.96875 C 5.664062 -0.957031 5.691406 -0.945312 5.734375 -0.9375 C 5.773438 -0.9375 5.8125 -0.9375 5.84375 -0.9375 C 6.0625 -0.9375 6.238281 -1.039062 6.375 -1.25 C 6.507812 -1.46875 6.578125 -1.75 6.578125 -2.09375 C 6.578125 -2.382812 6.515625 -2.648438 6.390625 -2.890625 C 6.273438 -3.128906 6.113281 -3.332031 5.90625 -3.5 C 5.707031 -3.675781 5.460938 -3.8125 5.171875 -3.90625 C 4.890625 -4 4.582031 -4.046875 4.25 -4.046875 C 3.851562 -4.046875 3.488281 -3.984375 3.15625 -3.859375 C 2.832031 -3.734375 2.550781 -3.554688 2.3125 -3.328125 C 2.082031 -3.109375 1.90625 -2.84375 1.78125 -2.53125 C 1.65625 -2.226562 1.59375 -1.898438 1.59375 -1.546875 C 1.59375 -1.191406 1.644531 -0.875 1.75 -0.59375 C 1.863281 -0.320312 2.019531 -0.0859375 2.21875 0.109375 C 2.425781 0.304688 2.664062 0.453125 2.9375 0.546875 C 3.21875 0.648438 3.519531 0.703125 3.84375 0.703125 C 4.070312 0.703125 4.257812 0.691406 4.40625 0.671875 C 4.550781 0.660156 4.675781 0.644531 4.78125 0.625 C 4.820312 0.675781 4.851562 0.742188 4.875 0.828125 C 4.90625 0.910156 4.921875 0.988281 4.921875 1.0625 C 4.921875 1.164062 4.898438 1.253906 4.859375 1.328125 C 4.828125 1.410156 4.765625 1.476562 4.671875 1.53125 C 4.585938 1.59375 4.46875 1.640625 4.3125 1.671875 C 4.164062 1.703125 3.984375 1.71875 3.765625 1.71875 C 3.367188 1.71875 2.96875 1.65625 2.5625 1.53125 C 2.164062 1.414062 1.800781 1.226562 1.46875 0.96875 C 1.144531 0.707031 0.878906 0.367188 0.671875 -0.046875 C 0.472656 -0.460938 0.375 -0.960938 0.375 -1.546875 C 0.375 -2.078125 0.472656 -2.554688 0.671875 -2.984375 C 0.867188 -3.421875 1.140625 -3.785156 1.484375 -4.078125 C 1.835938 -4.378906 2.25 -4.609375 2.71875 -4.765625 C 3.1875 -4.929688 3.695312 -5.015625 4.25 -5.015625 C 4.757812 -5.015625 5.234375 -4.941406 5.671875 -4.796875 C 6.109375 -4.660156 6.484375 -4.46875 6.796875 -4.21875 C 7.109375 -3.96875 7.347656 -3.660156 7.515625 -3.296875 C 7.691406 -2.929688 7.78125 -2.53125 7.78125 -2.09375 C 7.78125 -1.414062 7.609375 -0.890625 7.265625 -0.515625 C 6.929688 -0.148438 6.457031 0.03125 5.84375 0.03125 C 5.6875 0.03125 5.515625 0.0078125 5.328125 -0.03125 C 5.148438 -0.0703125 4.988281 -0.140625 4.84375 -0.234375 C 4.738281 -0.171875 4.601562 -0.113281 4.4375 -0.0625 C 4.28125 -0.0195312 4.097656 0 3.890625 0 Z M 4.609375 -2.265625 C 4.578125 -2.285156 4.53125 -2.300781 4.46875 -2.3125 C 4.414062 -2.332031 4.34375 -2.34375 4.25 -2.34375 C 4.175781 -2.34375 4.097656 -2.320312 4.015625 -2.28125 C 3.941406 -2.25 3.875 -2.195312 3.8125 -2.125 C 3.757812 -2.0625 3.710938 -1.976562 3.671875 -1.875 C 3.640625 -1.769531 3.625 -1.644531 3.625 -1.5 C 3.625 -1.332031 3.664062 -1.203125 3.75 -1.109375 C 3.832031 -1.015625 3.953125 -0.96875 4.109375 -0.96875 C 4.203125 -0.96875 4.273438 -0.976562 4.328125 -1 C 4.390625 -1.019531 4.441406 -1.046875 4.484375 -1.078125 Z M 4.609375 -2.265625 "/></g></g></g></g><g fill="#ffffff" fill-opacity="1"><g transform="translate(8.45122, 8.554806)"><g><path d="M 0.40625 -3.671875 C 0.40625 -3.929688 0.445312 -4.148438 0.53125 -4.328125 C 0.625 -4.515625 0.742188 -4.664062 0.890625 -4.78125 C 1.046875 -4.90625 1.222656 -4.992188 1.421875 -5.046875 C 1.628906 -5.109375 1.851562 -5.140625 2.09375 -5.140625 C 2.457031 -5.140625 2.726562 -5.085938 2.90625 -4.984375 C 3.082031 -4.890625 3.171875 -4.722656 3.171875 -4.484375 C 3.171875 -4.378906 3.148438 -4.285156 3.109375 -4.203125 C 3.066406 -4.128906 3.019531 -4.070312 2.96875 -4.03125 C 2.875 -4.050781 2.773438 -4.070312 2.671875 -4.09375 C 2.566406 -4.113281 2.445312 -4.125 2.3125 -4.125 C 2.09375 -4.125 1.921875 -4.085938 1.796875 -4.015625 C 1.679688 -3.941406 1.625 -3.8125 1.625 -3.625 L 1.625 -3.390625 L 2.859375 -3.390625 C 2.890625 -3.335938 2.921875 -3.269531 2.953125 -3.1875 C 2.984375 -3.101562 3 -3.007812 3 -2.90625 C 3 -2.726562 2.957031 -2.597656 2.875 -2.515625 C 2.800781 -2.441406 2.695312 -2.40625 2.5625 -2.40625 L 1.6875 -2.40625 L 1.6875 0 C 1.644531 0.0078125 1.566406 0.0195312 1.453125 0.03125 C 1.347656 0.0507812 1.238281 0.0625 1.125 0.0625 C 1.007812 0.0625 0.90625 0.0507812 0.8125 0.03125 C 0.726562 0.0195312 0.65625 -0.00390625 0.59375 -0.046875 C 0.53125 -0.0976562 0.484375 -0.160156 0.453125 -0.234375 C 0.421875 -0.316406 0.40625 -0.421875 0.40625 -0.546875 Z M 0.40625 -3.671875 "/></g></g></g><g fill="#ffffff" fill-opacity="1"><g transform="translate(11.536545, 8.554806)"><g><path d="M 4.203125 -1.84375 C 4.203125 -1.53125 4.148438 -1.25 4.046875 -1 C 3.953125 -0.757812 3.816406 -0.554688 3.640625 -0.390625 C 3.472656 -0.222656 3.265625 -0.09375 3.015625 0 C 2.773438 0.0820312 2.507812 0.125 2.21875 0.125 C 1.914062 0.125 1.644531 0.078125 1.40625 -0.015625 C 1.164062 -0.109375 0.957031 -0.238281 0.78125 -0.40625 C 0.601562 -0.570312 0.46875 -0.773438 0.375 -1.015625 C 0.28125 -1.265625 0.234375 -1.539062 0.234375 -1.84375 C 0.234375 -2.132812 0.28125 -2.398438 0.375 -2.640625 C 0.46875 -2.890625 0.601562 -3.097656 0.78125 -3.265625 C 0.957031 -3.429688 1.164062 -3.554688 1.40625 -3.640625 C 1.644531 -3.734375 1.914062 -3.78125 2.21875 -3.78125 C 2.507812 -3.78125 2.773438 -3.734375 3.015625 -3.640625 C 3.265625 -3.554688 3.472656 -3.425781 3.640625 -3.25 C 3.816406 -3.082031 3.953125 -2.878906 4.046875 -2.640625 C 4.148438 -2.398438 4.203125 -2.132812 4.203125 -1.84375 Z M 1.546875 -1.84375 C 1.546875 -1.53125 1.601562 -1.289062 1.71875 -1.125 C 1.84375 -0.96875 2.007812 -0.890625 2.21875 -0.890625 C 2.4375 -0.890625 2.597656 -0.972656 2.703125 -1.140625 C 2.816406 -1.304688 2.875 -1.539062 2.875 -1.84375 C 2.875 -2.144531 2.816406 -2.375 2.703125 -2.53125 C 2.585938 -2.695312 2.425781 -2.78125 2.21875 -2.78125 C 2 -2.78125 1.832031 -2.695312 1.71875 -2.53125 C 1.601562 -2.375 1.546875 -2.144531 1.546875 -1.84375 Z M 1.546875 -1.84375 "/></g></g></g><g fill="#ffffff" fill-opacity="1"><g transform="translate(15.967979, 8.554806)"><g><path d="M 1.671875 -1.265625 C 1.671875 -1.128906 1.710938 -1.035156 1.796875 -0.984375 C 1.878906 -0.929688 2 -0.90625 2.15625 -0.90625 C 2.226562 -0.90625 2.304688 -0.910156 2.390625 -0.921875 C 2.472656 -0.929688 2.539062 -0.945312 2.59375 -0.96875 C 2.644531 -0.914062 2.6875 -0.851562 2.71875 -0.78125 C 2.75 -0.71875 2.765625 -0.632812 2.765625 -0.53125 C 2.765625 -0.34375 2.691406 -0.1875 2.546875 -0.0625 C 2.410156 0.0507812 2.160156 0.109375 1.796875 0.109375 C 1.347656 0.109375 1.003906 0.0078125 0.765625 -0.1875 C 0.523438 -0.382812 0.40625 -0.710938 0.40625 -1.171875 L 0.40625 -4.40625 C 0.457031 -4.425781 0.535156 -4.441406 0.640625 -4.453125 C 0.742188 -4.472656 0.851562 -4.484375 0.96875 -4.484375 C 1.195312 -4.484375 1.367188 -4.441406 1.484375 -4.359375 C 1.609375 -4.285156 1.671875 -4.125 1.671875 -3.875 L 1.671875 -3.390625 L 2.671875 -3.390625 C 2.703125 -3.335938 2.726562 -3.269531 2.75 -3.1875 C 2.78125 -3.101562 2.796875 -3.007812 2.796875 -2.90625 C 2.796875 -2.726562 2.753906 -2.597656 2.671875 -2.515625 C 2.597656 -2.441406 2.492188 -2.40625 2.359375 -2.40625 L 1.671875 -2.40625 Z M 1.671875 -1.265625 "/></g></g></g><g fill="#ffffff" fill-opacity="1"><g transform="translate(18.947459, 8.554806)"><g><path d="M 4.203125 -1.84375 C 4.203125 -1.53125 4.148438 -1.25 4.046875 -1 C 3.953125 -0.757812 3.816406 -0.554688 3.640625 -0.390625 C 3.472656 -0.222656 3.265625 -0.09375 3.015625 0 C 2.773438 0.0820312 2.507812 0.125 2.21875 0.125 C 1.914062 0.125 1.644531 0.078125 1.40625 -0.015625 C 1.164062 -0.109375 0.957031 -0.238281 0.78125 -0.40625 C 0.601562 -0.570312 0.46875 -0.773438 0.375 -1.015625 C 0.28125 -1.265625 0.234375 -1.539062 0.234375 -1.84375 C 0.234375 -2.132812 0.28125 -2.398438 0.375 -2.640625 C 0.46875 -2.890625 0.601562 -3.097656 0.78125 -3.265625 C 0.957031 -3.429688 1.164062 -3.554688 1.40625 -3.640625 C 1.644531 -3.734375 1.914062 -3.78125 2.21875 -3.78125 C 2.507812 -3.78125 2.773438 -3.734375 3.015625 -3.640625 C 3.265625 -3.554688 3.472656 -3.425781 3.640625 -3.25 C 3.816406 -3.082031 3.953125 -2.878906 4.046875 -2.640625 C 4.148438 -2.398438 4.203125 -2.132812 4.203125 -1.84375 Z M 1.546875 -1.84375 C 1.546875 -1.53125 1.601562 -1.289062 1.71875 -1.125 C 1.84375 -0.96875 2.007812 -0.890625 2.21875 -0.890625 C 2.4375 -0.890625 2.597656 -0.972656 2.703125 -1.140625 C 2.816406 -1.304688 2.875 -1.539062 2.875 -1.84375 C 2.875 -2.144531 2.816406 -2.375 2.703125 -2.53125 C 2.585938 -2.695312 2.425781 -2.78125 2.21875 -2.78125 C 2 -2.78125 1.832031 -2.695312 1.71875 -2.53125 C 1.601562 -2.375 1.546875 -2.144531 1.546875 -1.84375 Z M 1.546875 -1.84375 "/></g></g></g><g fill="#ffffff" fill-opacity="1"><g transform="translate(23.348637, 8.554806)"><g><path d="M 0.515625 0 C 0.441406 -0.0703125 0.378906 -0.15625 0.328125 -0.25 C 0.273438 -0.34375 0.25 -0.453125 0.25 -0.578125 C 0.25 -0.671875 0.273438 -0.765625 0.328125 -0.859375 C 0.378906 -0.960938 0.4375 -1.0625 0.5 -1.15625 L 1.8125 -2.671875 L 0.421875 -2.671875 C 0.390625 -2.734375 0.359375 -2.804688 0.328125 -2.890625 C 0.296875 -2.972656 0.28125 -3.066406 0.28125 -3.171875 C 0.28125 -3.347656 0.316406 -3.472656 0.390625 -3.546875 C 0.472656 -3.628906 0.582031 -3.671875 0.71875 -3.671875 L 3.09375 -3.671875 C 3.175781 -3.597656 3.238281 -3.515625 3.28125 -3.421875 C 3.332031 -3.328125 3.359375 -3.21875 3.359375 -3.09375 C 3.359375 -2.988281 3.332031 -2.882812 3.28125 -2.78125 C 3.238281 -2.6875 3.179688 -2.597656 3.109375 -2.515625 L 1.84375 -0.984375 L 3.328125 -0.984375 C 3.359375 -0.929688 3.382812 -0.863281 3.40625 -0.78125 C 3.4375 -0.695312 3.453125 -0.601562 3.453125 -0.5 C 3.453125 -0.320312 3.410156 -0.191406 3.328125 -0.109375 C 3.253906 -0.0351562 3.15625 0 3.03125 0 Z M 0.515625 0 "/></g></g></g><g fill="#ffffff" fill-opacity="1"><g transform="translate(26.986043, 8.554806)"><g><path d="M 1.96875 -0.8125 C 2.050781 -0.8125 2.144531 -0.820312 2.25 -0.84375 C 2.351562 -0.863281 2.429688 -0.890625 2.484375 -0.921875 L 2.484375 -1.515625 L 1.9375 -1.46875 C 1.789062 -1.457031 1.671875 -1.425781 1.578125 -1.375 C 1.492188 -1.332031 1.453125 -1.257812 1.453125 -1.15625 C 1.453125 -1.050781 1.488281 -0.96875 1.5625 -0.90625 C 1.644531 -0.84375 1.78125 -0.8125 1.96875 -0.8125 Z M 1.90625 -3.78125 C 2.175781 -3.78125 2.421875 -3.753906 2.640625 -3.703125 C 2.867188 -3.648438 3.0625 -3.566406 3.21875 -3.453125 C 3.382812 -3.335938 3.507812 -3.191406 3.59375 -3.015625 C 3.675781 -2.847656 3.71875 -2.644531 3.71875 -2.40625 L 3.71875 -0.703125 C 3.71875 -0.578125 3.679688 -0.472656 3.609375 -0.390625 C 3.535156 -0.304688 3.445312 -0.234375 3.34375 -0.171875 C 3.019531 0.0234375 2.5625 0.125 1.96875 0.125 C 1.695312 0.125 1.453125 0.0976562 1.234375 0.046875 C 1.023438 -0.00390625 0.84375 -0.078125 0.6875 -0.171875 C 0.539062 -0.273438 0.425781 -0.40625 0.34375 -0.5625 C 0.257812 -0.71875 0.21875 -0.898438 0.21875 -1.109375 C 0.21875 -1.460938 0.316406 -1.726562 0.515625 -1.90625 C 0.722656 -2.09375 1.046875 -2.210938 1.484375 -2.265625 L 2.46875 -2.359375 L 2.46875 -2.421875 C 2.46875 -2.566406 2.40625 -2.671875 2.28125 -2.734375 C 2.15625 -2.796875 1.96875 -2.828125 1.71875 -2.828125 C 1.53125 -2.828125 1.34375 -2.804688 1.15625 -2.765625 C 0.976562 -2.722656 0.816406 -2.671875 0.671875 -2.609375 C 0.609375 -2.660156 0.550781 -2.734375 0.5 -2.828125 C 0.457031 -2.921875 0.4375 -3.015625 0.4375 -3.109375 C 0.4375 -3.242188 0.46875 -3.347656 0.53125 -3.421875 C 0.59375 -3.503906 0.691406 -3.570312 0.828125 -3.625 C 0.972656 -3.6875 1.144531 -3.726562 1.34375 -3.75 C 1.539062 -3.769531 1.726562 -3.78125 1.90625 -3.78125 Z M 1.90625 -3.78125 "/></g></g></g><g fill="#ffffff" fill-opacity="1"><g transform="translate(31.099871, 8.554806)"><g><path d="M 0.234375 -1.84375 C 0.234375 -2.175781 0.28125 -2.460938 0.375 -2.703125 C 0.476562 -2.953125 0.617188 -3.15625 0.796875 -3.3125 C 0.984375 -3.46875 1.195312 -3.582031 1.4375 -3.65625 C 1.675781 -3.738281 1.929688 -3.78125 2.203125 -3.78125 C 2.304688 -3.78125 2.40625 -3.769531 2.5 -3.75 C 2.59375 -3.738281 2.671875 -3.722656 2.734375 -3.703125 L 2.734375 -4.921875 C 2.785156 -4.941406 2.863281 -4.957031 2.96875 -4.96875 C 3.082031 -4.988281 3.195312 -5 3.3125 -5 C 3.425781 -5 3.523438 -4.988281 3.609375 -4.96875 C 3.703125 -4.957031 3.78125 -4.925781 3.84375 -4.875 C 3.90625 -4.832031 3.945312 -4.769531 3.96875 -4.6875 C 4 -4.613281 4.015625 -4.515625 4.015625 -4.390625 L 4.015625 -0.8125 C 4.015625 -0.570312 3.90625 -0.378906 3.6875 -0.234375 C 3.539062 -0.140625 3.351562 -0.0546875 3.125 0.015625 C 2.894531 0.0859375 2.628906 0.125 2.328125 0.125 C 1.992188 0.125 1.695312 0.078125 1.4375 -0.015625 C 1.175781 -0.109375 0.957031 -0.238281 0.78125 -0.40625 C 0.601562 -0.582031 0.46875 -0.789062 0.375 -1.03125 C 0.28125 -1.269531 0.234375 -1.539062 0.234375 -1.84375 Z M 2.375 -2.78125 C 2.101562 -2.78125 1.894531 -2.703125 1.75 -2.546875 C 1.601562 -2.390625 1.53125 -2.15625 1.53125 -1.84375 C 1.53125 -1.53125 1.597656 -1.289062 1.734375 -1.125 C 1.867188 -0.96875 2.066406 -0.890625 2.328125 -0.890625 C 2.421875 -0.890625 2.503906 -0.898438 2.578125 -0.921875 C 2.648438 -0.953125 2.707031 -0.988281 2.75 -1.03125 L 2.75 -2.6875 C 2.644531 -2.75 2.519531 -2.78125 2.375 -2.78125 Z M 2.375 -2.78125 "/></g></g></g><g fill="#ffffff" fill-opacity="1"><g transform="translate(35.531305, 8.554806)"><g><path d="M 1.96875 -0.8125 C 2.050781 -0.8125 2.144531 -0.820312 2.25 -0.84375 C 2.351562 -0.863281 2.429688 -0.890625 2.484375 -0.921875 L 2.484375 -1.515625 L 1.9375 -1.46875 C 1.789062 -1.457031 1.671875 -1.425781 1.578125 -1.375 C 1.492188 -1.332031 1.453125 -1.257812 1.453125 -1.15625 C 1.453125 -1.050781 1.488281 -0.96875 1.5625 -0.90625 C 1.644531 -0.84375 1.78125 -0.8125 1.96875 -0.8125 Z M 1.90625 -3.78125 C 2.175781 -3.78125 2.421875 -3.753906 2.640625 -3.703125 C 2.867188 -3.648438 3.0625 -3.566406 3.21875 -3.453125 C 3.382812 -3.335938 3.507812 -3.191406 3.59375 -3.015625 C 3.675781 -2.847656 3.71875 -2.644531 3.71875 -2.40625 L 3.71875 -0.703125 C 3.71875 -0.578125 3.679688 -0.472656 3.609375 -0.390625 C 3.535156 -0.304688 3.445312 -0.234375 3.34375 -0.171875 C 3.019531 0.0234375 2.5625 0.125 1.96875 0.125 C 1.695312 0.125 1.453125 0.0976562 1.234375 0.046875 C 1.023438 -0.00390625 0.84375 -0.078125 0.6875 -0.171875 C 0.539062 -0.273438 0.425781 -0.40625 0.34375 -0.5625 C 0.257812 -0.71875 0.21875 -0.898438 0.21875 -1.109375 C 0.21875 -1.460938 0.316406 -1.726562 0.515625 -1.90625 C 0.722656 -2.09375 1.046875 -2.210938 1.484375 -2.265625 L 2.46875 -2.359375 L 2.46875 -2.421875 C 2.46875 -2.566406 2.40625 -2.671875 2.28125 -2.734375 C 2.15625 -2.796875 1.96875 -2.828125 1.71875 -2.828125 C 1.53125 -2.828125 1.34375 -2.804688 1.15625 -2.765625 C 0.976562 -2.722656 0.816406 -2.671875 0.671875 -2.609375 C 0.609375 -2.660156 0.550781 -2.734375 0.5 -2.828125 C 0.457031 -2.921875 0.4375 -3.015625 0.4375 -3.109375 C 0.4375 -3.242188 0.46875 -3.347656 0.53125 -3.421875 C 0.59375 -3.503906 0.691406 -3.570312 0.828125 -3.625 C 0.972656 -3.6875 1.144531 -3.726562 1.34375 -3.75 C 1.539062 -3.769531 1.726562 -3.78125 1.90625 -3.78125 Z M 1.90625 -3.78125 "/></g></g></g><g fill="#ffffff" fill-opacity="1"><g transform="translate(39.645132, 8.554806)"><g><path d="M 4.203125 -1.84375 C 4.203125 -1.53125 4.148438 -1.25 4.046875 -1 C 3.953125 -0.757812 3.816406 -0.554688 3.640625 -0.390625 C 3.472656 -0.222656 3.265625 -0.09375 3.015625 0 C 2.773438 0.0820312 2.507812 0.125 2.21875 0.125 C 1.914062 0.125 1.644531 0.078125 1.40625 -0.015625 C 1.164062 -0.109375 0.957031 -0.238281 0.78125 -0.40625 C 0.601562 -0.570312 0.46875 -0.773438 0.375 -1.015625 C 0.28125 -1.265625 0.234375 -1.539062 0.234375 -1.84375 C 0.234375 -2.132812 0.28125 -2.398438 0.375 -2.640625 C 0.46875 -2.890625 0.601562 -3.097656 0.78125 -3.265625 C 0.957031 -3.429688 1.164062 -3.554688 1.40625 -3.640625 C 1.644531 -3.734375 1.914062 -3.78125 2.21875 -3.78125 C 2.507812 -3.78125 2.773438 -3.734375 3.015625 -3.640625 C 3.265625 -3.554688 3.472656 -3.425781 3.640625 -3.25 C 3.816406 -3.082031 3.953125 -2.878906 4.046875 -2.640625 C 4.148438 -2.398438 4.203125 -2.132812 4.203125 -1.84375 Z M 1.546875 -1.84375 C 1.546875 -1.53125 1.601562 -1.289062 1.71875 -1.125 C 1.84375 -0.96875 2.007812 -0.890625 2.21875 -0.890625 C 2.4375 -0.890625 2.597656 -0.972656 2.703125 -1.140625 C 2.816406 -1.304688 2.875 -1.539062 2.875 -1.84375 C 2.875 -2.144531 2.816406 -2.375 2.703125 -2.53125 C 2.585938 -2.695312 2.425781 -2.78125 2.21875 -2.78125 C 2 -2.78125 1.832031 -2.695312 1.71875 -2.53125 C 1.601562 -2.375 1.546875 -2.144531 1.546875 -1.84375 Z M 1.546875 -1.84375 "/></g></g></g><g fill="#ffffff" fill-opacity="1"><g transform="translate(44.076566, 8.554806)"><g><path d="M 0.40625 -3.671875 C 0.40625 -3.929688 0.445312 -4.148438 0.53125 -4.328125 C 0.625 -4.515625 0.742188 -4.664062 0.890625 -4.78125 C 1.046875 -4.90625 1.222656 -4.992188 1.421875 -5.046875 C 1.628906 -5.109375 1.851562 -5.140625 2.09375 -5.140625 C 2.457031 -5.140625 2.726562 -5.085938 2.90625 -4.984375 C 3.082031 -4.890625 3.171875 -4.722656 3.171875 -4.484375 C 3.171875 -4.378906 3.148438 -4.285156 3.109375 -4.203125 C 3.066406 -4.128906 3.019531 -4.070312 2.96875 -4.03125 C 2.875 -4.050781 2.773438 -4.070312 2.671875 -4.09375 C 2.566406 -4.113281 2.445312 -4.125 2.3125 -4.125 C 2.09375 -4.125 1.921875 -4.085938 1.796875 -4.015625 C 1.679688 -3.941406 1.625 -3.8125 1.625 -3.625 L 1.625 -3.390625 L 2.859375 -3.390625 C 2.890625 -3.335938 2.921875 -3.269531 2.953125 -3.1875 C 2.984375 -3.101562 3 -3.007812 3 -2.90625 C 3 -2.726562 2.957031 -2.597656 2.875 -2.515625 C 2.800781 -2.441406 2.695312 -2.40625 2.5625 -2.40625 L 1.6875 -2.40625 L 1.6875 0 C 1.644531 0.0078125 1.566406 0.0195312 1.453125 0.03125 C 1.347656 0.0507812 1.238281 0.0625 1.125 0.0625 C 1.007812 0.0625 0.90625 0.0507812 0.8125 0.03125 C 0.726562 0.0195312 0.65625 -0.00390625 0.59375 -0.046875 C 0.53125 -0.0976562 0.484375 -0.160156 0.453125 -0.234375 C 0.421875 -0.316406 0.40625 -0.421875 0.40625 -0.546875 Z M 0.40625 -3.671875 "/></g></g></g><g fill="#ffffff" fill-opacity="1"><g transform="translate(47.305614, 8.554806)"><g><path d="M 0.359375 -4.703125 C 0.359375 -4.890625 0.421875 -5.046875 0.546875 -5.171875 C 0.679688 -5.304688 0.851562 -5.375 1.0625 -5.375 C 1.28125 -5.375 1.453125 -5.304688 1.578125 -5.171875 C 1.703125 -5.046875 1.765625 -4.890625 1.765625 -4.703125 C 1.765625 -4.503906 1.703125 -4.335938 1.578125 -4.203125 C 1.453125 -4.078125 1.28125 -4.015625 1.0625 -4.015625 C 0.851562 -4.015625 0.679688 -4.078125 0.546875 -4.203125 C 0.421875 -4.335938 0.359375 -4.503906 0.359375 -4.703125 Z M 1.703125 0 C 1.648438 0 1.566406 0.0078125 1.453125 0.03125 C 1.347656 0.0507812 1.242188 0.0625 1.140625 0.0625 C 1.023438 0.0625 0.921875 0.0507812 0.828125 0.03125 C 0.742188 0.0195312 0.671875 -0.00390625 0.609375 -0.046875 C 0.546875 -0.0976562 0.5 -0.160156 0.46875 -0.234375 C 0.4375 -0.316406 0.421875 -0.421875 0.421875 -0.546875 L 0.421875 -3.625 C 0.472656 -3.632812 0.550781 -3.644531 0.65625 -3.65625 C 0.769531 -3.675781 0.882812 -3.6875 1 -3.6875 C 1.113281 -3.6875 1.210938 -3.675781 1.296875 -3.65625 C 1.378906 -3.644531 1.453125 -3.617188 1.515625 -3.578125 C 1.578125 -3.535156 1.625 -3.472656 1.65625 -3.390625 C 1.6875 -3.316406 1.703125 -3.210938 1.703125 -3.078125 Z M 1.703125 0 "/></g></g></g><g fill="#ffffff" fill-opacity="1"><g transform="translate(49.438144, 8.554806)"><g><path d="M 2.46875 -2.78125 C 2.34375 -2.78125 2.222656 -2.757812 2.109375 -2.71875 C 1.992188 -2.675781 1.894531 -2.613281 1.8125 -2.53125 C 1.726562 -2.457031 1.660156 -2.363281 1.609375 -2.25 C 1.554688 -2.132812 1.53125 -2 1.53125 -1.84375 C 1.53125 -1.53125 1.617188 -1.296875 1.796875 -1.140625 C 1.984375 -0.984375 2.203125 -0.90625 2.453125 -0.90625 C 2.609375 -0.90625 2.738281 -0.921875 2.84375 -0.953125 C 2.957031 -0.984375 3.054688 -1.019531 3.140625 -1.0625 C 3.242188 -0.988281 3.320312 -0.910156 3.375 -0.828125 C 3.425781 -0.742188 3.453125 -0.644531 3.453125 -0.53125 C 3.453125 -0.332031 3.351562 -0.175781 3.15625 -0.0625 C 2.957031 0.0507812 2.6875 0.109375 2.34375 0.109375 C 2.019531 0.109375 1.726562 0.0625 1.46875 -0.03125 C 1.21875 -0.125 1 -0.253906 0.8125 -0.421875 C 0.625 -0.585938 0.476562 -0.789062 0.375 -1.03125 C 0.28125 -1.269531 0.234375 -1.53125 0.234375 -1.8125 C 0.234375 -2.144531 0.285156 -2.4375 0.390625 -2.6875 C 0.503906 -2.9375 0.65625 -3.140625 0.84375 -3.296875 C 1.03125 -3.460938 1.242188 -3.582031 1.484375 -3.65625 C 1.734375 -3.738281 1.992188 -3.78125 2.265625 -3.78125 C 2.628906 -3.78125 2.90625 -3.710938 3.09375 -3.578125 C 3.289062 -3.453125 3.390625 -3.285156 3.390625 -3.078125 C 3.390625 -2.984375 3.367188 -2.894531 3.328125 -2.8125 C 3.285156 -2.726562 3.234375 -2.65625 3.171875 -2.59375 C 3.085938 -2.632812 2.984375 -2.675781 2.859375 -2.71875 C 2.734375 -2.757812 2.601562 -2.78125 2.46875 -2.78125 Z M 2.46875 -2.78125 "/></g></g></g><g fill="#ffffff" fill-opacity="1"><g transform="translate(53.136047, 8.554806)"><g><path d="M 0.359375 -4.703125 C 0.359375 -4.890625 0.421875 -5.046875 0.546875 -5.171875 C 0.679688 -5.304688 0.851562 -5.375 1.0625 -5.375 C 1.28125 -5.375 1.453125 -5.304688 1.578125 -5.171875 C 1.703125 -5.046875 1.765625 -4.890625 1.765625 -4.703125 C 1.765625 -4.503906 1.703125 -4.335938 1.578125 -4.203125 C 1.453125 -4.078125 1.28125 -4.015625 1.0625 -4.015625 C 0.851562 -4.015625 0.679688 -4.078125 0.546875 -4.203125 C 0.421875 -4.335938 0.359375 -4.503906 0.359375 -4.703125 Z M 1.703125 0 C 1.648438 0 1.566406 0.0078125 1.453125 0.03125 C 1.347656 0.0507812 1.242188 0.0625 1.140625 0.0625 C 1.023438 0.0625 0.921875 0.0507812 0.828125 0.03125 C 0.742188 0.0195312 0.671875 -0.00390625 0.609375 -0.046875 C 0.546875 -0.0976562 0.5 -0.160156 0.46875 -0.234375 C 0.4375 -0.316406 0.421875 -0.421875 0.421875 -0.546875 L 0.421875 -3.625 C 0.472656 -3.632812 0.550781 -3.644531 0.65625 -3.65625 C 0.769531 -3.675781 0.882812 -3.6875 1 -3.6875 C 1.113281 -3.6875 1.210938 -3.675781 1.296875 -3.65625 C 1.378906 -3.644531 1.453125 -3.617188 1.515625 -3.578125 C 1.578125 -3.535156 1.625 -3.472656 1.65625 -3.390625 C 1.6875 -3.316406 1.703125 -3.210938 1.703125 -3.078125 Z M 1.703125 0 "/></g></g></g><g fill="#ffffff" fill-opacity="1"><g transform="translate(55.268577, 8.554806)"><g><path d="M 1.96875 -0.8125 C 2.050781 -0.8125 2.144531 -0.820312 2.25 -0.84375 C 2.351562 -0.863281 2.429688 -0.890625 2.484375 -0.921875 L 2.484375 -1.515625 L 1.9375 -1.46875 C 1.789062 -1.457031 1.671875 -1.425781 1.578125 -1.375 C 1.492188 -1.332031 1.453125 -1.257812 1.453125 -1.15625 C 1.453125 -1.050781 1.488281 -0.96875 1.5625 -0.90625 C 1.644531 -0.84375 1.78125 -0.8125 1.96875 -0.8125 Z M 1.90625 -3.78125 C 2.175781 -3.78125 2.421875 -3.753906 2.640625 -3.703125 C 2.867188 -3.648438 3.0625 -3.566406 3.21875 -3.453125 C 3.382812 -3.335938 3.507812 -3.191406 3.59375 -3.015625 C 3.675781 -2.847656 3.71875 -2.644531 3.71875 -2.40625 L 3.71875 -0.703125 C 3.71875 -0.578125 3.679688 -0.472656 3.609375 -0.390625 C 3.535156 -0.304688 3.445312 -0.234375 3.34375 -0.171875 C 3.019531 0.0234375 2.5625 0.125 1.96875 0.125 C 1.695312 0.125 1.453125 0.0976562 1.234375 0.046875 C 1.023438 -0.00390625 0.84375 -0.078125 0.6875 -0.171875 C 0.539062 -0.273438 0.425781 -0.40625 0.34375 -0.5625 C 0.257812 -0.71875 0.21875 -0.898438 0.21875 -1.109375 C 0.21875 -1.460938 0.316406 -1.726562 0.515625 -1.90625 C 0.722656 -2.09375 1.046875 -2.210938 1.484375 -2.265625 L 2.46875 -2.359375 L 2.46875 -2.421875 C 2.46875 -2.566406 2.40625 -2.671875 2.28125 -2.734375 C 2.15625 -2.796875 1.96875 -2.828125 1.71875 -2.828125 C 1.53125 -2.828125 1.34375 -2.804688 1.15625 -2.765625 C 0.976562 -2.722656 0.816406 -2.671875 0.671875 -2.609375 C 0.609375 -2.660156 0.550781 -2.734375 0.5 -2.828125 C 0.457031 -2.921875 0.4375 -3.015625 0.4375 -3.109375 C 0.4375 -3.242188 0.46875 -3.347656 0.53125 -3.421875 C 0.59375 -3.503906 0.691406 -3.570312 0.828125 -3.625 C 0.972656 -3.6875 1.144531 -3.726562 1.34375 -3.75 C 1.539062 -3.769531 1.726562 -3.78125 1.90625 -3.78125 Z M 1.90625 -3.78125 "/></g></g></g><g clip-path="url(#c6da1c888d)"><g fill="#ffffff" fill-opacity="1"><g transform="translate(59.382405, 8.554806)"><g><path d="M 1.703125 0 C 1.648438 0 1.566406 0.0078125 1.453125 0.03125 C 1.347656 0.0507812 1.238281 0.0625 1.125 0.0625 C 1.007812 0.0625 0.910156 0.0507812 0.828125 0.03125 C 0.742188 0.0195312 0.671875 -0.00390625 0.609375 -0.046875 C 0.546875 -0.0976562 0.5 -0.160156 0.46875 -0.234375 C 0.4375 -0.316406 0.421875 -0.421875 0.421875 -0.546875 L 0.421875 -4.9375 C 0.472656 -4.945312 0.550781 -4.957031 0.65625 -4.96875 C 0.769531 -4.988281 0.878906 -5 0.984375 -5 C 1.097656 -5 1.195312 -4.988281 1.28125 -4.96875 C 1.375 -4.957031 1.453125 -4.925781 1.515625 -4.875 C 1.578125 -4.832031 1.625 -4.769531 1.65625 -4.6875 C 1.6875 -4.613281 1.703125 -4.515625 1.703125 -4.390625 Z M 1.703125 0 "/></g></g></g></g></g></g></g></g></g></svg>